<svg xmlns="http://www.w3.org/2000/svg" xmlns:xlink="http://www.w3.org/1999/xlink" width="642" zoomAndPan="magnify" viewBox="0 0 481.5 222.749995" height="297" preserveAspectRatio="xMidYMid meet" version="1.0"><defs><g/></defs><g fill="#b7bfc7" fill-opacity="1"><g transform="translate(53.559977, 116.130201)"><g><path d="M 42.941406 -55.53125 C 29.648438 -50.824219 14.234375 -40.351562 8.117188 -30.707031 C 6.117188 -27.648438 6.824219 -21.53125 12.707031 -21.410156 C 13.648438 -21.53125 14.589844 -22 15.882812 -22.824219 C 14.707031 -23.058594 14 -23.058594 13.410156 -23.292969 C 12.707031 -23.410156 12.234375 -23.765625 12.351562 -24.472656 C 12.46875 -25.53125 12.824219 -26.472656 13.53125 -27.292969 C 15.882812 -30.234375 18.117188 -32.941406 20.824219 -35.53125 C 27.058594 -41.765625 37.882812 -47.882812 46 -50.472656 C 60.707031 -55.292969 72.117188 -50.117188 65.53125 -39.292969 C 63.882812 -36.472656 61.648438 -33.882812 59.175781 -31.648438 C 53.292969 -26.351562 47.175781 -21.882812 40.351562 -18.234375 C 36.472656 -16.117188 26.707031 -12.707031 23.648438 -12 C 28.707031 -23.410156 32 -30 31.53125 -31.410156 C 30.589844 -32.941406 29.648438 -33.410156 27.882812 -33.292969 C 26.117188 -31.410156 25.292969 -29.058594 24.117188 -26.824219 C 22.117188 -22.707031 20.824219 -18.351562 19.175781 -14 C 18.589844 -12.707031 18.472656 -11.058594 17.648438 -10 C 16.707031 -8.707031 17.292969 -7.410156 16.707031 -6.117188 C 16 -4.117188 15.765625 -2.117188 15.292969 -0.117188 C 14.707031 3.882812 14 8.117188 14 12.234375 C 13.882812 14.707031 14.117188 17.53125 15.53125 19.53125 C 15.765625 19.882812 15.53125 20.351562 16.234375 20.351562 C 18.351562 19.175781 17.53125 17.765625 18 16.234375 C 19.410156 16.351562 20.472656 16.589844 21.292969 16.824219 C 22.472656 17.292969 23.410156 17.53125 24.707031 17.882812 C 25.53125 18.117188 26.589844 18.351562 27.648438 18.472656 C 28.589844 18.707031 31.53125 18.707031 33.058594 18.824219 C 33.175781 18.824219 34.351562 18.941406 34.472656 18.824219 C 36.351562 18.589844 38.234375 18.707031 40.117188 18.351562 C 44.472656 17.648438 46.941406 17.058594 51.175781 14.707031 C 53.53125 13.410156 55.414062 12.117188 57.414062 10.351562 C 57.53125 10.351562 57.414062 10.117188 57.53125 9.765625 C 58 9.53125 58.472656 9.058594 58.941406 8.589844 C 63.765625 2.707031 63.292969 -4.351562 58.824219 -8.824219 C 54.351562 -13.292969 48.351562 -14.941406 42 -14.234375 L 42 -14.472656 C 46.351562 -17.058594 49.53125 -19.058594 53.058594 -21.058594 C 54 -21.648438 54.941406 -22.117188 55.648438 -22.824219 C 56.589844 -23.648438 57.648438 -24.351562 57.882812 -25.53125 C 58.234375 -25.53125 58.589844 -25.53125 58.824219 -25.648438 C 59.765625 -26.351562 60.707031 -26.941406 61.414062 -27.53125 C 62.351562 -28.824219 63.882812 -29.648438 64.117188 -31.410156 C 64.117188 -31.53125 64.234375 -31.648438 64.472656 -31.648438 L 65.53125 -32.234375 C 80.824219 -48 64.941406 -63.292969 42.941406 -55.53125 Z M 47.414062 -10.117188 C 51.648438 -9.53125 54 -8.117188 55.648438 -5.175781 C 57.882812 -1.058594 56.117188 4.234375 52.941406 7.53125 C 47.648438 12.941406 42 14.589844 34.824219 15.058594 C 29.765625 15.410156 24.589844 14 22.351562 13.410156 C 21.53125 13.175781 18.351562 12.234375 18.351562 9.882812 C 18.351562 7.175781 20.589844 -1.410156 21.058594 -3.175781 C 21.410156 -4.589844 21.648438 -5.53125 22.117188 -6.589844 C 22.707031 -6.707031 24.589844 -7.292969 26 -7.648438 C 31.882812 -9.058594 38.234375 -11.410156 47.414062 -10.117188 Z M 47.414062 -10.117188 "/></g></g></g><g fill="#b7bfc7" fill-opacity="1"><g transform="translate(127.560619, 116.130201)"><g><path d="M 38 -67.648438 C 37.765625 -68.234375 37.765625 -68.824219 37.648438 -69.765625 C 37.765625 -69.882812 37.765625 -70.117188 37.648438 -70.234375 L 36.941406 -70.824219 C 36.472656 -71.292969 35.882812 -71.765625 35.292969 -72 C 34.941406 -72.234375 34.351562 -72.472656 33.882812 -72.707031 C 32.234375 -73.175781 30.824219 -73.53125 29.53125 -72.234375 C 28.589844 -71.292969 27.53125 -70.234375 26.472656 -69.292969 C 25.410156 -68.234375 24.351562 -66.707031 23.53125 -65.175781 L 18.941406 -56.707031 C 18.824219 -56.472656 18.589844 -56.472656 18.472656 -56.234375 L 17.53125 -54.234375 L 16.707031 -51.53125 C 16.589844 -51.058594 15.648438 -49.53125 15.410156 -49.414062 C 15.410156 -49.175781 12.589844 -42 12.46875 -41.765625 C 12 -41.058594 12 -40.351562 11.765625 -39.648438 C 11.292969 -38.707031 10.941406 -37.648438 10.46875 -36.824219 C 10 -35.175781 9.292969 -33.292969 8.824219 -31.53125 C 8.234375 -30 8 -28.351562 7.648438 -27.058594 C 7.292969 -25.410156 7.175781 -24.824219 6.824219 -23.53125 C 6.589844 -22.589844 6.589844 -22.351562 6.589844 -21.882812 L 5.882812 -18 C 5.058594 -13.292969 5.058594 -12.117188 4.941406 -10.589844 C 4.589844 -7.175781 4.589844 -5.175781 4.941406 -2.234375 C 5.175781 -0.941406 5.410156 0.351562 5.765625 1.410156 C 6.234375 2.46875 6.46875 3.410156 7.058594 4.234375 C 7.765625 5.058594 8.234375 5.765625 8.824219 6.46875 C 9.175781 6.824219 10 7.53125 10.589844 7.765625 C 12.707031 8.707031 13.765625 8.589844 15.292969 8.234375 C 17.765625 7.53125 19.058594 2.824219 17.175781 3.648438 C 15.292969 4.941406 14.234375 5.765625 12.351562 4.941406 C 11.53125 4.589844 10.46875 2.941406 10 1.765625 C 9.058594 -0.46875 8.589844 -3.175781 8.46875 -6.351562 C 8.351562 -8.351562 8.824219 -11.53125 9.058594 -13.410156 C 9.292969 -14.941406 9.882812 -17.175781 10.46875 -18.117188 C 12 -19.410156 13.882812 -21.410156 15.175781 -22.824219 L 17.53125 -25.058594 C 17.882812 -25.410156 17.882812 -26 18.472656 -26.472656 C 18.472656 -26.472656 18.589844 -26.589844 18.824219 -26.472656 L 25.175781 -34.472656 C 26 -35.648438 33.175781 -48.351562 33.292969 -48.234375 C 33.53125 -48.941406 33.765625 -49.648438 33.648438 -50.351562 C 33.53125 -50.589844 33.292969 -50.941406 33.53125 -51.292969 C 33.765625 -51.53125 34 -52 34.234375 -52.351562 L 34.707031 -54.351562 L 36 -56 L 35.765625 -56.351562 C 36 -56.472656 36.824219 -57.414062 36.234375 -58.117188 L 37.410156 -64 C 37.058594 -64.941406 37.882812 -64.824219 37.882812 -65.765625 Z M 32.472656 -62.941406 C 32.117188 -60.707031 31.648438 -58.707031 30.824219 -56.707031 C 30.234375 -54.589844 29.292969 -52.589844 28.589844 -50.941406 C 27.410156 -48.472656 26.351562 -46.472656 25.292969 -44.117188 C 24.351562 -42.589844 23.648438 -41.175781 22.707031 -39.765625 C 22 -38.707031 21.175781 -37.53125 20.234375 -36.589844 C 18.941406 -34.707031 17.292969 -32.589844 15.882812 -30.824219 C 14.824219 -29.648438 13.410156 -27.648438 12.46875 -26.589844 L 13.175781 -29.882812 C 13.410156 -30.589844 13.765625 -30.941406 13.882812 -31.292969 C 14.707031 -32.941406 15.175781 -34.707031 15.765625 -36.472656 C 16.472656 -37.648438 16.941406 -39.292969 17.410156 -40.351562 C 17.648438 -40.941406 17.53125 -41.414062 17.765625 -42.117188 C 17.765625 -42.707031 18.117188 -43.414062 18.472656 -44.234375 C 18.824219 -45.058594 19.058594 -46 19.648438 -47.058594 C 19.882812 -47.414062 20.117188 -48 20.351562 -48.472656 C 20.824219 -49.765625 21.410156 -51.292969 22 -52.472656 C 22.472656 -53.648438 23.292969 -54.824219 23.882812 -56 C 24.707031 -57.292969 25.882812 -58.589844 26.351562 -60.117188 C 26.941406 -61.648438 28 -62.941406 29.058594 -64.234375 C 29.765625 -65.53125 30.941406 -66.589844 32 -67.648438 C 32.234375 -67.882812 32.351562 -68.117188 32.472656 -68.355469 L 33.292969 -69.058594 C 33.53125 -68.941406 33.648438 -68.941406 33.765625 -68.941406 C 33.292969 -66.941406 33.175781 -64.824219 32.472656 -62.941406 Z M 32.472656 -62.941406 "/></g></g></g><g fill="#b7bfc7" fill-opacity="1"><g transform="translate(155.560863, 116.130201)"><g><path d="M 44.589844 -15.648438 L 44.117188 -16.707031 L 43.765625 -16.941406 C 42.589844 -16.234375 41.648438 -15.648438 40.824219 -14.941406 C 38.117188 -13.175781 38.351562 -13.410156 35.53125 -11.648438 C 33.882812 -10.46875 32.117188 -9.410156 30.589844 -8.46875 C 28.941406 -7.292969 27.058594 -5.882812 25.175781 -5.058594 C 24.707031 -4.824219 24.234375 -4.824219 23.882812 -4.707031 C 23.53125 -4.589844 23.292969 -4.589844 23.058594 -4.707031 C 22.472656 -5.058594 22.117188 -5.53125 22 -6 C 21.292969 -7.648438 21.292969 -9.410156 21.648438 -11.058594 C 21.765625 -11.292969 21.765625 -11.53125 21.882812 -11.648438 C 22.234375 -12.589844 22.117188 -13.882812 22.117188 -13.882812 C 21.882812 -14.707031 21.410156 -15.292969 20.707031 -15.53125 C 19.292969 -15.648438 18.472656 -14.707031 17.53125 -14.589844 C 18.117188 -15.765625 19.058594 -16.824219 18.707031 -18.472656 C 18.234375 -21.175781 15.410156 -21.648438 12.941406 -22.117188 C 10.707031 -21.882812 8.707031 -20.472656 7.292969 -18.941406 C 5.882812 -17.175781 4.351562 -15.765625 3.058594 -13.765625 C 2.824219 -13.53125 2.589844 -12.941406 2.117188 -12.351562 L 1.292969 -10.941406 C 1.058594 -10.117188 0.707031 -9.53125 0.589844 -8.824219 C 0.589844 -8.707031 0.589844 -8.707031 0.46875 -8.589844 C 0.234375 -7.882812 0 -7.292969 -0.351562 -6.46875 C -0.824219 -4.707031 -0.46875 -3.175781 0.589844 -1.765625 C 1.292969 -1.410156 2.234375 -0.824219 2.46875 -0.589844 C 2.824219 -0.46875 3.175781 -0.46875 3.410156 -0.46875 C 5.175781 0.234375 7.175781 0.234375 9.058594 -0.707031 C 10.941406 -1.53125 12.824219 -3.058594 14.234375 -4.117188 C 14.472656 -4.234375 14.589844 -4.589844 14.824219 -4.824219 C 15.648438 -4.824219 15.648438 -6 16.472656 -6.46875 C 16.589844 -6.234375 16.589844 -6 16.824219 -5.882812 C 17.175781 -5.292969 17.058594 -5.058594 17.765625 -4.351562 C 18.234375 -3.292969 19.058594 -2.824219 19.765625 -1.882812 C 20.117188 -1.765625 20.351562 -1.292969 20.707031 -1.175781 C 20.941406 -0.941406 21.648438 -0.941406 21.882812 -0.824219 C 22.351562 -0.707031 23.410156 -0.941406 23.882812 -0.941406 C 24.234375 -0.941406 24.824219 -1.175781 24.941406 -1.175781 C 25.292969 -1.175781 25.882812 -1.410156 26.117188 -1.53125 C 26.707031 -1.882812 27.058594 -1.765625 27.765625 -2.117188 C 28.941406 -2.941406 30 -3.175781 30.941406 -4.234375 L 33.765625 -6.351562 L 35.53125 -7.882812 C 35.882812 -8 36.707031 -8.941406 36.824219 -9.058594 C 37.410156 -9.292969 37.882812 -9.882812 38.234375 -10.234375 C 38.589844 -10.46875 39.410156 -10.824219 40 -11.292969 C 41.53125 -12.351562 43.414062 -13.882812 44.589844 -15.648438 Z M 15.882812 -12.351562 C 14.117188 -10.46875 13.292969 -9.058594 11.53125 -7.175781 C 10.351562 -5.882812 9.292969 -5.058594 7.765625 -4.46875 C 6.589844 -4 4.46875 -3.882812 3.175781 -3.882812 C 3.765625 -6.234375 4.824219 -8.234375 5.882812 -10.117188 C 7.175781 -12.351562 11.292969 -17.882812 14.824219 -18.472656 C 14.707031 -18.351562 13.765625 -13.175781 16.351562 -12.941406 L 16.472656 -12.941406 C 16.472656 -12.941406 16 -12.351562 15.882812 -12.351562 Z M 15.882812 -12.351562 "/></g></g></g><g fill="#b7bfc7" fill-opacity="1"><g transform="translate(193.678837, 116.130201)"><g><path d="M 30.117188 -14.824219 C 30 -14.707031 29.765625 -14.589844 29.648438 -14.589844 C 29.058594 -14.117188 28.351562 -13.53125 27.765625 -13.175781 C 27.765625 -13.175781 27.765625 -12.941406 27.648438 -12.707031 C 27.292969 -13.175781 27.175781 -12.707031 27.058594 -12.589844 C 26.472656 -12.234375 26.117188 -12 25.882812 -11.648438 C 24.941406 -11.058594 22.234375 -8.351562 21.292969 -7.765625 C 20 -6.707031 18.707031 -5.648438 17.292969 -4.589844 L 13.648438 -2.589844 C 13.175781 -2.589844 12.824219 -2.234375 12.351562 -2 C 11.648438 -1.53125 10.824219 -1.175781 10 -0.941406 C 9.292969 -0.46875 8.351562 -0.351562 7.410156 -0.117188 C 5.882812 0.46875 4.351562 0.589844 2.941406 0.589844 C 2.589844 0.46875 2.234375 0.351562 2.117188 0 C 1.882812 -1.058594 1.765625 -2.351562 2.234375 -3.410156 C 2.824219 -5.410156 3.648438 -7.410156 4.824219 -9.175781 C 5.53125 -10.234375 6.234375 -11.175781 6.824219 -12.117188 C 7.410156 -13.058594 8.234375 -13.648438 8.707031 -14.589844 C 9.292969 -15.648438 10.351562 -16.351562 11.410156 -16.824219 C 11.765625 -17.058594 11.882812 -17.058594 12.117188 -16.589844 C 12.234375 -16.234375 12.589844 -15.882812 12.941406 -15.53125 C 13.410156 -15.175781 14 -14.941406 14.589844 -14.589844 C 14.941406 -14.351562 15.648438 -14.234375 15.882812 -14.589844 C 16.234375 -15.058594 16.589844 -15.410156 16.589844 -15.882812 C 16.824219 -16.351562 16.824219 -16.941406 16.707031 -17.175781 C 16.234375 -17.765625 15.648438 -18.351562 14.941406 -18.824219 C 14.472656 -19.292969 13.765625 -19.53125 13.058594 -19.882812 C 12.46875 -20.234375 11.882812 -20.707031 11.292969 -20.941406 C 10.824219 -21.175781 10.234375 -20.941406 9.765625 -21.058594 C 8.707031 -21.410156 7.648438 -21.175781 6.707031 -20.234375 C 6.234375 -19.882812 5.058594 -18.472656 4.941406 -18.351562 C 4.824219 -18.117188 4.589844 -17.882812 4.351562 -17.53125 C 4.117188 -17.53125 4 -17.292969 3.882812 -17.058594 C 1.882812 -14.351562 -1.292969 -9.410156 -1.53125 -4.589844 C -1.765625 -3.882812 -1.765625 -3.058594 -1.765625 -2.46875 C -1.648438 -1.53125 -1.410156 -0.824219 -1.292969 -0.117188 C -1.058594 0.46875 -0.824219 1.058594 -0.46875 1.53125 C 0.117188 2.117188 0.707031 2.824219 1.292969 3.292969 C 2.117188 3.765625 2.941406 4 3.648438 4.351562 C 4.117188 4.46875 4.824219 4.46875 5.175781 4.589844 L 8 4.941406 C 8.46875 5.058594 8.824219 4.589844 9.175781 4.234375 C 10.117188 3.882812 11.292969 3.648438 12.351562 3.175781 C 12.824219 2.941406 13.410156 2.824219 13.765625 2.589844 C 13.765625 2.117188 14.589844 2.117188 14.707031 2 C 15.175781 1.410156 16.589844 0.46875 16.707031 0.234375 C 16.707031 0.234375 16.707031 0.117188 16.824219 0.117188 C 17.175781 -0.117188 19.53125 -2.234375 21.648438 -4.117188 L 23.058594 -5.175781 C 23.292969 -5.410156 23.648438 -5.765625 24 -6.234375 C 24.234375 -6.351562 24.472656 -6.589844 24.589844 -6.707031 C 25.175781 -6.824219 26.707031 -9.292969 27.292969 -9.648438 C 27.53125 -9.765625 27.53125 -10 27.765625 -10.234375 C 27.765625 -10.351562 28 -10.589844 28.117188 -10.707031 C 28.351562 -10.941406 28.351562 -11.058594 28.472656 -11.175781 C 28.589844 -11.648438 29.292969 -11.765625 29.058594 -12.351562 C 29.058594 -12.46875 29.175781 -12.707031 29.292969 -12.707031 C 30 -13.058594 30.117188 -13.648438 30.234375 -14.351562 C 30.351562 -14.472656 30.117188 -14.589844 30.117188 -14.824219 Z M 30.117188 -14.824219 "/></g></g></g><g fill="#b7bfc7" fill-opacity="1"><g transform="translate(218.031984, 116.130201)"><g><path d="M 38.472656 -66.117188 C 38.472656 -66.707031 38.472656 -67.292969 38.351562 -67.648438 C 38.234375 -68.824219 38.117188 -70 37.765625 -70.707031 C 36.707031 -71.648438 35.765625 -73.058594 34.589844 -73.648438 C 33.765625 -73.882812 33.058594 -74 32.351562 -74 C 31.53125 -74 30.941406 -73.53125 30.234375 -73.292969 C 28.941406 -72.707031 28.351562 -72 27.765625 -71.058594 C 27.648438 -70.824219 27.410156 -70.707031 27.175781 -70.589844 C 27.058594 -70.234375 26.941406 -70.117188 26.707031 -69.882812 C 26 -69.058594 25.53125 -68.707031 25.058594 -67.648438 C 24.707031 -67.175781 24.234375 -66.707031 24 -66.234375 C 23.175781 -64.351562 22.234375 -63.414062 21.410156 -61.882812 C 20.941406 -61.058594 20.589844 -60.117188 20.234375 -59.292969 C 20 -58.351562 19.292969 -57.648438 18.941406 -56.707031 C 17.882812 -54 17.058594 -51.648438 15.882812 -49.058594 C 14.589844 -46.234375 13.882812 -43.292969 12.941406 -40.472656 C 12.117188 -38 11.53125 -35.648438 10.824219 -33.292969 C 10.351562 -30.941406 9.765625 -28.589844 9.175781 -26.234375 C 7.410156 -24.707031 4.941406 -22.707031 2.707031 -21.410156 C 2.234375 -21.058594 2.234375 -18.117188 2.46875 -17.648438 C 2.589844 -17.410156 2.941406 -17.175781 3.410156 -17.058594 C 4.117188 -16.824219 6.589844 -18.941406 7.53125 -19.410156 L 7.53125 -19.292969 L 6.351562 -13.175781 C 6.117188 -12.234375 6 -10.707031 5.765625 -10 C 5.53125 -8.707031 5.292969 -7.292969 4.941406 -6.117188 L 4.46875 -4.234375 C 4.46875 -3.292969 4.46875 -2.351562 4.117188 -1.53125 L 3.765625 0.351562 C 3.765625 0.707031 3.765625 1.058594 3.882812 1.292969 L 4.707031 2.117188 L 5.058594 2.824219 C 5.292969 3.175781 5.53125 3.292969 5.882812 3.410156 C 5.882812 4.234375 7.058594 4.234375 7.53125 3.292969 C 7.882812 2.707031 8.234375 2.117188 7.882812 1.292969 L 8.234375 -0.234375 L 8.351562 -0.824219 L 8.46875 -1.765625 C 8.46875 -2.351562 8.941406 -2.824219 8.941406 -3.410156 C 9.53125 -4.117188 9.058594 -4.351562 9.53125 -5.882812 C 9.648438 -6 10.117188 -8.707031 10.234375 -9.058594 L 11.648438 -10 L 12.707031 -10.824219 C 13.53125 -11.410156 14.351562 -11.882812 15.175781 -12.707031 C 17.058594 -14.234375 18 -14.589844 19.53125 -15.882812 C 20.589844 -16.472656 21.765625 -17.292969 22.941406 -16.941406 C 23.882812 -15.410156 23.648438 -14.234375 22.941406 -12.941406 C 21.765625 -10.824219 19.53125 -9.648438 17.410156 -8.46875 L 14 -6.707031 C 13.765625 -4.707031 13.765625 -2.589844 14.707031 -0.117188 C 14.941406 0.941406 15.410156 1.765625 16 2.589844 C 16.589844 3.410156 17.175781 3.765625 18.234375 4.351562 C 18.707031 5.058594 20 5.53125 21.058594 5.292969 C 21.292969 5.175781 21.53125 5.410156 21.882812 5.410156 C 22.941406 5.410156 23.648438 5.53125 24.941406 5.058594 C 26 4.824219 26.707031 4.46875 27.53125 4.117188 C 28.117188 3.648438 29.058594 3.175781 29.882812 2.707031 C 31.410156 1.882812 33.175781 -0.824219 34.234375 -1.882812 C 34.941406 -2.824219 35.882812 -4.46875 36.351562 -5.410156 C 36.589844 -5.882812 36.941406 -6.46875 37.058594 -7.175781 L 36.351562 -7.882812 C 35.058594 -6.941406 34.117188 -5.765625 32.234375 -4.234375 C 30.707031 -2.707031 27.292969 -0.117188 25.175781 0.824219 C 23.175781 1.53125 22.351562 1.765625 20.234375 1.53125 C 20.117188 1.53125 19.882812 1.410156 19.648438 1.058594 C 18.824219 -0.351562 17.765625 -2.941406 18 -4.941406 L 20.589844 -5.765625 C 21.882812 -6.589844 22.824219 -6.824219 24.589844 -8.46875 C 25.175781 -8.941406 25.765625 -9.410156 26.472656 -10.589844 C 27.175781 -11.765625 27.648438 -12.824219 27.765625 -14.234375 C 28.234375 -15.058594 28.117188 -16.117188 28.117188 -16.941406 C 28.117188 -17.410156 28 -17.648438 27.882812 -18.234375 C 25.292969 -19.882812 24.941406 -20 24.707031 -20.117188 C 23.882812 -20.234375 23.292969 -20.707031 22.472656 -20.707031 C 20.824219 -20.707031 19.53125 -20.472656 18 -19.648438 C 16.234375 -18.707031 15.292969 -17.648438 13.648438 -16.472656 C 12.707031 -15.648438 12 -15.175781 11.410156 -14.589844 C 11.058594 -14.472656 10.941406 -14.472656 10.824219 -14.472656 L 10.941406 -15.292969 C 11.175781 -16.234375 12.234375 -22.234375 12.351562 -22.472656 C 12.941406 -23.175781 13.765625 -23.648438 14 -24.351562 C 14.117188 -24.707031 14.589844 -24.589844 14.707031 -24.941406 C 15.882812 -26.351562 16.472656 -27.53125 17.765625 -28.824219 C 18.824219 -29.882812 19.765625 -30.707031 20.707031 -32 C 21.648438 -33.292969 21.882812 -33.058594 22.824219 -34.234375 C 23.058594 -34.351562 23.175781 -34.589844 23.058594 -34.589844 C 22.941406 -34.941406 23.058594 -34.941406 23.292969 -35.058594 L 24.117188 -36 C 24.589844 -36.472656 24.824219 -37.175781 25.292969 -37.765625 C 25.53125 -38 25.648438 -38.472656 25.882812 -38.472656 C 26.351562 -39.175781 26.707031 -39.648438 27.058594 -40.589844 L 27.058594 -40.707031 L 27.882812 -41.648438 C 31.292969 -46.824219 34.117188 -52 36.117188 -57.175781 C 36.824219 -57.882812 37.410156 -60.234375 37.410156 -60.472656 C 37.53125 -60.589844 37.53125 -60.824219 37.53125 -60.941406 L 37.765625 -62.234375 C 37.882812 -62.941406 38 -64 38.234375 -64.589844 C 38.472656 -65.175781 38.589844 -65.765625 38.472656 -66.117188 Z M 34.472656 -64.941406 C 33.882812 -63.648438 33.882812 -62.824219 33.648438 -62 C 32.941406 -60.117188 32 -58 31.410156 -56.589844 C 30.472656 -55.058594 30 -53.53125 29.058594 -51.882812 C 28.234375 -50.472656 27.058594 -48.941406 26.117188 -47.058594 L 26.117188 -46.941406 C 25.058594 -45.648438 24.234375 -44 23.058594 -42.117188 C 22.472656 -41.292969 21.882812 -40.234375 21.292969 -39.648438 C 20.351562 -38.117188 19.410156 -36.941406 18.117188 -35.53125 C 16.824219 -33.648438 15.765625 -32.824219 14.472656 -31.175781 L 14 -30.351562 C 14.824219 -33.292969 15.175781 -34.589844 16.234375 -37.648438 C 16.941406 -40.351562 17.648438 -41.648438 18.824219 -45.414062 C 19.648438 -47.765625 19.882812 -49.058594 20.589844 -50.472656 C 20.824219 -51.175781 21.410156 -51.53125 21.648438 -52.351562 L 21.53125 -52.472656 C 21.765625 -54.234375 22.824219 -55.175781 23.410156 -56.824219 C 24.351562 -58.589844 25.058594 -60.117188 26 -61.765625 C 27.058594 -63.414062 28.234375 -64.707031 29.058594 -66 C 30 -67.175781 30.472656 -67.882812 31.410156 -68.589844 C 32 -69.058594 32.589844 -69.414062 33.175781 -69.414062 C 34.589844 -69.058594 34.472656 -68.234375 34.472656 -64.941406 Z M 34.472656 -64.941406 "/></g></g></g><g fill="#b7bfc7" fill-opacity="1"><g transform="translate(254.620536, 116.130201)"><g/></g></g><g fill="#b7bfc7" fill-opacity="1"><g transform="translate(276.973672, 116.130201)"><g><path d="M 62.234375 23.648438 C 64.824219 22.824219 66.589844 21.292969 68.234375 19.292969 C 68.472656 19.058594 68.824219 18.472656 68.589844 17.882812 C 67.765625 18.707031 67.292969 19.175781 66.589844 19.648438 C 64.589844 21.175781 62.707031 21.410156 59.882812 21.292969 C 54.824219 20.472656 50.707031 18.351562 47.414062 14.351562 C 44.941406 10.941406 42.707031 7.058594 40.941406 3.175781 C 40.824219 2.824219 40.589844 2.234375 40.472656 1.765625 C 40.589844 1.765625 40.589844 1.765625 40.589844 1.648438 C 40.117188 0.707031 39.648438 -0.351562 39.058594 -1.292969 C 38.707031 -2 38.472656 -2.351562 38.824219 -2.941406 C 38.234375 -3.648438 37.882812 -4.234375 37.765625 -4.824219 C 38 -6.351562 37.058594 -7.648438 36.472656 -9.058594 C 39.765625 -10.117188 42.824219 -11.648438 45.648438 -12.941406 C 48.589844 -14.234375 50.941406 -15.882812 53.53125 -18.117188 C 56 -20.234375 58.589844 -22.824219 60.117188 -26 C 60.941406 -27.648438 61.765625 -29.292969 62.234375 -31.058594 C 63.058594 -34.824219 63.058594 -38 62 -41.414062 C 61.292969 -43.53125 60.589844 -45.175781 59.414062 -46.589844 C 57.175781 -49.53125 54.472656 -51.292969 51.648438 -52.824219 C 49.648438 -53.765625 47.53125 -54.117188 45.414062 -54.117188 C 42.351562 -54.117188 39.292969 -54.117188 36.234375 -53.648438 C 32.351562 -53.175781 28.707031 -52 25.292969 -50.117188 C 22 -48.351562 18.941406 -46.234375 16 -43.882812 C 13.410156 -41.765625 10.824219 -39.292969 8.46875 -36.589844 C 7.765625 -35.53125 7.058594 -34.589844 6.589844 -33.410156 C 6.234375 -32.472656 5.765625 -31.175781 6 -30.234375 C 6.234375 -28.472656 7.058594 -27.292969 7.53125 -25.765625 C 7.882812 -25.410156 8.941406 -25.058594 9.175781 -25.410156 C 10.351562 -26.351562 11.058594 -27.175781 10.707031 -28.351562 C 10.589844 -30.472656 11.175781 -31.882812 12.117188 -33.410156 C 13.175781 -34.941406 14.117188 -36.117188 15.175781 -37.53125 C 17.292969 -40.472656 20 -42.351562 22.707031 -44.472656 C 22.941406 -44.589844 23.292969 -44.589844 23.410156 -44.707031 C 26.117188 -45.882812 28.472656 -47.765625 31.058594 -48.589844 C 31.410156 -48.589844 31.53125 -48.824219 31.882812 -49.058594 C 32.707031 -49.175781 33.175781 -49.648438 34.117188 -49.765625 C 36.117188 -50.707031 38.351562 -50.824219 40.707031 -50.941406 C 42.472656 -51.414062 44.351562 -51.53125 46.117188 -51.53125 C 49.53125 -51.53125 52.589844 -50.824219 55.058594 -48.351562 C 57.414062 -46.117188 58.824219 -43.648438 59.53125 -40.589844 C 60.351562 -35.53125 59.058594 -31.175781 56.472656 -27.175781 C 55.648438 -25.410156 53.882812 -24 52.941406 -22.117188 C 52.941406 -22 52.824219 -21.765625 52.707031 -21.765625 C 51.648438 -21.648438 51.292969 -20.472656 50.707031 -19.765625 C 50.117188 -19.175781 49.648438 -18.589844 48.824219 -18.117188 C 47.414062 -17.292969 46.117188 -16.117188 44.941406 -15.175781 C 44.351562 -14.941406 43.53125 -14.351562 42.941406 -14.117188 C 42.472656 -13.765625 42 -13.648438 41.648438 -13.410156 C 40 -11.882812 37.882812 -10.941406 35.53125 -10.351562 C 35.058594 -10.824219 34.351562 -10.941406 33.648438 -11.058594 C 32.472656 -11.410156 31.175781 -10.707031 30.472656 -9.648438 C 30.234375 -9.175781 30 -8.707031 30 -8.117188 C 29.882812 -7.765625 29.882812 -7.292969 29.882812 -7.058594 C 31.292969 -3.292969 32.824219 0.589844 35.058594 4.117188 C 35.175781 4.234375 35.292969 4.824219 35.292969 5.292969 C 36.351562 7.175781 37.175781 9.058594 38.234375 10.824219 C 40.472656 14.472656 42.824219 17.648438 46.117188 20.234375 C 50.941406 23.648438 56.351562 25.175781 62.234375 23.648438 Z M 18.941406 17.882812 C 16.589844 14.589844 16.589844 11.058594 17.53125 7.292969 C 18.234375 4.824219 18.707031 2.117188 19.292969 0 C 19.53125 -1.410156 19.765625 -2.46875 20.351562 -3.53125 C 21.175781 -5.882812 22 -7.765625 22.941406 -9.882812 C 25.410156 -14.941406 27.882812 -20 30 -24.941406 C 31.648438 -28.117188 33.058594 -30.941406 34.472656 -34.234375 C 35.175781 -35.292969 35.53125 -36.589844 36.117188 -37.648438 C 36.472656 -38.351562 36.472656 -39.292969 36.589844 -40.117188 C 36.589844 -41.414062 35.410156 -42.707031 34.234375 -42.707031 C 31.882812 -42.824219 29.53125 -42.589844 27.53125 -41.765625 C 26.824219 -39.882812 27.410156 -38.589844 27.882812 -37.410156 C 27.53125 -36 27.53125 -35.410156 26.941406 -34.472656 C 25.765625 -30.941406 24.351562 -27.765625 23.175781 -24.472656 C 22.472656 -22.941406 22.117188 -21.765625 21.410156 -20.589844 C 20.707031 -19.53125 20 -18.824219 20.589844 -17.175781 C 20.234375 -15.53125 19.648438 -14.234375 18.589844 -12.707031 C 18.589844 -11.292969 17.53125 -9.648438 16.824219 -8.234375 L 16.824219 -8.351562 C 16.472656 -6 15.410156 -3.882812 14.589844 -1.882812 C 14.351562 -1.292969 14.234375 -1.058594 14.351562 -0.589844 C 14.351562 1.058594 14 2.589844 13.058594 3.882812 L 11.882812 8.46875 C 12 9.175781 12.117188 9.765625 12.117188 10.234375 C 12.117188 12.234375 12.941406 14.234375 13.648438 16.117188 C 15.882812 20.824219 19.292969 18.941406 18.941406 17.882812 Z M 18.941406 17.882812 "/></g></g></g><g fill="#b7bfc7" fill-opacity="1"><g transform="translate(342.503635, 116.130201)"><g><path d="M 33.410156 -16.117188 C 30.472656 -15.058594 29.058594 -14.707031 27.292969 -14 C 25.292969 -13.292969 23.175781 -12.707031 21.058594 -11.882812 C 20.941406 -12 21.058594 -12.117188 21.058594 -12.234375 L 20.234375 -14.824219 C 19.648438 -16 19.175781 -16.707031 18.472656 -17.292969 C 18.234375 -17.410156 17.765625 -17.410156 17.648438 -17.53125 C 16.234375 -18.707031 14.589844 -18.707031 13.410156 -19.175781 C 13.175781 -19.292969 12.941406 -19.292969 12.824219 -19.410156 C 12.351562 -19.882812 12.117188 -20.472656 11.53125 -20.472656 C 10.589844 -20.472656 9.410156 -20.589844 8.351562 -20.117188 C 6.941406 -19.410156 5.765625 -18.472656 4.707031 -17.410156 C 4 -16.707031 3.53125 -15.292969 2.707031 -14.117188 C 2.589844 -14.117188 2.351562 -12.589844 2.117188 -11.882812 C 1.53125 -9.765625 0.46875 -7.53125 0.589844 -5.292969 C 0.707031 -3.410156 0.824219 -1.175781 2.117188 0.117188 C 2.941406 1.175781 3.882812 2 5.292969 2.234375 C 6.234375 2.707031 7.648438 2.707031 8.824219 2.824219 C 9.058594 2.941406 9.53125 2.941406 10 2.824219 C 11.058594 2.46875 11.882812 2.234375 12.824219 1.648438 C 13.292969 1.648438 13.765625 1.410156 14.117188 1.175781 C 14.589844 0.589844 15.292969 0 15.882812 -0.589844 L 16.117188 -0.824219 C 17.175781 -2 17.765625 -3.175781 18.707031 -4.234375 C 18.824219 -4.351562 18.707031 -4.824219 18.824219 -4.941406 C 19.53125 -5.410156 19.53125 -6.117188 20.117188 -6.707031 C 20.117188 -6.707031 20.117188 -6.824219 20.117188 -6.824219 L 19.882812 -6.941406 C 19.882812 -7.410156 20.117188 -7.765625 20.234375 -8.117188 C 20.234375 -8.589844 20.351562 -8.824219 20.941406 -8.824219 C 21.175781 -8.824219 21.410156 -8.941406 21.765625 -8.941406 C 22.941406 -9.058594 23.882812 -9.175781 25.175781 -9.765625 L 26.824219 -10.46875 C 27.410156 -10.707031 28.351562 -10.707031 28.472656 -11.410156 C 28.472656 -11.53125 28.589844 -11.53125 28.707031 -11.53125 L 29.53125 -11.53125 C 30 -11.53125 30 -12 30.472656 -12.351562 C 31.175781 -12.824219 32.117188 -13.53125 33.53125 -14.941406 L 33.53125 -16 Z M 16.707031 -11.410156 L 13.410156 -11.410156 C 12.707031 -11.410156 12.351562 -11.53125 12.117188 -12.117188 C 11.765625 -12.707031 11.648438 -13.410156 11.648438 -14 C 11.765625 -15.058594 12.589844 -15.53125 13.292969 -16.117188 C 13.648438 -16.472656 14.234375 -16.707031 14.941406 -16.707031 C 15.292969 -16.824219 15.53125 -16.824219 15.765625 -16.472656 C 16.351562 -15.53125 16.472656 -14.351562 16.707031 -13.410156 C 16.707031 -12.707031 16.589844 -12 16.707031 -11.410156 Z M 15.648438 -7.882812 C 15.058594 -7.058594 14.824219 -6.117188 14.351562 -5.410156 C 13.765625 -4.46875 13.058594 -3.648438 12.351562 -2.941406 C 11.058594 -1.648438 9.410156 -0.46875 7.648438 0 C 6.117188 0.589844 4.707031 0.117188 4.589844 -0.824219 C 4.46875 -1.53125 4.234375 -2.117188 4.234375 -2.941406 C 4.234375 -4.117188 4.234375 -5.53125 4.707031 -6.707031 C 4.824219 -7.292969 4.824219 -7.882812 5.058594 -8.589844 C 5.175781 -9.058594 5.410156 -9.765625 5.765625 -10.234375 C 6.351562 -11.410156 6.941406 -12.351562 7.53125 -13.765625 C 7.648438 -13.292969 7.882812 -12.824219 8.117188 -12.46875 C 8.351562 -11.765625 8.941406 -11.175781 9.765625 -10.707031 C 10.707031 -10 12 -9.410156 13.175781 -9.175781 C 13.765625 -8.941406 14.707031 -8.824219 15.292969 -8.824219 C 15.882812 -8.589844 16.117188 -8.46875 15.648438 -7.882812 Z M 15.648438 -7.882812 "/></g></g></g><g fill="#b7bfc7" fill-opacity="1"><g transform="translate(370.15093, 116.130201)"><g><path d="M 20.589844 -23.175781 C 20.234375 -23.410156 19.648438 -24 17.292969 -24 C 15.882812 -24 15.292969 -23.648438 14.234375 -23.410156 L 13.175781 -22.824219 C 12.351562 -22.472656 12.351562 -22.472656 11.765625 -22 C 11.410156 -21.292969 10.824219 -20.589844 10.351562 -20 C 9.765625 -19.292969 10 -18.234375 9.882812 -17.410156 C 9.410156 -16.941406 9.53125 -15.53125 9.53125 -15.058594 L 10 -14.117188 C 9.882812 -13.53125 10.117188 -13.058594 10.351562 -12.589844 C 10.941406 -11.53125 11.058594 -10.824219 11.53125 -9.410156 L 11.648438 -8.941406 L 11.882812 -8.351562 L 12.351562 -7.648438 L 13.058594 -6.234375 L 13.292969 -5.882812 L 14.941406 -1.648438 C 15.648438 0.117188 15.882812 0.941406 15.765625 2.46875 C 15.882812 3.410156 15.882812 4.46875 15.648438 5.53125 C 15.53125 6.234375 15.292969 7.058594 14.707031 7.882812 C 13.765625 9.175781 13.058594 9.53125 10.824219 9.882812 C 10.117188 10 9.175781 9.765625 8.589844 9.410156 C 7.648438 8.46875 6.941406 8 6.941406 6.941406 C 7.058594 6.707031 6.707031 6.351562 6.46875 6.117188 C 6 5.292969 5.882812 4.234375 6.117188 2.234375 L 6.824219 0.589844 L 8.234375 -0.941406 L 8.117188 -2 L 7.882812 -2.234375 L 7.882812 -2.351562 C 6.824219 -1.882812 6.707031 -2 5.765625 -1.292969 C 4.707031 -0.589844 3.53125 0.46875 2.707031 1.53125 L 2.589844 3.648438 C 2.589844 3.648438 2.351562 3.648438 2.351562 3.882812 L 2.351562 4 C 2.351562 5.175781 2.707031 6.46875 3.292969 7.292969 C 3.765625 7.882812 4.234375 8.824219 5.058594 9.53125 C 5.53125 10.234375 6.46875 11.175781 7.53125 11.882812 C 8 12.589844 8.941406 12.589844 9.175781 12.824219 C 9.765625 13.058594 10.707031 13.058594 11.648438 13.292969 C 12.707031 13.410156 13.53125 13.53125 14.234375 13.292969 L 15.410156 12.941406 C 15.292969 12.707031 15.175781 12.707031 15.175781 12.589844 C 15.53125 12.589844 15.882812 12.589844 16.234375 12.46875 C 16.941406 12.234375 18.117188 11.175781 18.941406 10 C 19.765625 9.292969 20 8.117188 20 8 C 20.117188 7.292969 20.941406 6.351562 20.472656 5.882812 C 20.707031 5.292969 20.589844 5.058594 20.472656 4.707031 C 20.707031 2.941406 20.824219 2.117188 20.472656 0.351562 C 20.472656 0.117188 20.117188 0 20.117188 -0.234375 C 20.351562 -0.707031 20.117188 -0.824219 19.882812 -1.058594 C 19.765625 -1.410156 19.53125 -1.765625 19.53125 -2.351562 L 19.175781 -3.53125 C 18.824219 -4.589844 18.589844 -4.707031 18.351562 -5.765625 C 18.351562 -6.117188 17.648438 -6.589844 17.765625 -6.941406 C 17.648438 -7.175781 17.292969 -7.292969 17.410156 -7.53125 L 16.824219 -8 L 16.472656 -9.058594 L 16.234375 -9.648438 L 15.765625 -10.46875 L 15.765625 -11.175781 C 15.53125 -11.292969 15.53125 -11.410156 15.53125 -11.765625 C 15.53125 -12.117188 15.175781 -12.46875 15.175781 -12.941406 C 14.824219 -13.882812 14.472656 -14.589844 14.589844 -15.765625 C 14.234375 -16.707031 14.234375 -17.648438 14.589844 -18.351562 C 14.707031 -18.941406 15.175781 -19.292969 15.53125 -19.53125 C 15.765625 -19.882812 16.117188 -20.117188 16.351562 -20.234375 C 16.824219 -20.589844 16.824219 -20.351562 17.882812 -20.707031 L 19.175781 -20.707031 C 20.589844 -20.351562 21.765625 -20 22.117188 -19.410156 L 22.472656 -19.410156 L 22.472656 -19.53125 L 23.058594 -19.53125 L 23.175781 -19.292969 L 23.410156 -19.175781 C 23.410156 -19.648438 23.53125 -21.292969 20.589844 -23.175781 Z M 20.589844 -23.175781 "/></g></g></g><g fill="#b7bfc7" fill-opacity="1"><g transform="translate(398.268815, 116.130201)"><g><path d="M 30.941406 -11.53125 C 31.292969 -11.765625 31.53125 -12.117188 31.882812 -12.351562 C 31.882812 -12.46875 31.765625 -12.46875 31.765625 -12.46875 L 31.53125 -13.292969 L 27.53125 -10.351562 C 27.292969 -10.117188 26.589844 -9.765625 26.117188 -9.53125 C 24.941406 -8.824219 22.707031 -7.53125 21.648438 -6.824219 L 21.292969 -6.589844 L 17.410156 -4.351562 C 16.824219 -4 16.234375 -4 15.648438 -3.765625 C 14.707031 -3.410156 13.765625 -2.941406 12.941406 -2.589844 C 11.882812 -2.234375 10.824219 -1.765625 9.765625 -1.648438 C 8.234375 -1.410156 6.707031 -1.53125 5.175781 -1.410156 C 4.234375 -1.765625 4 -2 3.53125 -3.410156 C 4.351562 -3.882812 4.707031 -4 5.648438 -4.46875 C 5.882812 -4.707031 6.117188 -5.058594 6.46875 -5.175781 C 7.175781 -5.648438 8.117188 -6 8.941406 -6.46875 C 9.058594 -6.589844 9.058594 -6.941406 9.175781 -7.058594 L 10.824219 -8.234375 C 11.292969 -8.46875 12.117188 -8.589844 12.234375 -9.410156 C 12.351562 -9.765625 13.058594 -9.882812 13.410156 -10.234375 C 14.472656 -11.292969 15.53125 -12.351562 16.589844 -13.53125 C 16.941406 -13.882812 17.292969 -14.472656 17.53125 -15.058594 C 17.882812 -16 17.292969 -18 16.351562 -18.589844 C 15.53125 -19.292969 14.589844 -20 13.53125 -20.472656 C 12.707031 -20.941406 11.648438 -21.765625 10.46875 -21.292969 C 10 -21.175781 9.648438 -21.058594 9.292969 -21.058594 C 7.765625 -20.941406 6.46875 -20.234375 5.410156 -19.175781 C 4.351562 -18 3.292969 -16.824219 2.234375 -15.53125 C 1.648438 -14.824219 1.175781 -14.117188 0.707031 -13.410156 C -0.46875 -11.175781 -1.058594 -8.941406 -1.175781 -6.589844 C -1.175781 -5.765625 -1.292969 -4.941406 -0.707031 -3.53125 C -0.46875 -2.351562 -0.46875 -2.351562 -0.234375 -2.117188 C 0.46875 -1.058594 0.941406 -0.351562 1.765625 0.234375 C 1.882812 0.351562 2.234375 0.46875 2.351562 0.707031 C 3.53125 1.648438 4 1.765625 5.058594 2.117188 C 6.117188 2.46875 7.410156 2.707031 8.589844 2.824219 C 9.53125 2.941406 10.351562 2.707031 11.292969 2.46875 C 11.882812 2.351562 12.589844 2.234375 13.058594 2 C 13.410156 1.765625 13.648438 1.648438 14.117188 1.648438 C 14.941406 1.53125 15.765625 1.53125 16.472656 1.175781 C 17.648438 0.707031 18.589844 -0.117188 19.648438 -0.707031 C 20.472656 -1.292969 21.175781 -1.765625 22.117188 -2.234375 L 24.351562 -4 C 24.824219 -4.351562 25.410156 -4.824219 25.882812 -5.292969 C 26 -5.410156 26.472656 -5.882812 26.589844 -6.234375 L 26.589844 -6.351562 C 26.707031 -7.175781 27.175781 -7.410156 27.648438 -7.765625 C 27.292969 -8.117188 27.53125 -8.351562 28 -8.589844 L 28.351562 -9.058594 C 28.941406 -9.410156 28.941406 -9.765625 29.175781 -10 Z M 4.234375 -10.589844 C 4.941406 -12 5.765625 -13.410156 6.707031 -14.707031 C 7.53125 -15.765625 8.589844 -16.351562 9.648438 -17.175781 C 10.589844 -17.882812 11.648438 -17.882812 12.707031 -18.351562 C 13.175781 -18.589844 13.765625 -17.53125 13.410156 -16.941406 C 12.941406 -16.117188 12.46875 -15.410156 11.765625 -14.824219 L 8.589844 -12 L 5.410156 -9.410156 C 4.941406 -9.058594 4.351562 -8.707031 3.410156 -8.117188 C 3.648438 -9.058594 3.882812 -9.882812 4.234375 -10.589844 Z M 4.234375 -10.589844 "/></g></g></g><g fill="#b7bfc7" fill-opacity="1"><g transform="translate(115.789538, 162.157521)"><g><path d="M 12.328125 -12.921875 L 12.328125 0 L 9.921875 0 L 9.921875 -5.65625 L 3.859375 -5.65625 L 3.859375 0 L 1.4375 0 L 1.4375 -12.921875 L 3.859375 -12.921875 L 3.859375 -7.359375 L 9.921875 -7.359375 L 9.921875 -12.921875 Z M 12.328125 -12.921875 "/></g></g></g><g fill="#b7bfc7" fill-opacity="1"><g transform="translate(130.310476, 162.157521)"><g><path d="M 8.265625 -4.875 L 6.6875 -9.171875 C 6.613281 -9.367188 6.535156 -9.597656 6.453125 -9.859375 C 6.367188 -10.117188 6.285156 -10.398438 6.203125 -10.703125 C 6.128906 -10.398438 6.050781 -10.113281 5.96875 -9.84375 C 5.882812 -9.582031 5.800781 -9.351562 5.71875 -9.15625 L 4.15625 -4.875 Z M 12.515625 0 L 10.65625 0 C 10.445312 0 10.273438 -0.0507812 10.140625 -0.15625 C 10.015625 -0.257812 9.914062 -0.390625 9.84375 -0.546875 L 8.890625 -3.1875 L 3.53125 -3.1875 L 2.5625 -0.546875 C 2.519531 -0.410156 2.425781 -0.285156 2.28125 -0.171875 C 2.144531 -0.0546875 1.976562 0 1.78125 0 L -0.09375 0 L 4.984375 -12.921875 L 7.4375 -12.921875 Z M 12.515625 0 "/></g></g></g><g fill="#b7bfc7" fill-opacity="1"><g transform="translate(143.473184, 162.157521)"><g><path d="M 3.859375 0 L 1.4375 0 L 1.4375 -12.921875 L 3.859375 -12.921875 Z M 3.859375 0 "/></g></g></g><g fill="#b7bfc7" fill-opacity="1"><g transform="translate(149.523066, 162.157521)"><g><path d="M 5.34375 -6.78125 C 5.800781 -6.78125 6.195312 -6.832031 6.53125 -6.9375 C 6.863281 -7.050781 7.140625 -7.207031 7.359375 -7.40625 C 7.578125 -7.613281 7.738281 -7.851562 7.84375 -8.125 C 7.957031 -8.394531 8.015625 -8.695312 8.015625 -9.03125 C 8.015625 -9.6875 7.796875 -10.1875 7.359375 -10.53125 C 6.929688 -10.882812 6.269531 -11.0625 5.375 -11.0625 L 3.84375 -11.0625 L 3.84375 -6.78125 Z M 11.53125 0 L 9.359375 0 C 8.941406 0 8.644531 -0.160156 8.46875 -0.484375 L 5.75 -4.625 C 5.644531 -4.78125 5.53125 -4.890625 5.40625 -4.953125 C 5.289062 -5.015625 5.113281 -5.046875 4.875 -5.046875 L 3.84375 -5.046875 L 3.84375 0 L 1.4375 0 L 1.4375 -12.921875 L 5.375 -12.921875 C 6.25 -12.921875 7 -12.828125 7.625 -12.640625 C 8.257812 -12.460938 8.773438 -12.207031 9.171875 -11.875 C 9.578125 -11.550781 9.875 -11.160156 10.0625 -10.703125 C 10.257812 -10.253906 10.359375 -9.753906 10.359375 -9.203125 C 10.359375 -8.765625 10.289062 -8.351562 10.15625 -7.96875 C 10.03125 -7.582031 9.847656 -7.226562 9.609375 -6.90625 C 9.367188 -6.59375 9.070312 -6.316406 8.71875 -6.078125 C 8.363281 -5.847656 7.957031 -5.660156 7.5 -5.515625 C 7.65625 -5.429688 7.800781 -5.328125 7.9375 -5.203125 C 8.070312 -5.078125 8.191406 -4.929688 8.296875 -4.765625 Z M 11.53125 0 "/></g></g></g><g fill="#b7bfc7" fill-opacity="1"><g transform="translate(161.765397, 162.157521)"><g/></g></g><g fill="#b7bfc7" fill-opacity="1"><g transform="translate(166.859165, 162.157521)"><g><path d="M 4.265625 -6.046875 C 3.796875 -5.734375 3.453125 -5.378906 3.234375 -4.984375 C 3.015625 -4.597656 2.90625 -4.179688 2.90625 -3.734375 C 2.90625 -3.410156 2.960938 -3.113281 3.078125 -2.84375 C 3.191406 -2.582031 3.34375 -2.359375 3.53125 -2.171875 C 3.726562 -1.992188 3.957031 -1.859375 4.21875 -1.765625 C 4.476562 -1.671875 4.753906 -1.625 5.046875 -1.625 C 5.566406 -1.625 6.039062 -1.703125 6.46875 -1.859375 C 6.90625 -2.023438 7.300781 -2.253906 7.65625 -2.546875 Z M 12.875 0 L 10.71875 0 C 10.488281 0 10.300781 -0.0234375 10.15625 -0.078125 C 10.019531 -0.128906 9.875 -0.242188 9.71875 -0.421875 L 8.828125 -1.34375 C 8.265625 -0.875 7.628906 -0.507812 6.921875 -0.25 C 6.222656 0.0078125 5.460938 0.140625 4.640625 0.140625 C 4.148438 0.140625 3.664062 0.0546875 3.1875 -0.109375 C 2.707031 -0.273438 2.28125 -0.519531 1.90625 -0.84375 C 1.53125 -1.164062 1.226562 -1.554688 1 -2.015625 C 0.769531 -2.472656 0.65625 -2.988281 0.65625 -3.5625 C 0.65625 -3.96875 0.71875 -4.347656 0.84375 -4.703125 C 0.976562 -5.066406 1.160156 -5.398438 1.390625 -5.703125 C 1.628906 -6.015625 1.90625 -6.296875 2.21875 -6.546875 C 2.539062 -6.796875 2.894531 -7.007812 3.28125 -7.1875 C 2.957031 -7.632812 2.722656 -8.070312 2.578125 -8.5 C 2.441406 -8.925781 2.375 -9.347656 2.375 -9.765625 C 2.375 -10.210938 2.453125 -10.632812 2.609375 -11.03125 C 2.773438 -11.4375 3.015625 -11.789062 3.328125 -12.09375 C 3.640625 -12.394531 4.019531 -12.628906 4.46875 -12.796875 C 4.914062 -12.972656 5.425781 -13.0625 6 -13.0625 C 6.53125 -13.0625 7 -12.976562 7.40625 -12.8125 C 7.820312 -12.65625 8.175781 -12.441406 8.46875 -12.171875 C 8.769531 -11.910156 9.003906 -11.609375 9.171875 -11.265625 C 9.335938 -10.921875 9.4375 -10.5625 9.46875 -10.1875 L 8.078125 -9.890625 C 7.804688 -9.835938 7.613281 -9.953125 7.5 -10.234375 C 7.445312 -10.390625 7.375 -10.535156 7.28125 -10.671875 C 7.195312 -10.816406 7.09375 -10.941406 6.96875 -11.046875 C 6.851562 -11.148438 6.710938 -11.234375 6.546875 -11.296875 C 6.390625 -11.359375 6.207031 -11.390625 6 -11.390625 C 5.75 -11.390625 5.523438 -11.34375 5.328125 -11.25 C 5.140625 -11.164062 4.976562 -11.050781 4.84375 -10.90625 C 4.707031 -10.757812 4.601562 -10.585938 4.53125 -10.390625 C 4.457031 -10.203125 4.421875 -10 4.421875 -9.78125 C 4.421875 -9.601562 4.4375 -9.429688 4.46875 -9.265625 C 4.507812 -9.097656 4.570312 -8.929688 4.65625 -8.765625 C 4.738281 -8.597656 4.847656 -8.425781 4.984375 -8.25 C 5.117188 -8.070312 5.285156 -7.882812 5.484375 -7.6875 L 8.90625 -4.125 C 9.101562 -4.5 9.257812 -4.894531 9.375 -5.3125 C 9.5 -5.726562 9.578125 -6.148438 9.609375 -6.578125 C 9.628906 -6.710938 9.675781 -6.820312 9.75 -6.90625 C 9.832031 -6.988281 9.941406 -7.03125 10.078125 -7.03125 L 11.453125 -7.03125 C 11.453125 -6.25 11.335938 -5.5 11.109375 -4.78125 C 10.890625 -4.0625 10.578125 -3.40625 10.171875 -2.8125 Z M 12.875 0 "/></g></g></g><g fill="#b7bfc7" fill-opacity="1"><g transform="translate(180.540149, 162.157521)"><g/></g></g><g fill="#b7bfc7" fill-opacity="1"><g transform="translate(185.633919, 162.157521)"><g><path d="M 6.28125 -1.875 C 6.71875 -1.875 7.085938 -1.925781 7.390625 -2.03125 C 7.703125 -2.144531 7.945312 -2.289062 8.125 -2.46875 C 8.3125 -2.644531 8.441406 -2.851562 8.515625 -3.09375 C 8.597656 -3.332031 8.640625 -3.585938 8.640625 -3.859375 C 8.640625 -4.128906 8.59375 -4.375 8.5 -4.59375 C 8.414062 -4.820312 8.273438 -5.015625 8.078125 -5.171875 C 7.890625 -5.335938 7.644531 -5.460938 7.34375 -5.546875 C 7.050781 -5.628906 6.691406 -5.671875 6.265625 -5.671875 L 3.84375 -5.671875 L 3.84375 -1.875 Z M 3.84375 -11.0625 L 3.84375 -7.328125 L 5.75 -7.328125 C 6.570312 -7.328125 7.191406 -7.472656 7.609375 -7.765625 C 8.035156 -8.066406 8.25 -8.546875 8.25 -9.203125 C 8.25 -9.867188 8.054688 -10.34375 7.671875 -10.625 C 7.296875 -10.914062 6.703125 -11.0625 5.890625 -11.0625 Z M 5.890625 -12.921875 C 6.734375 -12.921875 7.457031 -12.835938 8.0625 -12.671875 C 8.664062 -12.515625 9.160156 -12.285156 9.546875 -11.984375 C 9.929688 -11.691406 10.210938 -11.332031 10.390625 -10.90625 C 10.566406 -10.488281 10.65625 -10.015625 10.65625 -9.484375 C 10.65625 -9.179688 10.609375 -8.890625 10.515625 -8.609375 C 10.429688 -8.335938 10.296875 -8.078125 10.109375 -7.828125 C 9.921875 -7.585938 9.679688 -7.367188 9.390625 -7.171875 C 9.097656 -6.972656 8.753906 -6.804688 8.359375 -6.671875 C 10.128906 -6.273438 11.015625 -5.316406 11.015625 -3.796875 C 11.015625 -3.242188 10.910156 -2.734375 10.703125 -2.265625 C 10.492188 -1.804688 10.191406 -1.410156 9.796875 -1.078125 C 9.398438 -0.742188 8.90625 -0.476562 8.3125 -0.28125 C 7.726562 -0.09375 7.0625 0 6.3125 0 L 1.4375 0 L 1.4375 -12.921875 Z M 5.890625 -12.921875 "/></g></g></g><g fill="#b7bfc7" fill-opacity="1"><g transform="translate(198.153266, 162.157521)"><g><path d="M 13.765625 -6.46875 C 13.765625 -5.519531 13.609375 -4.640625 13.296875 -3.828125 C 12.984375 -3.023438 12.539062 -2.328125 11.96875 -1.734375 C 11.394531 -1.140625 10.707031 -0.675781 9.90625 -0.34375 C 9.101562 -0.0195312 8.207031 0.140625 7.21875 0.140625 C 6.238281 0.140625 5.347656 -0.0195312 4.546875 -0.34375 C 3.742188 -0.675781 3.054688 -1.140625 2.484375 -1.734375 C 1.910156 -2.328125 1.460938 -3.023438 1.140625 -3.828125 C 0.828125 -4.640625 0.671875 -5.519531 0.671875 -6.46875 C 0.671875 -7.414062 0.828125 -8.289062 1.140625 -9.09375 C 1.460938 -9.90625 1.910156 -10.601562 2.484375 -11.1875 C 3.054688 -11.78125 3.742188 -12.238281 4.546875 -12.5625 C 5.347656 -12.894531 6.238281 -13.0625 7.21875 -13.0625 C 7.875 -13.0625 8.488281 -12.984375 9.0625 -12.828125 C 9.644531 -12.679688 10.175781 -12.46875 10.65625 -12.1875 C 11.144531 -11.914062 11.582031 -11.582031 11.96875 -11.1875 C 12.351562 -10.789062 12.675781 -10.347656 12.9375 -9.859375 C 13.207031 -9.367188 13.410156 -8.835938 13.546875 -8.265625 C 13.691406 -7.691406 13.765625 -7.09375 13.765625 -6.46875 Z M 11.3125 -6.46875 C 11.3125 -7.175781 11.210938 -7.8125 11.015625 -8.375 C 10.828125 -8.9375 10.554688 -9.410156 10.203125 -9.796875 C 9.847656 -10.191406 9.421875 -10.492188 8.921875 -10.703125 C 8.421875 -10.910156 7.851562 -11.015625 7.21875 -11.015625 C 6.59375 -11.015625 6.023438 -10.910156 5.515625 -10.703125 C 5.015625 -10.492188 4.585938 -10.191406 4.234375 -9.796875 C 3.878906 -9.410156 3.601562 -8.9375 3.40625 -8.375 C 3.21875 -7.8125 3.125 -7.175781 3.125 -6.46875 C 3.125 -5.75 3.21875 -5.109375 3.40625 -4.546875 C 3.601562 -3.984375 3.878906 -3.503906 4.234375 -3.109375 C 4.585938 -2.722656 5.015625 -2.425781 5.515625 -2.21875 C 6.023438 -2.007812 6.59375 -1.90625 7.21875 -1.90625 C 7.851562 -1.90625 8.421875 -2.007812 8.921875 -2.21875 C 9.421875 -2.425781 9.847656 -2.722656 10.203125 -3.109375 C 10.554688 -3.503906 10.828125 -3.984375 11.015625 -4.546875 C 11.210938 -5.109375 11.3125 -5.75 11.3125 -6.46875 Z M 11.3125 -6.46875 "/></g></g></g><g fill="#b7bfc7" fill-opacity="1"><g transform="translate(213.34438, 162.157521)"><g><path d="M 12.921875 -6.46875 C 12.921875 -5.519531 12.757812 -4.644531 12.4375 -3.84375 C 12.125 -3.050781 11.679688 -2.367188 11.109375 -1.796875 C 10.535156 -1.234375 9.847656 -0.789062 9.046875 -0.46875 C 8.242188 -0.15625 7.347656 0 6.359375 0 L 1.4375 0 L 1.4375 -12.921875 L 6.359375 -12.921875 C 7.347656 -12.921875 8.242188 -12.757812 9.046875 -12.4375 C 9.847656 -12.125 10.535156 -11.679688 11.109375 -11.109375 C 11.679688 -10.546875 12.125 -9.867188 12.4375 -9.078125 C 12.757812 -8.285156 12.921875 -7.414062 12.921875 -6.46875 Z M 10.453125 -6.46875 C 10.453125 -7.175781 10.359375 -7.8125 10.171875 -8.375 C 9.984375 -8.9375 9.710938 -9.410156 9.359375 -9.796875 C 9.003906 -10.191406 8.570312 -10.492188 8.0625 -10.703125 C 7.5625 -10.910156 6.992188 -11.015625 6.359375 -11.015625 L 3.859375 -11.015625 L 3.859375 -1.90625 L 6.359375 -1.90625 C 6.992188 -1.90625 7.5625 -2.007812 8.0625 -2.21875 C 8.570312 -2.425781 9.003906 -2.722656 9.359375 -3.109375 C 9.710938 -3.503906 9.984375 -3.984375 10.171875 -4.546875 C 10.359375 -5.109375 10.453125 -5.75 10.453125 -6.46875 Z M 10.453125 -6.46875 "/></g></g></g><g fill="#b7bfc7" fill-opacity="1"><g transform="translate(227.6866, 162.157521)"><g><path d="M 6.984375 -5 L 6.984375 0 L 4.59375 0 L 4.59375 -5 L -0.109375 -12.921875 L 2 -12.921875 C 2.207031 -12.921875 2.375 -12.867188 2.5 -12.765625 C 2.625 -12.671875 2.726562 -12.546875 2.8125 -12.390625 L 5.171875 -8.078125 C 5.304688 -7.816406 5.425781 -7.570312 5.53125 -7.34375 C 5.632812 -7.113281 5.726562 -6.890625 5.8125 -6.671875 C 5.882812 -6.890625 5.972656 -7.113281 6.078125 -7.34375 C 6.179688 -7.570312 6.296875 -7.816406 6.421875 -8.078125 L 8.78125 -12.390625 C 8.84375 -12.515625 8.9375 -12.632812 9.0625 -12.75 C 9.195312 -12.863281 9.367188 -12.921875 9.578125 -12.921875 L 11.703125 -12.921875 Z M 6.984375 -5 "/></g></g></g><g fill="#b7bfc7" fill-opacity="1"><g transform="translate(240.018288, 162.157521)"><g/></g></g><g fill="#b7bfc7" fill-opacity="1"><g transform="translate(245.112058, 162.157521)"><g><path d="M 10.46875 -10.953125 L 6.5625 -10.953125 L 6.5625 0 L 4.171875 0 L 4.171875 -10.953125 L 0.265625 -10.953125 L 0.265625 -12.921875 L 10.46875 -12.921875 Z M 10.46875 -10.953125 "/></g></g></g><g fill="#b7bfc7" fill-opacity="1"><g transform="translate(256.585924, 162.157521)"><g><path d="M 5.34375 -6.78125 C 5.800781 -6.78125 6.195312 -6.832031 6.53125 -6.9375 C 6.863281 -7.050781 7.140625 -7.207031 7.359375 -7.40625 C 7.578125 -7.613281 7.738281 -7.851562 7.84375 -8.125 C 7.957031 -8.394531 8.015625 -8.695312 8.015625 -9.03125 C 8.015625 -9.6875 7.796875 -10.1875 7.359375 -10.53125 C 6.929688 -10.882812 6.269531 -11.0625 5.375 -11.0625 L 3.84375 -11.0625 L 3.84375 -6.78125 Z M 11.53125 0 L 9.359375 0 C 8.941406 0 8.644531 -0.160156 8.46875 -0.484375 L 5.75 -4.625 C 5.644531 -4.78125 5.53125 -4.890625 5.40625 -4.953125 C 5.289062 -5.015625 5.113281 -5.046875 4.875 -5.046875 L 3.84375 -5.046875 L 3.84375 0 L 1.4375 0 L 1.4375 -12.921875 L 5.375 -12.921875 C 6.25 -12.921875 7 -12.828125 7.625 -12.640625 C 8.257812 -12.460938 8.773438 -12.207031 9.171875 -11.875 C 9.578125 -11.550781 9.875 -11.160156 10.0625 -10.703125 C 10.257812 -10.253906 10.359375 -9.753906 10.359375 -9.203125 C 10.359375 -8.765625 10.289062 -8.351562 10.15625 -7.96875 C 10.03125 -7.582031 9.847656 -7.226562 9.609375 -6.90625 C 9.367188 -6.59375 9.070312 -6.316406 8.71875 -6.078125 C 8.363281 -5.847656 7.957031 -5.660156 7.5 -5.515625 C 7.65625 -5.429688 7.800781 -5.328125 7.9375 -5.203125 C 8.070312 -5.078125 8.191406 -4.929688 8.296875 -4.765625 Z M 11.53125 0 "/></g></g></g><g fill="#b7bfc7" fill-opacity="1"><g transform="translate(268.828255, 162.157521)"><g><path d="M 3.859375 -11.015625 L 3.859375 -7.421875 L 8.375 -7.421875 L 8.375 -5.578125 L 3.859375 -5.578125 L 3.859375 -1.921875 L 9.59375 -1.921875 L 9.59375 0 L 1.4375 0 L 1.4375 -12.921875 L 9.59375 -12.921875 L 9.59375 -11.015625 Z M 3.859375 -11.015625 "/></g></g></g><g fill="#b7bfc7" fill-opacity="1"><g transform="translate(279.855338, 162.157521)"><g><path d="M 8.265625 -4.875 L 6.6875 -9.171875 C 6.613281 -9.367188 6.535156 -9.597656 6.453125 -9.859375 C 6.367188 -10.117188 6.285156 -10.398438 6.203125 -10.703125 C 6.128906 -10.398438 6.050781 -10.113281 5.96875 -9.84375 C 5.882812 -9.582031 5.800781 -9.351562 5.71875 -9.15625 L 4.15625 -4.875 Z M 12.515625 0 L 10.65625 0 C 10.445312 0 10.273438 -0.0507812 10.140625 -0.15625 C 10.015625 -0.257812 9.914062 -0.390625 9.84375 -0.546875 L 8.890625 -3.1875 L 3.53125 -3.1875 L 2.5625 -0.546875 C 2.519531 -0.410156 2.425781 -0.285156 2.28125 -0.171875 C 2.144531 -0.0546875 1.976562 0 1.78125 0 L -0.09375 0 L 4.984375 -12.921875 L 7.4375 -12.921875 Z M 12.515625 0 "/></g></g></g><g fill="#b7bfc7" fill-opacity="1"><g transform="translate(293.018048, 162.157521)"><g><path d="M 10.46875 -10.953125 L 6.5625 -10.953125 L 6.5625 0 L 4.171875 0 L 4.171875 -10.953125 L 0.265625 -10.953125 L 0.265625 -12.921875 L 10.46875 -12.921875 Z M 10.46875 -10.953125 "/></g></g></g><g fill="#b7bfc7" fill-opacity="1"><g transform="translate(304.491914, 162.157521)"><g><path d="M 15.453125 -12.921875 L 15.453125 0 L 13.328125 0 L 13.328125 -8.34375 C 13.328125 -8.675781 13.347656 -9.035156 13.390625 -9.421875 L 9.484375 -2.09375 C 9.296875 -1.738281 9.015625 -1.5625 8.640625 -1.5625 L 8.296875 -1.5625 C 7.910156 -1.5625 7.625 -1.738281 7.4375 -2.09375 L 3.5 -9.453125 C 3.507812 -9.253906 3.519531 -9.0625 3.53125 -8.875 C 3.550781 -8.6875 3.5625 -8.507812 3.5625 -8.34375 L 3.5625 0 L 1.4375 0 L 1.4375 -12.921875 L 3.25 -12.921875 C 3.363281 -12.921875 3.457031 -12.914062 3.53125 -12.90625 C 3.601562 -12.90625 3.671875 -12.890625 3.734375 -12.859375 C 3.796875 -12.835938 3.851562 -12.800781 3.90625 -12.75 C 3.957031 -12.695312 4.007812 -12.628906 4.0625 -12.546875 L 7.921875 -5.359375 C 8.023438 -5.171875 8.117188 -4.972656 8.203125 -4.765625 C 8.296875 -4.566406 8.382812 -4.359375 8.46875 -4.140625 C 8.550781 -4.367188 8.632812 -4.582031 8.71875 -4.78125 C 8.8125 -4.988281 8.910156 -5.1875 9.015625 -5.375 L 12.828125 -12.546875 C 12.867188 -12.628906 12.914062 -12.695312 12.96875 -12.75 C 13.03125 -12.800781 13.09375 -12.835938 13.15625 -12.859375 C 13.21875 -12.890625 13.285156 -12.90625 13.359375 -12.90625 C 13.441406 -12.914062 13.535156 -12.921875 13.640625 -12.921875 Z M 15.453125 -12.921875 "/></g></g></g><g fill="#b7bfc7" fill-opacity="1"><g transform="translate(322.131404, 162.157521)"><g><path d="M 3.859375 -11.015625 L 3.859375 -7.421875 L 8.375 -7.421875 L 8.375 -5.578125 L 3.859375 -5.578125 L 3.859375 -1.921875 L 9.59375 -1.921875 L 9.59375 0 L 1.4375 0 L 1.4375 -12.921875 L 9.59375 -12.921875 L 9.59375 -11.015625 Z M 3.859375 -11.015625 "/></g></g></g><g fill="#b7bfc7" fill-opacity="1"><g transform="translate(333.158474, 162.157521)"><g><path d="M 12.328125 -12.921875 L 12.328125 0 L 11.09375 0 C 10.90625 0 10.75 -0.03125 10.625 -0.09375 C 10.5 -0.15625 10.375 -0.257812 10.25 -0.40625 L 3.5 -9.03125 C 3.539062 -8.632812 3.5625 -8.269531 3.5625 -7.9375 L 3.5625 0 L 1.4375 0 L 1.4375 -12.921875 L 2.703125 -12.921875 C 2.796875 -12.921875 2.878906 -12.914062 2.953125 -12.90625 C 3.035156 -12.894531 3.101562 -12.875 3.15625 -12.84375 C 3.21875 -12.820312 3.273438 -12.785156 3.328125 -12.734375 C 3.378906 -12.691406 3.4375 -12.628906 3.5 -12.546875 L 10.28125 -3.890625 C 10.257812 -4.097656 10.242188 -4.300781 10.234375 -4.5 C 10.222656 -4.707031 10.21875 -4.894531 10.21875 -5.0625 L 10.21875 -12.921875 Z M 12.328125 -12.921875 "/></g></g></g><g fill="#b7bfc7" fill-opacity="1"><g transform="translate(347.679414, 162.157521)"><g><path d="M 10.46875 -10.953125 L 6.5625 -10.953125 L 6.5625 0 L 4.171875 0 L 4.171875 -10.953125 L 0.265625 -10.953125 L 0.265625 -12.921875 L 10.46875 -12.921875 Z M 10.46875 -10.953125 "/></g></g></g></svg>