<svg xmlns="http://www.w3.org/2000/svg" xmlns:xlink="http://www.w3.org/1999/xlink" width="588" zoomAndPan="magnify" viewBox="0 0 440.88 137.999998" height="184" preserveAspectRatio="xMidYMid meet" version="1.0"><defs><g/></defs><g fill="#b7bfc7" fill-opacity="1"><g transform="translate(35.760019, 79.804661)"><g><path d="M 1.28125 0 L 1.28125 -0.578125 L 3.375 -0.578125 C 4.269531 -0.578125 4.878906 -0.867188 5.203125 -1.453125 C 5.535156 -2.035156 5.703125 -3.046875 5.703125 -4.484375 L 5.703125 -37.234375 C 5.703125 -38.828125 5.476562 -39.851562 5.03125 -40.3125 C 4.59375 -40.78125 4.023438 -41.015625 3.328125 -41.015625 L 1.28125 -41.015625 L 1.28125 -41.609375 L 15.96875 -41.609375 C 20.46875 -41.609375 23.898438 -40.8125 26.265625 -39.21875 C 28.640625 -37.625 29.828125 -35.054688 29.828125 -31.515625 C 29.828125 -28.765625 28.992188 -26.582031 27.328125 -24.96875 C 25.660156 -23.351562 23.097656 -22.375 19.640625 -22.03125 L 19.640625 -21.90625 C 23.671875 -21.59375 26.597656 -20.570312 28.421875 -18.84375 C 30.253906 -17.113281 31.171875 -14.617188 31.171875 -11.359375 C 31.171875 -3.785156 26.566406 0 17.359375 0 Z M 13.40625 -22.140625 L 15.5625 -22.140625 C 17.851562 -22.140625 19.460938 -22.90625 20.390625 -24.4375 C 21.328125 -25.976562 21.796875 -28.414062 21.796875 -31.75 C 21.796875 -35.019531 21.328125 -37.378906 20.390625 -38.828125 C 19.460938 -40.285156 17.867188 -41.015625 15.609375 -41.015625 L 13.40625 -41.015625 Z M 13.40625 -0.578125 L 16.71875 -0.578125 C 19.007812 -0.578125 20.628906 -1.375 21.578125 -2.96875 C 22.535156 -4.5625 23.015625 -7.203125 23.015625 -10.890625 C 23.015625 -14.617188 22.554688 -17.328125 21.640625 -19.015625 C 20.734375 -20.710938 19.132812 -21.5625 16.84375 -21.5625 L 13.40625 -21.5625 Z M 13.40625 -0.578125 "/></g></g></g><g fill="#b7bfc7" fill-opacity="1"><g transform="translate(82.717086, 79.804661)"><g><path d="M 1.28125 0 L 1.28125 -0.578125 L 2.6875 -0.578125 C 3.6875 -0.578125 4.4375 -0.8125 4.9375 -1.28125 C 5.445312 -1.75 5.703125 -2.894531 5.703125 -4.71875 L 5.703125 -36.875 C 5.703125 -38.707031 5.445312 -39.851562 4.9375 -40.3125 C 4.4375 -40.78125 3.6875 -41.015625 2.6875 -41.015625 L 1.28125 -41.015625 L 1.28125 -41.609375 L 18 -41.609375 L 18 -41.015625 L 16.546875 -41.015625 C 15.535156 -41.015625 14.765625 -40.78125 14.234375 -40.3125 C 13.710938 -39.851562 13.453125 -38.769531 13.453125 -37.0625 L 13.453125 -0.578125 L 20.15625 -0.578125 C 23.1875 -0.578125 25.363281 -1.175781 26.6875 -2.375 C 28.007812 -3.582031 28.75 -5.664062 28.90625 -8.625 L 29.140625 -12.765625 L 29.71875 -12.765625 L 29.3125 0 Z M 1.28125 0 "/></g></g></g><g fill="#b7bfc7" fill-opacity="1"><g transform="translate(127.693484, 79.804661)"><g><path d="M 18.234375 0.578125 C 15.671875 0.578125 13.414062 0.132812 11.46875 -0.75 C 9.53125 -1.644531 8.007812 -3.0625 6.90625 -5 C 5.800781 -6.945312 5.25 -9.492188 5.25 -12.640625 L 5.25 -37.234375 C 5.25 -38.898438 4.972656 -39.945312 4.421875 -40.375 C 3.878906 -40.800781 3.101562 -41.015625 2.09375 -41.015625 L 0.75 -41.015625 L 0.75 -41.609375 L 17.484375 -41.609375 L 17.484375 -41.015625 L 16.078125 -41.015625 C 15.066406 -41.015625 14.300781 -40.789062 13.78125 -40.34375 C 13.257812 -39.894531 13 -38.78125 13 -37 L 13 -9.84375 C 13 -6.3125 13.617188 -3.863281 14.859375 -2.5 C 16.097656 -1.144531 17.828125 -0.46875 20.046875 -0.46875 C 23.148438 -0.46875 25.398438 -1.4375 26.796875 -3.375 C 28.203125 -5.320312 28.90625 -8.21875 28.90625 -12.0625 L 28.90625 -37.171875 C 28.90625 -38.878906 28.640625 -39.945312 28.109375 -40.375 C 27.585938 -40.800781 26.820312 -41.015625 25.8125 -41.015625 L 22.84375 -41.015625 L 22.84375 -41.609375 L 34.90625 -41.609375 L 34.90625 -41.015625 L 32.15625 -41.015625 C 31.34375 -41.015625 30.691406 -40.789062 30.203125 -40.34375 C 29.722656 -39.894531 29.484375 -38.78125 29.484375 -37 L 29.484375 -12.296875 C 29.484375 -7.828125 28.609375 -4.5625 26.859375 -2.5 C 25.109375 -0.445312 22.234375 0.578125 18.234375 0.578125 Z M 18.234375 0.578125 "/></g></g></g><g fill="#b7bfc7" fill-opacity="1"><g transform="translate(177.155528, 79.804661)"><g><path d="M 0.234375 0 L 0.234375 -0.578125 L 2.046875 -0.578125 C 3.128906 -0.578125 3.929688 -0.878906 4.453125 -1.484375 C 4.984375 -2.085938 5.476562 -3.242188 5.9375 -4.953125 L 15.671875 -41.609375 L 21.671875 -41.609375 L 32.390625 -3.78125 C 32.742188 -2.582031 33.144531 -1.75 33.59375 -1.28125 C 34.039062 -0.8125 34.691406 -0.578125 35.546875 -0.578125 L 36.015625 -0.578125 L 36.015625 0 L 20.21875 0 L 20.21875 -0.578125 L 22.4375 -0.578125 C 23.320312 -0.578125 23.921875 -0.742188 24.234375 -1.078125 C 24.546875 -1.410156 24.703125 -1.882812 24.703125 -2.5 C 24.703125 -2.894531 24.632812 -3.375 24.5 -3.9375 C 24.363281 -4.5 24.21875 -5.050781 24.0625 -5.59375 L 21.671875 -15.203125 L 9.265625 -15.203125 L 6.984375 -6.53125 C 6.753906 -5.675781 6.5625 -4.878906 6.40625 -4.140625 C 6.25 -3.398438 6.171875 -2.816406 6.171875 -2.390625 C 6.171875 -1.722656 6.335938 -1.253906 6.671875 -0.984375 C 7.003906 -0.710938 7.578125 -0.578125 8.390625 -0.578125 L 11.421875 -0.578125 L 11.421875 0 Z M 9.4375 -15.796875 L 21.5 -15.796875 L 17.421875 -32.046875 C 17.066406 -33.484375 16.742188 -34.773438 16.453125 -35.921875 C 16.160156 -37.066406 15.878906 -38.300781 15.609375 -39.625 C 15.378906 -38.414062 15.140625 -37.304688 14.890625 -36.296875 C 14.640625 -35.285156 14.359375 -34.195312 14.046875 -33.03125 Z M 9.4375 -15.796875 "/></g></g></g><g fill="#b7bfc7" fill-opacity="1"><g transform="translate(226.967104, 79.804661)"><g><path d="M 1.28125 0 L 1.28125 -0.578125 L 3.609375 -0.578125 C 4.773438 -0.578125 5.5625 -0.847656 5.96875 -1.390625 C 6.375 -1.941406 6.578125 -3.015625 6.578125 -4.609375 L 6.578125 -37.171875 C 6.578125 -38.722656 6.398438 -39.75 6.046875 -40.25 C 5.703125 -40.757812 5.007812 -41.015625 3.96875 -41.015625 L 1.28125 -41.015625 L 1.28125 -41.609375 L 13.515625 -41.609375 L 30.46875 -8.046875 L 30.46875 -37.171875 C 30.46875 -38.722656 30.289062 -39.75 29.9375 -40.25 C 29.59375 -40.757812 28.914062 -41.015625 27.90625 -41.015625 L 24.640625 -41.015625 L 24.640625 -41.609375 L 36.828125 -41.609375 L 36.828125 -41.015625 L 33.671875 -41.015625 C 32.628906 -41.015625 31.929688 -40.742188 31.578125 -40.203125 C 31.234375 -39.660156 31.0625 -38.59375 31.0625 -37 L 31.0625 0 L 26.796875 0 L 7.171875 -38.859375 L 7.171875 -4.609375 C 7.171875 -3.015625 7.34375 -1.941406 7.6875 -1.390625 C 8.039062 -0.847656 8.722656 -0.578125 9.734375 -0.578125 L 13.046875 -0.578125 L 13.046875 0 Z M 1.28125 0 "/></g></g></g><g fill="#b7bfc7" fill-opacity="1"><g transform="translate(278.2933, 79.804661)"><g><path d="M 20.28125 0.578125 C 16.3125 0.578125 13.015625 -0.289062 10.390625 -2.03125 C 7.773438 -3.78125 5.828125 -6.265625 4.546875 -9.484375 C 3.265625 -12.710938 2.625 -16.503906 2.625 -20.859375 C 2.625 -25.210938 3.300781 -28.988281 4.65625 -32.1875 C 6.019531 -35.394531 8.019531 -37.863281 10.65625 -39.59375 C 13.300781 -41.320312 16.546875 -42.1875 20.390625 -42.1875 C 24.472656 -42.1875 27.503906 -41.503906 29.484375 -40.140625 C 31.460938 -38.785156 32.453125 -37.195312 32.453125 -35.375 C 32.453125 -34.125 31.957031 -33.0625 30.96875 -32.1875 C 29.976562 -31.3125 28.453125 -30.875 26.390625 -30.875 C 26.390625 -34.726562 25.953125 -37.476562 25.078125 -39.125 C 24.203125 -40.78125 22.617188 -41.609375 20.328125 -41.609375 C 18.035156 -41.609375 16.191406 -40.914062 14.796875 -39.53125 C 13.398438 -38.15625 12.367188 -35.941406 11.703125 -32.890625 C 11.046875 -29.835938 10.71875 -25.828125 10.71875 -20.859375 C 10.71875 -15.734375 11.023438 -11.644531 11.640625 -8.59375 C 12.265625 -5.539062 13.316406 -3.34375 14.796875 -2 C 16.273438 -0.664062 18.273438 0 20.796875 0 C 21.378906 0 21.984375 -0.046875 22.609375 -0.140625 C 23.234375 -0.242188 23.796875 -0.410156 24.296875 -0.640625 L 24.296875 -14.625 C 24.296875 -16.257812 24.082031 -17.375 23.65625 -17.96875 C 23.226562 -18.570312 22.375 -18.875 21.09375 -18.875 L 20.28125 -18.875 L 20.28125 -19.453125 L 35.078125 -19.453125 L 35.078125 -18.875 L 34.671875 -18.875 C 33.546875 -18.875 32.828125 -18.5625 32.515625 -17.9375 C 32.203125 -17.320312 32.046875 -16.160156 32.046875 -14.453125 L 32.046875 -2.390625 C 30.179688 -1.421875 28.296875 -0.679688 26.390625 -0.171875 C 24.492188 0.328125 22.457031 0.578125 20.28125 0.578125 Z M 20.28125 0.578125 "/></g></g></g><g fill="#b7bfc7" fill-opacity="1"><g transform="translate(328.920434, 79.804661)"><g><path d="M 1.28125 0 L 1.28125 -0.578125 L 2.625 -0.578125 C 3.59375 -0.578125 4.347656 -0.800781 4.890625 -1.25 C 5.429688 -1.695312 5.703125 -2.773438 5.703125 -4.484375 L 5.703125 -36.875 C 5.703125 -38.707031 5.441406 -39.851562 4.921875 -40.3125 C 4.398438 -40.78125 3.632812 -41.015625 2.625 -41.015625 L 1.28125 -41.015625 L 1.28125 -41.609375 L 27.796875 -41.609375 L 28.140625 -31.171875 L 27.5625 -31.171875 L 27.390625 -33.625 C 27.191406 -36.414062 26.5 -38.34375 25.3125 -39.40625 C 24.132812 -40.476562 22.125 -41.015625 19.28125 -41.015625 L 13.40625 -41.015625 L 13.40625 -22.03125 L 25.640625 -22.03125 L 25.640625 -21.4375 L 13.40625 -21.4375 L 13.40625 -0.578125 L 20.921875 -0.578125 C 23.710938 -0.578125 25.691406 -1.101562 26.859375 -2.15625 C 28.023438 -3.207031 28.722656 -5.070312 28.953125 -7.75 L 29.140625 -10.421875 L 29.71875 -10.421875 L 29.359375 0 Z M 1.28125 0 "/></g></g></g><g fill="#b7bfc7" fill-opacity="1"><g transform="translate(373.896832, 79.804661)"><g><path d="M 1.28125 0 L 1.28125 -0.578125 L 2.6875 -0.578125 C 3.6875 -0.578125 4.4375 -0.8125 4.9375 -1.28125 C 5.445312 -1.75 5.703125 -2.894531 5.703125 -4.71875 L 5.703125 -36.875 C 5.703125 -38.707031 5.445312 -39.851562 4.9375 -40.3125 C 4.4375 -40.78125 3.6875 -41.015625 2.6875 -41.015625 L 1.28125 -41.015625 L 1.28125 -41.609375 L 18 -41.609375 L 18 -41.015625 L 16.546875 -41.015625 C 15.535156 -41.015625 14.765625 -40.78125 14.234375 -40.3125 C 13.710938 -39.851562 13.453125 -38.769531 13.453125 -37.0625 L 13.453125 -0.578125 L 20.15625 -0.578125 C 23.1875 -0.578125 25.363281 -1.175781 26.6875 -2.375 C 28.007812 -3.582031 28.75 -5.664062 28.90625 -8.625 L 29.140625 -12.765625 L 29.71875 -12.765625 L 29.3125 0 Z M 1.28125 0 "/></g></g></g><g fill="#b7bfc7" fill-opacity="1"><g transform="translate(104.287808, 114.71208)"><g><path d="M 2.140625 -1.15625 C 3.035156 -1.320312 3.625 -1.5625 3.90625 -1.875 C 4.195312 -2.195312 4.34375 -2.796875 4.34375 -3.671875 L 4.375 -16.515625 C 4.375 -17.160156 4.296875 -17.59375 4.140625 -17.8125 C 3.984375 -18.039062 3.679688 -18.15625 3.234375 -18.15625 C 3.035156 -18.15625 2.832031 -18.144531 2.625 -18.125 C 2.425781 -18.113281 2.285156 -18.109375 2.203125 -18.109375 L 2.140625 -18.21875 L 2.359375 -19.5625 C 2.597656 -19.550781 3.050781 -19.535156 3.71875 -19.515625 C 4.394531 -19.492188 5.070312 -19.484375 5.75 -19.484375 C 6.382812 -19.484375 7.101562 -19.492188 7.90625 -19.515625 C 8.707031 -19.546875 9.269531 -19.570312 9.59375 -19.59375 C 11.71875 -19.59375 13.335938 -19.125 14.453125 -18.1875 C 15.578125 -17.25 16.140625 -15.90625 16.140625 -14.15625 C 16.140625 -13.007812 15.804688 -11.921875 15.140625 -10.890625 C 14.484375 -9.867188 13.613281 -9.039062 12.53125 -8.40625 C 11.457031 -7.78125 10.328125 -7.46875 9.140625 -7.46875 L 6.578125 -7.46875 L 6.515625 -4.46875 C 6.515625 -3.488281 6.546875 -2.789062 6.609375 -2.375 C 6.671875 -1.957031 6.785156 -1.679688 6.953125 -1.546875 C 7.128906 -1.410156 7.429688 -1.34375 7.859375 -1.34375 C 8.203125 -1.34375 8.53125 -1.351562 8.84375 -1.375 C 9.164062 -1.394531 9.390625 -1.414062 9.515625 -1.4375 L 9.578125 -1.3125 L 9.296875 0.09375 C 9.085938 0.0703125 8.710938 0.0507812 8.171875 0.03125 C 7.640625 0.0078125 7.078125 0 6.484375 0 C 5.671875 0 4.71875 0.03125 3.625 0.09375 C 2.53125 0.15625 1.960938 0.207031 1.921875 0.25 Z M 9.875 -8.8125 C 11.101562 -9.007812 12.023438 -9.503906 12.640625 -10.296875 C 13.265625 -11.097656 13.578125 -12.191406 13.578125 -13.578125 C 13.578125 -15.148438 13.113281 -16.296875 12.1875 -17.015625 C 11.257812 -17.742188 9.804688 -18.109375 7.828125 -18.109375 C 7.460938 -18.109375 7.238281 -18.085938 7.15625 -18.046875 C 7.070312 -18.003906 7.019531 -17.878906 7 -17.671875 C 6.820312 -15.085938 6.703125 -12.285156 6.640625 -9.265625 Z M 9.875 -8.8125 "/></g></g></g><g fill="#b7bfc7" fill-opacity="1"><g transform="translate(121.127439, 114.71208)"><g><path d="M 1.796875 -1.09375 C 2.410156 -1.15625 2.816406 -1.351562 3.015625 -1.6875 C 3.222656 -2.03125 3.328125 -2.679688 3.328125 -3.640625 L 3.328125 -10.359375 C 3.328125 -11.035156 3.234375 -11.515625 3.046875 -11.796875 C 2.867188 -12.085938 2.578125 -12.234375 2.171875 -12.234375 C 2.003906 -12.234375 1.863281 -12.222656 1.75 -12.203125 C 1.644531 -12.179688 1.570312 -12.160156 1.53125 -12.140625 L 1.375 -12.359375 L 1.46875 -13.296875 C 2.238281 -13.441406 3.054688 -13.613281 3.921875 -13.8125 C 4.796875 -14.019531 5.351562 -14.15625 5.59375 -14.21875 L 5.8125 -14.03125 C 5.769531 -13.851562 5.707031 -13.429688 5.625 -12.765625 C 5.539062 -12.097656 5.507812 -11.472656 5.53125 -10.890625 L 5.65625 -10.796875 C 6.269531 -11.753906 6.988281 -12.535156 7.8125 -13.140625 C 8.632812 -13.753906 9.351562 -14.0625 9.96875 -14.0625 C 10.25 -14.0625 10.46875 -14.046875 10.625 -14.015625 C 10.78125 -13.984375 10.878906 -13.957031 10.921875 -13.9375 L 11.015625 -13.828125 C 10.972656 -13.535156 10.882812 -12.925781 10.75 -12 C 10.613281 -11.070312 10.535156 -10.222656 10.515625 -9.453125 L 9.328125 -9.359375 C 9.328125 -10.191406 9.269531 -10.742188 9.15625 -11.015625 C 9.039062 -11.296875 8.820312 -11.4375 8.5 -11.4375 C 8.050781 -11.4375 7.570312 -11.25 7.0625 -10.875 C 6.550781 -10.5 6.082031 -9.992188 5.65625 -9.359375 C 5.632812 -8.765625 5.59375 -7.785156 5.53125 -6.421875 C 5.46875 -5.054688 5.425781 -3.957031 5.40625 -3.125 C 5.40625 -2.425781 5.507812 -1.953125 5.71875 -1.703125 C 5.925781 -1.460938 6.3125 -1.34375 6.875 -1.34375 C 7.144531 -1.34375 7.410156 -1.351562 7.671875 -1.375 C 7.941406 -1.394531 8.125 -1.40625 8.21875 -1.40625 L 8.25 -1.28125 L 7.984375 0.0625 C 7.773438 0.0625 7.363281 0.0507812 6.75 0.03125 C 6.144531 0.0078125 5.515625 0 4.859375 0 C 4.109375 0 3.425781 0.015625 2.8125 0.046875 C 2.195312 0.078125 1.8125 0.101562 1.65625 0.125 Z M 1.796875 -1.09375 "/></g></g></g><g fill="#b7bfc7" fill-opacity="1"><g transform="translate(132.832659, 114.71208)"><g><path d="M 7.515625 0.359375 C 6.253906 0.359375 5.132812 0.0820312 4.15625 -0.46875 C 3.175781 -1.03125 2.421875 -1.828125 1.890625 -2.859375 C 1.359375 -3.890625 1.09375 -5.066406 1.09375 -6.390625 C 1.09375 -7.753906 1.40625 -9.035156 2.03125 -10.234375 C 2.65625 -11.441406 3.484375 -12.398438 4.515625 -13.109375 C 5.554688 -13.828125 6.671875 -14.1875 7.859375 -14.1875 C 9.347656 -14.1875 10.476562 -13.804688 11.25 -13.046875 C 12.03125 -12.296875 12.421875 -11.195312 12.421875 -9.75 C 12.421875 -9.164062 12.359375 -8.664062 12.234375 -8.25 L 11.828125 -7.890625 L 3.390625 -7.890625 C 3.367188 -5.910156 3.757812 -4.382812 4.5625 -3.3125 C 5.375 -2.25 6.503906 -1.71875 7.953125 -1.71875 C 9.085938 -1.71875 10.332031 -2.03125 11.6875 -2.65625 L 11.859375 -2.59375 L 12.203125 -1.71875 C 11.460938 -1.1875 10.648438 -0.707031 9.765625 -0.28125 C 8.878906 0.144531 8.128906 0.359375 7.515625 0.359375 Z M 9.046875 -9.296875 C 9.359375 -9.335938 9.5625 -9.40625 9.65625 -9.5 C 9.757812 -9.601562 9.8125 -9.8125 9.8125 -10.125 C 9.8125 -10.9375 9.59375 -11.554688 9.15625 -11.984375 C 8.71875 -12.410156 8.09375 -12.625 7.28125 -12.625 C 6.320312 -12.625 5.5 -12.296875 4.8125 -11.640625 C 4.132812 -10.992188 3.703125 -10.117188 3.515625 -9.015625 Z M 9.046875 -9.296875 "/></g></g></g><g fill="#b7bfc7" fill-opacity="1"><g transform="translate(146.524403, 114.71208)"><g><path d="M 9.9375 -0.890625 C 10.550781 -1.046875 10.988281 -1.28125 11.25 -1.59375 C 11.519531 -1.914062 11.65625 -2.34375 11.65625 -2.875 L 11.765625 -8.921875 C 11.765625 -9.941406 11.546875 -10.726562 11.109375 -11.28125 C 10.671875 -11.832031 10.046875 -12.109375 9.234375 -12.109375 C 8.578125 -12.109375 7.910156 -11.9375 7.234375 -11.59375 C 6.566406 -11.257812 5.976562 -10.898438 5.46875 -10.515625 C 5.289062 -6.296875 5.203125 -3.789062 5.203125 -3 C 5.203125 -2.363281 5.28125 -1.914062 5.4375 -1.65625 C 5.601562 -1.40625 5.890625 -1.28125 6.296875 -1.28125 C 6.523438 -1.28125 6.738281 -1.289062 6.9375 -1.3125 C 7.144531 -1.332031 7.289062 -1.34375 7.375 -1.34375 L 7.4375 -1.21875 L 7.15625 0.09375 C 6.96875 0.0703125 6.609375 0.0507812 6.078125 0.03125 C 5.554688 0.0078125 4.988281 0 4.375 0 C 3.695312 0 3.070312 0.0078125 2.5 0.03125 C 1.9375 0.0507812 1.550781 0.0625 1.34375 0.0625 L 1.53125 -1.1875 C 2.125 -1.25 2.535156 -1.398438 2.765625 -1.640625 C 3.003906 -1.890625 3.125 -2.300781 3.125 -2.875 L 3.125 -10.328125 C 3.125 -11.023438 3.007812 -11.507812 2.78125 -11.78125 C 2.5625 -12.0625 2.175781 -12.203125 1.625 -12.203125 L 1.28125 -12.203125 L 1.1875 -12.328125 L 1.28125 -13.328125 C 2.15625 -13.472656 3.023438 -13.640625 3.890625 -13.828125 C 4.765625 -14.023438 5.320312 -14.15625 5.5625 -14.21875 L 5.75 -13.96875 C 5.707031 -13.851562 5.644531 -13.59375 5.5625 -13.1875 C 5.476562 -12.789062 5.425781 -12.378906 5.40625 -11.953125 L 5.46875 -11.859375 C 7.75 -13.410156 9.25 -14.1875 9.96875 -14.1875 C 10.945312 -14.1875 11.769531 -13.976562 12.4375 -13.5625 C 13.113281 -13.144531 13.59375 -12.546875 13.875 -11.765625 C 14.613281 -12.296875 15.441406 -12.832031 16.359375 -13.375 C 17.273438 -13.914062 17.988281 -14.1875 18.5 -14.1875 C 19.78125 -14.1875 20.796875 -13.828125 21.546875 -13.109375 C 22.304688 -12.398438 22.6875 -11.445312 22.6875 -10.25 C 22.6875 -10.039062 22.625 -9.101562 22.5 -7.4375 C 22.34375 -5.3125 22.265625 -3.832031 22.265625 -3 C 22.265625 -2.363281 22.34375 -1.914062 22.5 -1.65625 C 22.664062 -1.40625 22.953125 -1.28125 23.359375 -1.28125 C 23.585938 -1.28125 23.800781 -1.289062 24 -1.3125 C 24.207031 -1.332031 24.351562 -1.34375 24.4375 -1.34375 L 24.5 -1.21875 L 24.21875 0.09375 C 24.03125 0.0703125 23.671875 0.0507812 23.140625 0.03125 C 22.617188 0.0078125 22.050781 0 21.4375 0 C 20.90625 0 20.316406 0.0234375 19.671875 0.078125 C 19.035156 0.128906 18.613281 0.164062 18.40625 0.1875 L 18.5625 -1.0625 C 19.15625 -1.164062 19.570312 -1.347656 19.8125 -1.609375 C 20.0625 -1.878906 20.1875 -2.300781 20.1875 -2.875 L 20.296875 -8.921875 C 20.296875 -9.941406 20.078125 -10.726562 19.640625 -11.28125 C 19.203125 -11.832031 18.578125 -12.109375 17.765625 -12.109375 C 16.703125 -12.109375 15.46875 -11.597656 14.0625 -10.578125 L 13.734375 -3 C 13.734375 -2.40625 13.8125 -1.96875 13.96875 -1.6875 C 14.132812 -1.414062 14.410156 -1.28125 14.796875 -1.28125 C 15.023438 -1.28125 15.238281 -1.289062 15.4375 -1.3125 C 15.644531 -1.332031 15.789062 -1.34375 15.875 -1.34375 L 15.9375 -1.21875 L 15.6875 0.09375 C 15.5 0.0703125 15.148438 0.0507812 14.640625 0.03125 C 14.128906 0.0078125 13.570312 0 12.96875 0 C 12.4375 0 11.828125 0.0507812 11.140625 0.15625 C 10.460938 0.257812 10.019531 0.328125 9.8125 0.359375 Z M 9.9375 -0.890625 "/></g></g></g><g fill="#b7bfc7" fill-opacity="1"><g transform="translate(171.951929, 114.71208)"><g><path d="M 1.46875 -0.890625 C 2.082031 -1.046875 2.519531 -1.28125 2.78125 -1.59375 C 3.050781 -1.914062 3.1875 -2.34375 3.1875 -2.875 L 3.1875 -10.640625 C 3.1875 -11.742188 2.804688 -12.296875 2.046875 -12.296875 C 1.898438 -12.296875 1.742188 -12.28125 1.578125 -12.25 C 1.421875 -12.21875 1.320312 -12.191406 1.28125 -12.171875 L 1.40625 -13.296875 C 2.257812 -13.421875 3.140625 -13.582031 4.046875 -13.78125 C 4.953125 -13.988281 5.539062 -14.125 5.8125 -14.1875 L 5.96875 -13.828125 C 5.78125 -13.390625 5.613281 -12.078125 5.46875 -9.890625 C 5.332031 -7.703125 5.265625 -5.40625 5.265625 -3 C 5.265625 -2.40625 5.34375 -1.96875 5.5 -1.6875 C 5.664062 -1.414062 5.941406 -1.28125 6.328125 -1.28125 C 6.554688 -1.28125 6.769531 -1.289062 6.96875 -1.3125 C 7.175781 -1.332031 7.320312 -1.34375 7.40625 -1.34375 L 7.46875 -1.21875 L 7.21875 0.09375 C 7.03125 0.0703125 6.679688 0.0507812 6.171875 0.03125 C 5.660156 0.0078125 5.101562 0 4.5 0 C 3.96875 0 3.359375 0.0507812 2.671875 0.15625 C 1.992188 0.257812 1.550781 0.328125 1.34375 0.359375 Z M 4.046875 -17.796875 C 3.578125 -17.796875 3.207031 -17.945312 2.9375 -18.25 C 2.675781 -18.5625 2.546875 -18.929688 2.546875 -19.359375 C 2.546875 -19.847656 2.71875 -20.269531 3.0625 -20.625 C 3.40625 -20.976562 3.832031 -21.15625 4.34375 -21.15625 C 4.8125 -21.15625 5.175781 -21.003906 5.4375 -20.703125 C 5.707031 -20.398438 5.84375 -20.03125 5.84375 -19.59375 C 5.84375 -19.101562 5.671875 -18.679688 5.328125 -18.328125 C 4.984375 -17.972656 4.554688 -17.796875 4.046875 -17.796875 Z M 4.046875 -17.796875 "/></g></g></g><g fill="#b7bfc7" fill-opacity="1"><g transform="translate(180.570384, 114.71208)"><g><path d="M 2.75 -10.609375 C 2.75 -11.710938 2.375 -12.265625 1.625 -12.265625 C 1.476562 -12.265625 1.320312 -12.25 1.15625 -12.21875 C 1 -12.1875 0.898438 -12.160156 0.859375 -12.140625 L 0.984375 -13.265625 C 1.773438 -13.390625 2.628906 -13.554688 3.546875 -13.765625 C 4.460938 -13.984375 5.0625 -14.125 5.34375 -14.1875 L 5.53125 -13.828125 C 5.332031 -13.296875 5.148438 -12.09375 4.984375 -10.21875 C 4.816406 -8.34375 4.734375 -6.515625 4.734375 -4.734375 C 4.734375 -2.742188 5.550781 -1.75 7.1875 -1.75 C 7.800781 -1.75 8.367188 -1.894531 8.890625 -2.1875 C 9.421875 -2.476562 10.085938 -2.910156 10.890625 -3.484375 L 10.890625 -10.578125 C 10.890625 -11.191406 10.773438 -11.617188 10.546875 -11.859375 C 10.328125 -12.109375 9.929688 -12.234375 9.359375 -12.234375 L 8.625 -12.203125 L 8.75 -13.296875 C 9.644531 -13.421875 10.582031 -13.582031 11.5625 -13.78125 C 12.539062 -13.988281 13.171875 -14.125 13.453125 -14.1875 L 13.640625 -13.828125 C 13.453125 -13.359375 13.289062 -12.082031 13.15625 -10 C 13.03125 -7.914062 12.96875 -5.648438 12.96875 -3.203125 C 12.96875 -2.753906 13.078125 -2.40625 13.296875 -2.15625 C 13.523438 -1.914062 13.832031 -1.796875 14.21875 -1.796875 C 14.5 -1.796875 14.773438 -1.851562 15.046875 -1.96875 C 15.328125 -2.082031 15.554688 -2.195312 15.734375 -2.3125 C 15.910156 -2.4375 16.015625 -2.519531 16.046875 -2.5625 L 16.484375 -2.078125 C 16.398438 -1.953125 16.207031 -1.695312 15.90625 -1.3125 C 15.613281 -0.925781 15.269531 -0.550781 14.875 -0.1875 C 14.476562 0.175781 14.128906 0.359375 13.828125 0.359375 C 12.171875 0.359375 11.257812 -0.460938 11.09375 -2.109375 L 10.953125 -2.171875 C 9.972656 -1.421875 9.085938 -0.8125 8.296875 -0.34375 C 7.515625 0.125 6.984375 0.359375 6.703125 0.359375 C 5.390625 0.359375 4.378906 0.0546875 3.671875 -0.546875 C 2.972656 -1.160156 2.625 -2.039062 2.625 -3.1875 Z M 2.75 -10.609375 "/></g></g></g><g fill="#b7bfc7" fill-opacity="1"><g transform="translate(197.104379, 114.71208)"><g><path d="M 9.9375 -0.890625 C 10.550781 -1.046875 10.988281 -1.28125 11.25 -1.59375 C 11.519531 -1.914062 11.65625 -2.34375 11.65625 -2.875 L 11.765625 -8.921875 C 11.765625 -9.941406 11.546875 -10.726562 11.109375 -11.28125 C 10.671875 -11.832031 10.046875 -12.109375 9.234375 -12.109375 C 8.578125 -12.109375 7.910156 -11.9375 7.234375 -11.59375 C 6.566406 -11.257812 5.976562 -10.898438 5.46875 -10.515625 C 5.289062 -6.296875 5.203125 -3.789062 5.203125 -3 C 5.203125 -2.363281 5.28125 -1.914062 5.4375 -1.65625 C 5.601562 -1.40625 5.890625 -1.28125 6.296875 -1.28125 C 6.523438 -1.28125 6.738281 -1.289062 6.9375 -1.3125 C 7.144531 -1.332031 7.289062 -1.34375 7.375 -1.34375 L 7.4375 -1.21875 L 7.15625 0.09375 C 6.96875 0.0703125 6.609375 0.0507812 6.078125 0.03125 C 5.554688 0.0078125 4.988281 0 4.375 0 C 3.695312 0 3.070312 0.0078125 2.5 0.03125 C 1.9375 0.0507812 1.550781 0.0625 1.34375 0.0625 L 1.53125 -1.1875 C 2.125 -1.25 2.535156 -1.398438 2.765625 -1.640625 C 3.003906 -1.890625 3.125 -2.300781 3.125 -2.875 L 3.125 -10.328125 C 3.125 -11.023438 3.007812 -11.507812 2.78125 -11.78125 C 2.5625 -12.0625 2.175781 -12.203125 1.625 -12.203125 L 1.28125 -12.203125 L 1.1875 -12.328125 L 1.28125 -13.328125 C 2.15625 -13.472656 3.023438 -13.640625 3.890625 -13.828125 C 4.765625 -14.023438 5.320312 -14.15625 5.5625 -14.21875 L 5.75 -13.96875 C 5.707031 -13.851562 5.644531 -13.59375 5.5625 -13.1875 C 5.476562 -12.789062 5.425781 -12.378906 5.40625 -11.953125 L 5.46875 -11.859375 C 7.75 -13.410156 9.25 -14.1875 9.96875 -14.1875 C 10.945312 -14.1875 11.769531 -13.976562 12.4375 -13.5625 C 13.113281 -13.144531 13.59375 -12.546875 13.875 -11.765625 C 14.613281 -12.296875 15.441406 -12.832031 16.359375 -13.375 C 17.273438 -13.914062 17.988281 -14.1875 18.5 -14.1875 C 19.78125 -14.1875 20.796875 -13.828125 21.546875 -13.109375 C 22.304688 -12.398438 22.6875 -11.445312 22.6875 -10.25 C 22.6875 -10.039062 22.625 -9.101562 22.5 -7.4375 C 22.34375 -5.3125 22.265625 -3.832031 22.265625 -3 C 22.265625 -2.363281 22.34375 -1.914062 22.5 -1.65625 C 22.664062 -1.40625 22.953125 -1.28125 23.359375 -1.28125 C 23.585938 -1.28125 23.800781 -1.289062 24 -1.3125 C 24.207031 -1.332031 24.351562 -1.34375 24.4375 -1.34375 L 24.5 -1.21875 L 24.21875 0.09375 C 24.03125 0.0703125 23.671875 0.0507812 23.140625 0.03125 C 22.617188 0.0078125 22.050781 0 21.4375 0 C 20.90625 0 20.316406 0.0234375 19.671875 0.078125 C 19.035156 0.128906 18.613281 0.164062 18.40625 0.1875 L 18.5625 -1.0625 C 19.15625 -1.164062 19.570312 -1.347656 19.8125 -1.609375 C 20.0625 -1.878906 20.1875 -2.300781 20.1875 -2.875 L 20.296875 -8.921875 C 20.296875 -9.941406 20.078125 -10.726562 19.640625 -11.28125 C 19.203125 -11.832031 18.578125 -12.109375 17.765625 -12.109375 C 16.703125 -12.109375 15.46875 -11.597656 14.0625 -10.578125 L 13.734375 -3 C 13.734375 -2.40625 13.8125 -1.96875 13.96875 -1.6875 C 14.132812 -1.414062 14.410156 -1.28125 14.796875 -1.28125 C 15.023438 -1.28125 15.238281 -1.289062 15.4375 -1.3125 C 15.644531 -1.332031 15.789062 -1.34375 15.875 -1.34375 L 15.9375 -1.21875 L 15.6875 0.09375 C 15.5 0.0703125 15.148438 0.0507812 14.640625 0.03125 C 14.128906 0.0078125 13.570312 0 12.96875 0 C 12.4375 0 11.828125 0.0507812 11.140625 0.15625 C 10.460938 0.257812 10.019531 0.328125 9.8125 0.359375 Z M 9.9375 -0.890625 "/></g></g></g><g fill="#b7bfc7" fill-opacity="1"><g transform="translate(222.531905, 114.71208)"><g/></g></g><g fill="#b7bfc7" fill-opacity="1"><g transform="translate(228.583165, 114.71208)"><g><path d="M 2.140625 -1.15625 C 3.035156 -1.320312 3.625 -1.5625 3.90625 -1.875 C 4.195312 -2.195312 4.34375 -2.796875 4.34375 -3.671875 L 4.375 -16.515625 C 4.375 -17.160156 4.296875 -17.59375 4.140625 -17.8125 C 3.984375 -18.039062 3.679688 -18.15625 3.234375 -18.15625 C 3.035156 -18.15625 2.832031 -18.144531 2.625 -18.125 C 2.425781 -18.113281 2.285156 -18.109375 2.203125 -18.109375 L 2.140625 -18.21875 L 2.359375 -19.5625 C 2.597656 -19.550781 3.050781 -19.535156 3.71875 -19.515625 C 4.394531 -19.492188 5.070312 -19.484375 5.75 -19.484375 C 6.382812 -19.484375 7.101562 -19.492188 7.90625 -19.515625 C 8.707031 -19.546875 9.269531 -19.570312 9.59375 -19.59375 C 11.71875 -19.59375 13.335938 -19.125 14.453125 -18.1875 C 15.578125 -17.25 16.140625 -15.90625 16.140625 -14.15625 C 16.140625 -13.007812 15.804688 -11.921875 15.140625 -10.890625 C 14.484375 -9.867188 13.613281 -9.039062 12.53125 -8.40625 C 11.457031 -7.78125 10.328125 -7.46875 9.140625 -7.46875 L 6.578125 -7.46875 L 6.515625 -4.46875 C 6.515625 -3.488281 6.546875 -2.789062 6.609375 -2.375 C 6.671875 -1.957031 6.785156 -1.679688 6.953125 -1.546875 C 7.128906 -1.410156 7.429688 -1.34375 7.859375 -1.34375 C 8.203125 -1.34375 8.53125 -1.351562 8.84375 -1.375 C 9.164062 -1.394531 9.390625 -1.414062 9.515625 -1.4375 L 9.578125 -1.3125 L 9.296875 0.09375 C 9.085938 0.0703125 8.710938 0.0507812 8.171875 0.03125 C 7.640625 0.0078125 7.078125 0 6.484375 0 C 5.671875 0 4.71875 0.03125 3.625 0.09375 C 2.53125 0.15625 1.960938 0.207031 1.921875 0.25 Z M 9.875 -8.8125 C 11.101562 -9.007812 12.023438 -9.503906 12.640625 -10.296875 C 13.265625 -11.097656 13.578125 -12.191406 13.578125 -13.578125 C 13.578125 -15.148438 13.113281 -16.296875 12.1875 -17.015625 C 11.257812 -17.742188 9.804688 -18.109375 7.828125 -18.109375 C 7.460938 -18.109375 7.238281 -18.085938 7.15625 -18.046875 C 7.070312 -18.003906 7.019531 -17.878906 7 -17.671875 C 6.820312 -15.085938 6.703125 -12.285156 6.640625 -9.265625 Z M 9.875 -8.8125 "/></g></g></g><g fill="#b7bfc7" fill-opacity="1"><g transform="translate(245.422796, 114.71208)"><g><path d="M 7.515625 0.359375 C 6.253906 0.359375 5.132812 0.0820312 4.15625 -0.46875 C 3.175781 -1.03125 2.421875 -1.828125 1.890625 -2.859375 C 1.359375 -3.890625 1.09375 -5.066406 1.09375 -6.390625 C 1.09375 -7.753906 1.40625 -9.035156 2.03125 -10.234375 C 2.65625 -11.441406 3.484375 -12.398438 4.515625 -13.109375 C 5.554688 -13.828125 6.671875 -14.1875 7.859375 -14.1875 C 9.347656 -14.1875 10.476562 -13.804688 11.25 -13.046875 C 12.03125 -12.296875 12.421875 -11.195312 12.421875 -9.75 C 12.421875 -9.164062 12.359375 -8.664062 12.234375 -8.25 L 11.828125 -7.890625 L 3.390625 -7.890625 C 3.367188 -5.910156 3.757812 -4.382812 4.5625 -3.3125 C 5.375 -2.25 6.503906 -1.71875 7.953125 -1.71875 C 9.085938 -1.71875 10.332031 -2.03125 11.6875 -2.65625 L 11.859375 -2.59375 L 12.203125 -1.71875 C 11.460938 -1.1875 10.648438 -0.707031 9.765625 -0.28125 C 8.878906 0.144531 8.128906 0.359375 7.515625 0.359375 Z M 9.046875 -9.296875 C 9.359375 -9.335938 9.5625 -9.40625 9.65625 -9.5 C 9.757812 -9.601562 9.8125 -9.8125 9.8125 -10.125 C 9.8125 -10.9375 9.59375 -11.554688 9.15625 -11.984375 C 8.71875 -12.410156 8.09375 -12.625 7.28125 -12.625 C 6.320312 -12.625 5.5 -12.296875 4.8125 -11.640625 C 4.132812 -10.992188 3.703125 -10.117188 3.515625 -9.015625 Z M 9.046875 -9.296875 "/></g></g></g><g fill="#b7bfc7" fill-opacity="1"><g transform="translate(259.114541, 114.71208)"><g><path d="M 1.796875 -1.09375 C 2.410156 -1.15625 2.816406 -1.351562 3.015625 -1.6875 C 3.222656 -2.03125 3.328125 -2.679688 3.328125 -3.640625 L 3.328125 -10.359375 C 3.328125 -11.035156 3.234375 -11.515625 3.046875 -11.796875 C 2.867188 -12.085938 2.578125 -12.234375 2.171875 -12.234375 C 2.003906 -12.234375 1.863281 -12.222656 1.75 -12.203125 C 1.644531 -12.179688 1.570312 -12.160156 1.53125 -12.140625 L 1.375 -12.359375 L 1.46875 -13.296875 C 2.238281 -13.441406 3.054688 -13.613281 3.921875 -13.8125 C 4.796875 -14.019531 5.351562 -14.15625 5.59375 -14.21875 L 5.8125 -14.03125 C 5.769531 -13.851562 5.707031 -13.429688 5.625 -12.765625 C 5.539062 -12.097656 5.507812 -11.472656 5.53125 -10.890625 L 5.65625 -10.796875 C 6.269531 -11.753906 6.988281 -12.535156 7.8125 -13.140625 C 8.632812 -13.753906 9.351562 -14.0625 9.96875 -14.0625 C 10.25 -14.0625 10.46875 -14.046875 10.625 -14.015625 C 10.78125 -13.984375 10.878906 -13.957031 10.921875 -13.9375 L 11.015625 -13.828125 C 10.972656 -13.535156 10.882812 -12.925781 10.75 -12 C 10.613281 -11.070312 10.535156 -10.222656 10.515625 -9.453125 L 9.328125 -9.359375 C 9.328125 -10.191406 9.269531 -10.742188 9.15625 -11.015625 C 9.039062 -11.296875 8.820312 -11.4375 8.5 -11.4375 C 8.050781 -11.4375 7.570312 -11.25 7.0625 -10.875 C 6.550781 -10.5 6.082031 -9.992188 5.65625 -9.359375 C 5.632812 -8.765625 5.59375 -7.785156 5.53125 -6.421875 C 5.46875 -5.054688 5.425781 -3.957031 5.40625 -3.125 C 5.40625 -2.425781 5.507812 -1.953125 5.71875 -1.703125 C 5.925781 -1.460938 6.3125 -1.34375 6.875 -1.34375 C 7.144531 -1.34375 7.410156 -1.351562 7.671875 -1.375 C 7.941406 -1.394531 8.125 -1.40625 8.21875 -1.40625 L 8.25 -1.28125 L 7.984375 0.0625 C 7.773438 0.0625 7.363281 0.0507812 6.75 0.03125 C 6.144531 0.0078125 5.515625 0 4.859375 0 C 4.109375 0 3.425781 0.015625 2.8125 0.046875 C 2.195312 0.078125 1.8125 0.101562 1.65625 0.125 Z M 1.796875 -1.09375 "/></g></g></g><g fill="#b7bfc7" fill-opacity="1"><g transform="translate(270.81976, 114.71208)"><g><path d="M 1.5625 -1.0625 C 2.71875 -1.226562 3.296875 -1.832031 3.296875 -2.875 L 3.296875 -11.125 C 3.273438 -11.613281 3.132812 -11.9375 2.875 -12.09375 C 2.625 -12.25 2.125 -12.347656 1.375 -12.390625 L 1.25 -12.5625 L 1.46875 -13.609375 L 3.296875 -13.9375 L 3.296875 -14.0625 C 3.296875 -15.820312 3.585938 -17.351562 4.171875 -18.65625 C 4.753906 -19.957031 5.566406 -20.953125 6.609375 -21.640625 C 7.660156 -22.335938 8.898438 -22.6875 10.328125 -22.6875 C 10.941406 -22.6875 11.507812 -22.644531 12.03125 -22.5625 C 12.550781 -22.476562 12.957031 -22.390625 13.25 -22.296875 C 13.550781 -22.210938 13.742188 -22.148438 13.828125 -22.109375 L 13.875 -21.828125 C 13.820312 -21.734375 13.695312 -21.492188 13.5 -21.109375 C 13.300781 -20.734375 13.113281 -20.3125 12.9375 -19.84375 L 12.59375 -19.75 C 12.507812 -19.8125 12.3125 -19.929688 12 -20.109375 C 11.6875 -20.296875 11.269531 -20.472656 10.75 -20.640625 C 10.226562 -20.804688 9.671875 -20.890625 9.078125 -20.890625 C 7.921875 -20.890625 7.054688 -20.425781 6.484375 -19.5 C 5.910156 -18.570312 5.601562 -17.148438 5.5625 -15.234375 L 5.53125 -13.734375 C 6.59375 -13.734375 7.5 -13.742188 8.25 -13.765625 C 9.007812 -13.785156 9.507812 -13.804688 9.75 -13.828125 L 9.84375 -13.734375 L 9.546875 -12.109375 C 9.316406 -12.128906 8.835938 -12.148438 8.109375 -12.171875 C 7.390625 -12.191406 6.519531 -12.203125 5.5 -12.203125 L 5.375 -3 C 5.375 -2.425781 5.5 -2 5.75 -1.71875 C 6.007812 -1.445312 6.40625 -1.3125 6.9375 -1.3125 C 7.425781 -1.3125 7.828125 -1.320312 8.140625 -1.34375 C 8.460938 -1.363281 8.675781 -1.375 8.78125 -1.375 L 8.84375 -1.25 L 8.625 0.0625 C 8.332031 0.0625 7.8125 0.0507812 7.0625 0.03125 C 6.3125 0.0078125 5.566406 0 4.828125 0 C 4.117188 0 3.421875 0.015625 2.734375 0.046875 C 2.054688 0.078125 1.613281 0.101562 1.40625 0.125 Z M 1.5625 -1.0625 "/></g></g></g><g fill="#b7bfc7" fill-opacity="1"><g transform="translate(280.905194, 114.71208)"><g><path d="M 2.75 -10.609375 C 2.75 -11.710938 2.375 -12.265625 1.625 -12.265625 C 1.476562 -12.265625 1.320312 -12.25 1.15625 -12.21875 C 1 -12.1875 0.898438 -12.160156 0.859375 -12.140625 L 0.984375 -13.265625 C 1.773438 -13.390625 2.628906 -13.554688 3.546875 -13.765625 C 4.460938 -13.984375 5.0625 -14.125 5.34375 -14.1875 L 5.53125 -13.828125 C 5.332031 -13.296875 5.148438 -12.09375 4.984375 -10.21875 C 4.816406 -8.34375 4.734375 -6.515625 4.734375 -4.734375 C 4.734375 -2.742188 5.550781 -1.75 7.1875 -1.75 C 7.800781 -1.75 8.367188 -1.894531 8.890625 -2.1875 C 9.421875 -2.476562 10.085938 -2.910156 10.890625 -3.484375 L 10.890625 -10.578125 C 10.890625 -11.191406 10.773438 -11.617188 10.546875 -11.859375 C 10.328125 -12.109375 9.929688 -12.234375 9.359375 -12.234375 L 8.625 -12.203125 L 8.75 -13.296875 C 9.644531 -13.421875 10.582031 -13.582031 11.5625 -13.78125 C 12.539062 -13.988281 13.171875 -14.125 13.453125 -14.1875 L 13.640625 -13.828125 C 13.453125 -13.359375 13.289062 -12.082031 13.15625 -10 C 13.03125 -7.914062 12.96875 -5.648438 12.96875 -3.203125 C 12.96875 -2.753906 13.078125 -2.40625 13.296875 -2.15625 C 13.523438 -1.914062 13.832031 -1.796875 14.21875 -1.796875 C 14.5 -1.796875 14.773438 -1.851562 15.046875 -1.96875 C 15.328125 -2.082031 15.554688 -2.195312 15.734375 -2.3125 C 15.910156 -2.4375 16.015625 -2.519531 16.046875 -2.5625 L 16.484375 -2.078125 C 16.398438 -1.953125 16.207031 -1.695312 15.90625 -1.3125 C 15.613281 -0.925781 15.269531 -0.550781 14.875 -0.1875 C 14.476562 0.175781 14.128906 0.359375 13.828125 0.359375 C 12.171875 0.359375 11.257812 -0.460938 11.09375 -2.109375 L 10.953125 -2.171875 C 9.972656 -1.421875 9.085938 -0.8125 8.296875 -0.34375 C 7.515625 0.125 6.984375 0.359375 6.703125 0.359375 C 5.390625 0.359375 4.378906 0.0546875 3.671875 -0.546875 C 2.972656 -1.160156 2.625 -2.039062 2.625 -3.1875 Z M 2.75 -10.609375 "/></g></g></g><g fill="#b7bfc7" fill-opacity="1"><g transform="translate(297.439188, 114.71208)"><g><path d="M 9.9375 -0.890625 C 10.550781 -1.046875 10.988281 -1.28125 11.25 -1.59375 C 11.519531 -1.914062 11.65625 -2.34375 11.65625 -2.875 L 11.765625 -8.921875 C 11.765625 -9.941406 11.546875 -10.726562 11.109375 -11.28125 C 10.671875 -11.832031 10.046875 -12.109375 9.234375 -12.109375 C 8.578125 -12.109375 7.910156 -11.9375 7.234375 -11.59375 C 6.566406 -11.257812 5.976562 -10.898438 5.46875 -10.515625 C 5.289062 -6.296875 5.203125 -3.789062 5.203125 -3 C 5.203125 -2.363281 5.28125 -1.914062 5.4375 -1.65625 C 5.601562 -1.40625 5.890625 -1.28125 6.296875 -1.28125 C 6.523438 -1.28125 6.738281 -1.289062 6.9375 -1.3125 C 7.144531 -1.332031 7.289062 -1.34375 7.375 -1.34375 L 7.4375 -1.21875 L 7.15625 0.09375 C 6.96875 0.0703125 6.609375 0.0507812 6.078125 0.03125 C 5.554688 0.0078125 4.988281 0 4.375 0 C 3.695312 0 3.070312 0.0078125 2.5 0.03125 C 1.9375 0.0507812 1.550781 0.0625 1.34375 0.0625 L 1.53125 -1.1875 C 2.125 -1.25 2.535156 -1.398438 2.765625 -1.640625 C 3.003906 -1.890625 3.125 -2.300781 3.125 -2.875 L 3.125 -10.328125 C 3.125 -11.023438 3.007812 -11.507812 2.78125 -11.78125 C 2.5625 -12.0625 2.175781 -12.203125 1.625 -12.203125 L 1.28125 -12.203125 L 1.1875 -12.328125 L 1.28125 -13.328125 C 2.15625 -13.472656 3.023438 -13.640625 3.890625 -13.828125 C 4.765625 -14.023438 5.320312 -14.15625 5.5625 -14.21875 L 5.75 -13.96875 C 5.707031 -13.851562 5.644531 -13.59375 5.5625 -13.1875 C 5.476562 -12.789062 5.425781 -12.378906 5.40625 -11.953125 L 5.46875 -11.859375 C 7.75 -13.410156 9.25 -14.1875 9.96875 -14.1875 C 10.945312 -14.1875 11.769531 -13.976562 12.4375 -13.5625 C 13.113281 -13.144531 13.59375 -12.546875 13.875 -11.765625 C 14.613281 -12.296875 15.441406 -12.832031 16.359375 -13.375 C 17.273438 -13.914062 17.988281 -14.1875 18.5 -14.1875 C 19.78125 -14.1875 20.796875 -13.828125 21.546875 -13.109375 C 22.304688 -12.398438 22.6875 -11.445312 22.6875 -10.25 C 22.6875 -10.039062 22.625 -9.101562 22.5 -7.4375 C 22.34375 -5.3125 22.265625 -3.832031 22.265625 -3 C 22.265625 -2.363281 22.34375 -1.914062 22.5 -1.65625 C 22.664062 -1.40625 22.953125 -1.28125 23.359375 -1.28125 C 23.585938 -1.28125 23.800781 -1.289062 24 -1.3125 C 24.207031 -1.332031 24.351562 -1.34375 24.4375 -1.34375 L 24.5 -1.21875 L 24.21875 0.09375 C 24.03125 0.0703125 23.671875 0.0507812 23.140625 0.03125 C 22.617188 0.0078125 22.050781 0 21.4375 0 C 20.90625 0 20.316406 0.0234375 19.671875 0.078125 C 19.035156 0.128906 18.613281 0.164062 18.40625 0.1875 L 18.5625 -1.0625 C 19.15625 -1.164062 19.570312 -1.347656 19.8125 -1.609375 C 20.0625 -1.878906 20.1875 -2.300781 20.1875 -2.875 L 20.296875 -8.921875 C 20.296875 -9.941406 20.078125 -10.726562 19.640625 -11.28125 C 19.203125 -11.832031 18.578125 -12.109375 17.765625 -12.109375 C 16.703125 -12.109375 15.46875 -11.597656 14.0625 -10.578125 L 13.734375 -3 C 13.734375 -2.40625 13.8125 -1.96875 13.96875 -1.6875 C 14.132812 -1.414062 14.410156 -1.28125 14.796875 -1.28125 C 15.023438 -1.28125 15.238281 -1.289062 15.4375 -1.3125 C 15.644531 -1.332031 15.789062 -1.34375 15.875 -1.34375 L 15.9375 -1.21875 L 15.6875 0.09375 C 15.5 0.0703125 15.148438 0.0507812 14.640625 0.03125 C 14.128906 0.0078125 13.570312 0 12.96875 0 C 12.4375 0 11.828125 0.0507812 11.140625 0.15625 C 10.460938 0.257812 10.019531 0.328125 9.8125 0.359375 Z M 9.9375 -0.890625 "/></g></g></g><g fill="#b7bfc7" fill-opacity="1"><g transform="translate(322.866714, 114.71208)"><g><path d="M 7.515625 0.359375 C 6.253906 0.359375 5.132812 0.0820312 4.15625 -0.46875 C 3.175781 -1.03125 2.421875 -1.828125 1.890625 -2.859375 C 1.359375 -3.890625 1.09375 -5.066406 1.09375 -6.390625 C 1.09375 -7.753906 1.40625 -9.035156 2.03125 -10.234375 C 2.65625 -11.441406 3.484375 -12.398438 4.515625 -13.109375 C 5.554688 -13.828125 6.671875 -14.1875 7.859375 -14.1875 C 9.347656 -14.1875 10.476562 -13.804688 11.25 -13.046875 C 12.03125 -12.296875 12.421875 -11.195312 12.421875 -9.75 C 12.421875 -9.164062 12.359375 -8.664062 12.234375 -8.25 L 11.828125 -7.890625 L 3.390625 -7.890625 C 3.367188 -5.910156 3.757812 -4.382812 4.5625 -3.3125 C 5.375 -2.25 6.503906 -1.71875 7.953125 -1.71875 C 9.085938 -1.71875 10.332031 -2.03125 11.6875 -2.65625 L 11.859375 -2.59375 L 12.203125 -1.71875 C 11.460938 -1.1875 10.648438 -0.707031 9.765625 -0.28125 C 8.878906 0.144531 8.128906 0.359375 7.515625 0.359375 Z M 9.046875 -9.296875 C 9.359375 -9.335938 9.5625 -9.40625 9.65625 -9.5 C 9.757812 -9.601562 9.8125 -9.8125 9.8125 -10.125 C 9.8125 -10.9375 9.59375 -11.554688 9.15625 -11.984375 C 8.71875 -12.410156 8.09375 -12.625 7.28125 -12.625 C 6.320312 -12.625 5.5 -12.296875 4.8125 -11.640625 C 4.132812 -10.992188 3.703125 -10.117188 3.515625 -9.015625 Z M 9.046875 -9.296875 "/></g></g></g><g fill="#b7bfc7" fill-opacity="1"><g transform="translate(173.366002, 128.984213)"><g><path d="M 4.515625 0.140625 C 3.304688 0.140625 2.175781 -0.0859375 1.125 -0.546875 C 1.007812 -0.585938 0.910156 -0.660156 0.828125 -0.765625 C 0.753906 -0.878906 0.71875 -1 0.71875 -1.125 C 0.71875 -1.28125 0.769531 -1.414062 0.875 -1.53125 C 0.988281 -1.65625 1.132812 -1.71875 1.3125 -1.71875 C 1.40625 -1.71875 1.492188 -1.703125 1.578125 -1.671875 C 2.453125 -1.273438 3.390625 -1.078125 4.390625 -1.078125 C 6.046875 -1.078125 6.875 -1.625 6.875 -2.71875 C 6.875 -3 6.765625 -3.234375 6.546875 -3.421875 C 6.335938 -3.617188 6.078125 -3.769531 5.765625 -3.875 C 5.453125 -3.988281 5.003906 -4.117188 4.421875 -4.265625 C 3.660156 -4.460938 3.039062 -4.65625 2.5625 -4.84375 C 2.082031 -5.03125 1.671875 -5.304688 1.328125 -5.671875 C 0.992188 -6.046875 0.828125 -6.539062 0.828125 -7.15625 C 0.828125 -7.695312 0.96875 -8.1875 1.25 -8.625 C 1.53125 -9.070312 1.945312 -9.425781 2.5 -9.6875 C 3.0625 -9.945312 3.734375 -10.078125 4.515625 -10.078125 C 5.554688 -10.078125 6.5 -9.921875 7.34375 -9.609375 C 7.613281 -9.515625 7.75 -9.320312 7.75 -9.03125 C 7.75 -8.882812 7.695312 -8.75 7.59375 -8.625 C 7.488281 -8.5 7.347656 -8.4375 7.171875 -8.4375 C 7.117188 -8.4375 7.046875 -8.457031 6.953125 -8.5 C 6.210938 -8.75 5.445312 -8.875 4.65625 -8.875 C 3.90625 -8.875 3.296875 -8.734375 2.828125 -8.453125 C 2.359375 -8.171875 2.125 -7.773438 2.125 -7.265625 C 2.125 -6.921875 2.234375 -6.640625 2.453125 -6.421875 C 2.679688 -6.210938 2.960938 -6.046875 3.296875 -5.921875 C 3.628906 -5.804688 4.085938 -5.679688 4.671875 -5.546875 C 5.421875 -5.367188 6.023438 -5.1875 6.484375 -5 C 6.941406 -4.820312 7.332031 -4.539062 7.65625 -4.15625 C 7.988281 -3.78125 8.15625 -3.273438 8.15625 -2.640625 C 8.15625 -2.109375 8.003906 -1.628906 7.703125 -1.203125 C 7.398438 -0.773438 6.972656 -0.441406 6.421875 -0.203125 C 5.867188 0.0234375 5.234375 0.140625 4.515625 0.140625 Z M 4.515625 0.140625 "/></g></g></g><g fill="#b7bfc7" fill-opacity="1"><g transform="translate(183.569212, 128.984213)"><g><path d="M 1.734375 -8.734375 C 1.535156 -8.734375 1.363281 -8.804688 1.21875 -8.953125 C 1.082031 -9.097656 1.015625 -9.269531 1.015625 -9.46875 L 1.015625 -9.515625 C 1.015625 -9.722656 1.082031 -9.894531 1.21875 -10.03125 C 1.363281 -10.175781 1.535156 -10.25 1.734375 -10.25 L 1.828125 -10.25 C 2.023438 -10.25 2.191406 -10.175781 2.328125 -10.03125 C 2.472656 -9.894531 2.546875 -9.722656 2.546875 -9.515625 L 2.546875 -9.46875 C 2.546875 -9.269531 2.472656 -9.097656 2.328125 -8.953125 C 2.191406 -8.804688 2.023438 -8.734375 1.828125 -8.734375 Z M 1.765625 0.078125 C 1.585938 0.078125 1.4375 0.015625 1.3125 -0.109375 C 1.1875 -0.234375 1.125 -0.382812 1.125 -0.5625 L 1.125 -6.671875 C 1.125 -6.859375 1.1875 -7.015625 1.3125 -7.140625 C 1.4375 -7.265625 1.585938 -7.328125 1.765625 -7.328125 C 1.953125 -7.328125 2.109375 -7.265625 2.234375 -7.140625 C 2.359375 -7.015625 2.421875 -6.859375 2.421875 -6.671875 L 2.421875 -0.5625 C 2.421875 -0.382812 2.351562 -0.234375 2.21875 -0.109375 C 2.09375 0.015625 1.941406 0.078125 1.765625 0.078125 Z M 1.765625 0.078125 "/></g></g></g><g fill="#b7bfc7" fill-opacity="1"><g transform="translate(188.550773, 128.984213)"><g><path d="M 1.765625 0.078125 C 1.585938 0.078125 1.4375 0.015625 1.3125 -0.109375 C 1.1875 -0.234375 1.125 -0.382812 1.125 -0.5625 L 1.125 -6.671875 C 1.125 -6.859375 1.1875 -7.015625 1.3125 -7.140625 C 1.4375 -7.265625 1.585938 -7.328125 1.765625 -7.328125 C 1.941406 -7.328125 2.09375 -7.265625 2.21875 -7.140625 C 2.351562 -7.015625 2.421875 -6.859375 2.421875 -6.671875 L 2.421875 -6.09375 C 2.773438 -6.488281 3.160156 -6.804688 3.578125 -7.046875 C 4.003906 -7.285156 4.5 -7.40625 5.0625 -7.40625 C 5.582031 -7.40625 6.035156 -7.28125 6.421875 -7.03125 C 6.804688 -6.78125 7.097656 -6.441406 7.296875 -6.015625 C 7.503906 -5.585938 7.609375 -5.117188 7.609375 -4.609375 L 7.609375 -0.5625 C 7.609375 -0.382812 7.546875 -0.234375 7.421875 -0.109375 C 7.296875 0.015625 7.140625 0.078125 6.953125 0.078125 C 6.773438 0.078125 6.625 0.015625 6.5 -0.109375 C 6.375 -0.234375 6.3125 -0.382812 6.3125 -0.5625 L 6.3125 -4.46875 C 6.3125 -5.625 5.789062 -6.203125 4.75 -6.203125 C 4.28125 -6.203125 3.859375 -6.078125 3.484375 -5.828125 C 3.109375 -5.585938 2.753906 -5.257812 2.421875 -4.84375 L 2.421875 -0.5625 C 2.421875 -0.382812 2.351562 -0.234375 2.21875 -0.109375 C 2.09375 0.015625 1.941406 0.078125 1.765625 0.078125 Z M 1.765625 0.078125 "/></g></g></g><g fill="#b7bfc7" fill-opacity="1"><g transform="translate(198.654384, 128.984213)"><g><path d="M 4.484375 0.140625 C 3.796875 0.140625 3.160156 -0.0078125 2.578125 -0.3125 C 2.003906 -0.613281 1.546875 -1.050781 1.203125 -1.625 C 0.859375 -2.195312 0.6875 -2.863281 0.6875 -3.625 C 0.6875 -4.394531 0.859375 -5.0625 1.203125 -5.625 C 1.546875 -6.195312 2.003906 -6.632812 2.578125 -6.9375 C 3.160156 -7.25 3.796875 -7.40625 4.484375 -7.40625 C 4.984375 -7.40625 5.414062 -7.335938 5.78125 -7.203125 C 6.144531 -7.078125 6.484375 -6.914062 6.796875 -6.71875 C 6.992188 -6.59375 7.09375 -6.425781 7.09375 -6.21875 C 7.09375 -6.070312 7.035156 -5.941406 6.921875 -5.828125 C 6.816406 -5.710938 6.691406 -5.65625 6.546875 -5.65625 C 6.441406 -5.65625 6.335938 -5.679688 6.234375 -5.734375 C 5.921875 -5.898438 5.648438 -6.015625 5.421875 -6.078125 C 5.203125 -6.148438 4.925781 -6.1875 4.59375 -6.1875 C 3.78125 -6.1875 3.140625 -5.953125 2.671875 -5.484375 C 2.210938 -5.015625 1.984375 -4.394531 1.984375 -3.625 C 1.984375 -2.863281 2.210938 -2.242188 2.671875 -1.765625 C 3.140625 -1.296875 3.78125 -1.0625 4.59375 -1.0625 C 4.925781 -1.0625 5.203125 -1.097656 5.421875 -1.171875 C 5.648438 -1.242188 5.921875 -1.359375 6.234375 -1.515625 C 6.335938 -1.578125 6.441406 -1.609375 6.546875 -1.609375 C 6.691406 -1.609375 6.816406 -1.546875 6.921875 -1.421875 C 7.035156 -1.304688 7.09375 -1.179688 7.09375 -1.046875 C 7.09375 -0.828125 6.992188 -0.660156 6.796875 -0.546875 C 6.484375 -0.335938 6.144531 -0.171875 5.78125 -0.046875 C 5.414062 0.078125 4.984375 0.140625 4.484375 0.140625 Z M 4.484375 0.140625 "/></g></g></g><g fill="#b7bfc7" fill-opacity="1"><g transform="translate(207.676673, 128.984213)"><g><path d="M 4.375 0.140625 C 3.21875 0.140625 2.3125 -0.1875 1.65625 -0.84375 C 1.007812 -1.507812 0.6875 -2.4375 0.6875 -3.625 C 0.6875 -4.300781 0.804688 -4.921875 1.046875 -5.484375 C 1.296875 -6.054688 1.675781 -6.519531 2.1875 -6.875 C 2.695312 -7.226562 3.328125 -7.40625 4.078125 -7.40625 C 4.785156 -7.40625 5.394531 -7.238281 5.90625 -6.90625 C 6.414062 -6.582031 6.800781 -6.144531 7.0625 -5.59375 C 7.332031 -5.050781 7.46875 -4.457031 7.46875 -3.8125 C 7.46875 -3.632812 7.40625 -3.484375 7.28125 -3.359375 C 7.164062 -3.234375 7.007812 -3.171875 6.8125 -3.171875 L 2 -3.171875 C 2.070312 -2.503906 2.316406 -1.984375 2.734375 -1.609375 C 3.148438 -1.242188 3.734375 -1.0625 4.484375 -1.0625 C 4.878906 -1.0625 5.226562 -1.097656 5.53125 -1.171875 C 5.832031 -1.253906 6.125 -1.367188 6.40625 -1.515625 C 6.476562 -1.546875 6.5625 -1.5625 6.65625 -1.5625 C 6.8125 -1.5625 6.945312 -1.507812 7.0625 -1.40625 C 7.175781 -1.300781 7.234375 -1.171875 7.234375 -1.015625 C 7.234375 -0.804688 7.109375 -0.628906 6.859375 -0.484375 C 6.492188 -0.273438 6.128906 -0.117188 5.765625 -0.015625 C 5.398438 0.0859375 4.9375 0.140625 4.375 0.140625 Z M 6.1875 -4.234375 C 6.164062 -4.691406 6.046875 -5.078125 5.828125 -5.390625 C 5.617188 -5.703125 5.351562 -5.929688 5.03125 -6.078125 C 4.71875 -6.234375 4.398438 -6.3125 4.078125 -6.3125 C 3.753906 -6.3125 3.4375 -6.234375 3.125 -6.078125 C 2.8125 -5.929688 2.550781 -5.703125 2.34375 -5.390625 C 2.132812 -5.078125 2.019531 -4.691406 2 -4.234375 Z M 6.1875 -4.234375 "/></g></g></g><g fill="#b7bfc7" fill-opacity="1"><g transform="translate(217.16849, 128.984213)"><g/></g></g><g fill="#b7bfc7" fill-opacity="1"><g transform="translate(222.306555, 128.984213)"><g><path d="M 1.671875 0 C 1.460938 0 1.285156 -0.0664062 1.140625 -0.203125 C 0.992188 -0.335938 0.921875 -0.515625 0.921875 -0.734375 C 0.921875 -1.234375 1.066406 -1.691406 1.359375 -2.109375 C 1.648438 -2.523438 2 -2.890625 2.40625 -3.203125 C 2.820312 -3.523438 3.367188 -3.90625 4.046875 -4.34375 C 4.617188 -4.707031 5.078125 -5.019531 5.421875 -5.28125 C 5.765625 -5.539062 6.050781 -5.820312 6.28125 -6.125 C 6.507812 -6.425781 6.625 -6.75 6.625 -7.09375 C 6.625 -7.632812 6.441406 -8.0625 6.078125 -8.375 C 5.722656 -8.695312 5.15625 -8.859375 4.375 -8.859375 C 3.519531 -8.859375 2.707031 -8.6875 1.9375 -8.34375 C 1.84375 -8.289062 1.753906 -8.265625 1.671875 -8.265625 C 1.515625 -8.265625 1.382812 -8.316406 1.28125 -8.421875 C 1.175781 -8.523438 1.125 -8.660156 1.125 -8.828125 C 1.125 -9.066406 1.226562 -9.242188 1.4375 -9.359375 C 2.40625 -9.835938 3.457031 -10.078125 4.59375 -10.078125 C 5.207031 -10.078125 5.757812 -9.957031 6.25 -9.71875 C 6.75 -9.476562 7.144531 -9.140625 7.4375 -8.703125 C 7.726562 -8.265625 7.875 -7.757812 7.875 -7.1875 C 7.875 -6.625 7.707031 -6.101562 7.375 -5.625 C 7.050781 -5.144531 6.660156 -4.722656 6.203125 -4.359375 C 5.742188 -4.003906 5.148438 -3.59375 4.421875 -3.125 C 3.765625 -2.675781 3.265625 -2.316406 2.921875 -2.046875 C 2.585938 -1.773438 2.351562 -1.492188 2.21875 -1.203125 L 7.171875 -1.203125 C 7.347656 -1.203125 7.492188 -1.144531 7.609375 -1.03125 C 7.722656 -0.914062 7.78125 -0.769531 7.78125 -0.59375 C 7.78125 -0.425781 7.722656 -0.285156 7.609375 -0.171875 C 7.492188 -0.0546875 7.347656 0 7.171875 0 Z M 1.671875 0 "/></g></g></g><g fill="#b7bfc7" fill-opacity="1"><g transform="translate(232.680499, 128.984213)"><g><path d="M 4.46875 0.140625 C 3.21875 0.140625 2.257812 -0.316406 1.59375 -1.234375 C 0.9375 -2.160156 0.609375 -3.40625 0.609375 -4.96875 C 0.609375 -6.53125 0.9375 -7.769531 1.59375 -8.6875 C 2.257812 -9.613281 3.21875 -10.078125 4.46875 -10.078125 C 5.707031 -10.078125 6.660156 -9.613281 7.328125 -8.6875 C 7.992188 -7.769531 8.328125 -6.53125 8.328125 -4.96875 C 8.328125 -3.40625 7.992188 -2.160156 7.328125 -1.234375 C 6.660156 -0.316406 5.707031 0.140625 4.46875 0.140625 Z M 4.46875 -1.046875 C 5.289062 -1.046875 5.921875 -1.390625 6.359375 -2.078125 C 6.804688 -2.773438 7.03125 -3.738281 7.03125 -4.96875 C 7.03125 -6.1875 6.804688 -7.140625 6.359375 -7.828125 C 5.921875 -8.523438 5.289062 -8.875 4.46875 -8.875 C 3.644531 -8.875 3.007812 -8.523438 2.5625 -7.828125 C 2.125 -7.140625 1.90625 -6.1875 1.90625 -4.96875 C 1.90625 -3.738281 2.125 -2.773438 2.5625 -2.078125 C 3.007812 -1.390625 3.644531 -1.046875 4.46875 -1.046875 Z M 4.46875 -1.046875 "/></g></g></g><g fill="#b7bfc7" fill-opacity="1"><g transform="translate(243.054443, 128.984213)"><g><path d="M 1.671875 0 C 1.460938 0 1.285156 -0.0664062 1.140625 -0.203125 C 0.992188 -0.335938 0.921875 -0.515625 0.921875 -0.734375 C 0.921875 -1.234375 1.066406 -1.691406 1.359375 -2.109375 C 1.648438 -2.523438 2 -2.890625 2.40625 -3.203125 C 2.820312 -3.523438 3.367188 -3.90625 4.046875 -4.34375 C 4.617188 -4.707031 5.078125 -5.019531 5.421875 -5.28125 C 5.765625 -5.539062 6.050781 -5.820312 6.28125 -6.125 C 6.507812 -6.425781 6.625 -6.75 6.625 -7.09375 C 6.625 -7.632812 6.441406 -8.0625 6.078125 -8.375 C 5.722656 -8.695312 5.15625 -8.859375 4.375 -8.859375 C 3.519531 -8.859375 2.707031 -8.6875 1.9375 -8.34375 C 1.84375 -8.289062 1.753906 -8.265625 1.671875 -8.265625 C 1.515625 -8.265625 1.382812 -8.316406 1.28125 -8.421875 C 1.175781 -8.523438 1.125 -8.660156 1.125 -8.828125 C 1.125 -9.066406 1.226562 -9.242188 1.4375 -9.359375 C 2.40625 -9.835938 3.457031 -10.078125 4.59375 -10.078125 C 5.207031 -10.078125 5.757812 -9.957031 6.25 -9.71875 C 6.75 -9.476562 7.144531 -9.140625 7.4375 -8.703125 C 7.726562 -8.265625 7.875 -7.757812 7.875 -7.1875 C 7.875 -6.625 7.707031 -6.101562 7.375 -5.625 C 7.050781 -5.144531 6.660156 -4.722656 6.203125 -4.359375 C 5.742188 -4.003906 5.148438 -3.59375 4.421875 -3.125 C 3.765625 -2.675781 3.265625 -2.316406 2.921875 -2.046875 C 2.585938 -1.773438 2.351562 -1.492188 2.21875 -1.203125 L 7.171875 -1.203125 C 7.347656 -1.203125 7.492188 -1.144531 7.609375 -1.03125 C 7.722656 -0.914062 7.78125 -0.769531 7.78125 -0.59375 C 7.78125 -0.425781 7.722656 -0.285156 7.609375 -0.171875 C 7.492188 -0.0546875 7.347656 0 7.171875 0 Z M 1.671875 0 "/></g></g></g><g fill="#b7bfc7" fill-opacity="1"><g transform="translate(253.428387, 128.984213)"><g><path d="M 4.46875 0.140625 C 3.21875 0.140625 2.257812 -0.316406 1.59375 -1.234375 C 0.9375 -2.160156 0.609375 -3.40625 0.609375 -4.96875 C 0.609375 -6.53125 0.9375 -7.769531 1.59375 -8.6875 C 2.257812 -9.613281 3.21875 -10.078125 4.46875 -10.078125 C 5.707031 -10.078125 6.660156 -9.613281 7.328125 -8.6875 C 7.992188 -7.769531 8.328125 -6.53125 8.328125 -4.96875 C 8.328125 -3.40625 7.992188 -2.160156 7.328125 -1.234375 C 6.660156 -0.316406 5.707031 0.140625 4.46875 0.140625 Z M 4.46875 -1.046875 C 5.289062 -1.046875 5.921875 -1.390625 6.359375 -2.078125 C 6.804688 -2.773438 7.03125 -3.738281 7.03125 -4.96875 C 7.03125 -6.1875 6.804688 -7.140625 6.359375 -7.828125 C 5.921875 -8.523438 5.289062 -8.875 4.46875 -8.875 C 3.644531 -8.875 3.007812 -8.523438 2.5625 -7.828125 C 2.125 -7.140625 1.90625 -6.1875 1.90625 -4.96875 C 1.90625 -3.738281 2.125 -2.773438 2.5625 -2.078125 C 3.007812 -1.390625 3.644531 -1.046875 4.46875 -1.046875 Z M 4.46875 -1.046875 "/></g></g></g><g fill="#b7bfc7" fill-opacity="1"><g transform="translate(263.802331, 128.984213)"><g><path d="M 1.78125 0.046875 C 1.5625 0.046875 1.375 -0.03125 1.21875 -0.1875 C 1.0625 -0.34375 0.984375 -0.53125 0.984375 -0.75 L 0.984375 -0.84375 C 0.984375 -1.0625 1.0625 -1.25 1.21875 -1.40625 C 1.375 -1.5625 1.5625 -1.640625 1.78125 -1.640625 L 1.921875 -1.640625 C 2.140625 -1.640625 2.328125 -1.5625 2.484375 -1.40625 C 2.640625 -1.25 2.71875 -1.0625 2.71875 -0.84375 L 2.71875 -0.75 C 2.71875 -0.53125 2.640625 -0.34375 2.484375 -0.1875 C 2.328125 -0.03125 2.140625 0.046875 1.921875 0.046875 Z M 1.78125 0.046875 "/></g></g></g></svg>