<svg xmlns="http://www.w3.org/2000/svg" xmlns:xlink="http://www.w3.org/1999/xlink" width="571" zoomAndPan="magnify" viewBox="0 0 428.25 182.249993" height="243" preserveAspectRatio="xMidYMid meet" version="1.0"><defs><g/></defs><g fill="#b7bfc7" fill-opacity="1"><g transform="translate(155.109804, 107.987161)"><g><path d="M 4.175781 0 L 9.90625 0 C 10.15625 0 10.402344 -0.0625 10.652344 -0.3125 C 10.839844 -0.5 10.964844 -0.746094 10.964844 -1.121094 C 10.964844 -1.246094 10.902344 -1.308594 10.902344 -1.433594 L 10.214844 -3.300781 C 10.15625 -3.363281 10.15625 -3.488281 10.15625 -3.613281 L 10.15625 -38.125 C 10.15625 -38.375 10.277344 -38.5625 10.589844 -38.5625 C 10.714844 -38.5625 10.902344 -38.4375 11.027344 -38.3125 L 17.566406 -24.234375 C 17.691406 -23.984375 17.691406 -23.671875 17.628906 -23.425781 L 17.132812 -21.992188 C 17.007812 -21.617188 17.007812 -21.304688 17.257812 -20.996094 C 17.441406 -20.683594 17.753906 -20.558594 18.128906 -20.558594 L 23.796875 -20.558594 C 24.109375 -20.558594 24.359375 -20.621094 24.546875 -20.871094 C 24.730469 -21.054688 24.855469 -21.304688 24.855469 -21.617188 C 24.855469 -21.742188 24.792969 -21.867188 24.792969 -21.992188 L 24.296875 -23.425781 C 24.171875 -23.671875 24.171875 -23.921875 24.296875 -24.234375 L 30.898438 -38.3125 C 30.960938 -38.5 31.148438 -38.5625 31.398438 -38.5625 C 31.648438 -38.5 31.773438 -38.375 31.773438 -38.125 L 31.773438 -3.613281 C 31.773438 -3.488281 31.710938 -3.363281 31.710938 -3.300781 L 31.023438 -1.433594 C 30.898438 -1.058594 30.898438 -0.746094 31.148438 -0.4375 C 31.335938 -0.125 31.648438 0 32.019531 0 L 37.753906 0 C 38 0 38.25 -0.0625 38.5 -0.3125 C 38.6875 -0.5 38.8125 -0.746094 38.8125 -1.121094 C 38.8125 -1.246094 38.75 -1.308594 38.75 -1.433594 L 38.0625 -3.300781 C 38 -3.363281 38 -3.488281 38 -3.613281 L 38 -50.773438 C 38 -50.898438 38 -50.960938 38.0625 -51.082031 L 38.75 -52.953125 C 38.875 -53.265625 38.8125 -53.574219 38.5625 -53.886719 C 38.3125 -54.199219 38.0625 -54.386719 37.753906 -54.386719 L 32.019531 -54.386719 C 31.648438 -54.386719 31.398438 -54.261719 31.210938 -54.074219 C 31.023438 -53.824219 30.960938 -53.574219 30.960938 -53.328125 C 30.960938 -53.140625 30.960938 -53.015625 31.023438 -52.953125 L 31.210938 -52.390625 L 21.367188 -31.273438 C 21.304688 -31.085938 21.179688 -31.023438 20.933594 -31.023438 C 20.683594 -31.023438 20.558594 -31.085938 20.558594 -31.273438 L 10.652344 -52.390625 L 10.902344 -52.953125 C 11.027344 -53.265625 10.964844 -53.574219 10.714844 -53.886719 C 10.464844 -54.199219 10.214844 -54.386719 9.90625 -54.386719 L 4.175781 -54.386719 C 3.800781 -54.386719 3.550781 -54.261719 3.363281 -54.074219 C 3.175781 -53.824219 3.113281 -53.574219 3.113281 -53.328125 C 3.113281 -53.140625 3.113281 -53.015625 3.175781 -52.953125 L 3.863281 -51.082031 C 3.863281 -50.960938 3.863281 -50.898438 3.863281 -50.898438 C 3.863281 -50.835938 3.925781 -50.773438 3.925781 -50.773438 L 3.925781 -3.613281 C 3.925781 -3.550781 3.863281 -3.488281 3.863281 -3.488281 C 3.863281 -3.425781 3.863281 -3.363281 3.863281 -3.300781 L 3.175781 -1.433594 C 3.050781 -1.058594 3.050781 -0.746094 3.300781 -0.4375 C 3.488281 -0.125 3.800781 0 4.175781 0 Z M 4.175781 0 "/></g></g></g><g fill="#b7bfc7" fill-opacity="1"><g transform="translate(197.028607, 107.987161)"><g><path d="M 9.90625 -43.046875 L 13.082031 -43.046875 C 13.332031 -43.046875 13.582031 -43.109375 13.828125 -43.359375 C 14.015625 -43.546875 14.140625 -43.796875 14.140625 -44.105469 L 14.140625 -47.285156 C 14.140625 -47.59375 14.015625 -47.84375 13.828125 -48.03125 C 13.582031 -48.21875 13.332031 -48.34375 13.082031 -48.34375 L 9.90625 -48.34375 C 9.59375 -48.34375 9.34375 -48.21875 9.15625 -48.03125 C 8.910156 -47.84375 8.847656 -47.59375 8.847656 -47.285156 L 8.847656 -44.105469 C 8.847656 -43.796875 8.910156 -43.546875 9.15625 -43.359375 C 9.34375 -43.109375 9.59375 -43.046875 9.90625 -43.046875 Z M 18.316406 -43.046875 L 21.492188 -43.046875 C 21.742188 -43.046875 21.992188 -43.109375 22.238281 -43.359375 C 22.425781 -43.546875 22.550781 -43.796875 22.550781 -44.105469 L 22.550781 -47.285156 C 22.550781 -47.59375 22.425781 -47.84375 22.238281 -48.03125 C 21.992188 -48.21875 21.742188 -48.34375 21.492188 -48.34375 L 18.316406 -48.34375 C 18.003906 -48.34375 17.753906 -48.21875 17.566406 -48.03125 C 17.320312 -47.84375 17.257812 -47.59375 17.257812 -47.285156 L 17.257812 -44.105469 C 17.257812 -43.796875 17.320312 -43.546875 17.566406 -43.359375 C 17.753906 -43.109375 18.003906 -43.046875 18.316406 -43.046875 Z M 2.054688 0 L 7.789062 0 C 8.097656 0 8.410156 -0.125 8.722656 -0.4375 C 9.03125 -0.746094 9.15625 -1.058594 9.15625 -1.433594 L 8.972656 -3.300781 C 8.972656 -3.425781 8.972656 -3.550781 9.03125 -3.613281 C 9.03125 -3.675781 9.15625 -4.296875 9.53125 -5.542969 C 9.84375 -6.789062 10.214844 -8.285156 10.714844 -10.15625 C 10.902344 -10.652344 11.277344 -10.902344 11.773438 -10.902344 L 11.960938 -10.902344 L 20.433594 -9.21875 C 20.808594 -9.09375 21.117188 -8.847656 21.242188 -8.472656 C 21.429688 -7.726562 21.617188 -6.914062 21.867188 -6.105469 C 22.054688 -5.234375 22.300781 -4.421875 22.550781 -3.550781 L 22.550781 -3.300781 L 22.363281 -1.433594 C 22.300781 -1.058594 22.425781 -0.746094 22.738281 -0.4375 C 23.050781 -0.125 23.363281 0 23.734375 0 L 29.464844 0 C 29.964844 0 30.277344 -0.25 30.277344 -0.808594 C 30.277344 -0.996094 30.214844 -1.183594 30.089844 -1.433594 L 28.90625 -3.300781 C 28.78125 -3.425781 28.78125 -3.550781 28.78125 -3.613281 L 20.058594 -36.132812 C 19.996094 -36.257812 19.933594 -36.445312 19.933594 -36.570312 C 19.933594 -36.691406 19.933594 -36.816406 19.933594 -37.003906 C 19.933594 -37.378906 19.996094 -37.875 20.246094 -38.375 L 20.558594 -39.058594 C 20.683594 -39.371094 20.621094 -39.683594 20.371094 -39.996094 C 20.121094 -40.304688 19.75 -40.492188 19.3125 -40.492188 L 12.210938 -40.492188 C 11.835938 -40.492188 11.523438 -40.367188 11.277344 -40.183594 C 11.027344 -39.933594 10.902344 -39.683594 10.902344 -39.433594 C 10.902344 -39.246094 10.902344 -39.121094 10.964844 -39.058594 L 11.277344 -38.375 C 11.460938 -37.875 11.585938 -37.378906 11.585938 -37.003906 C 11.585938 -36.816406 11.523438 -36.691406 11.523438 -36.570312 C 11.523438 -36.445312 11.460938 -36.257812 11.460938 -36.132812 C 10.839844 -33.953125 10.214844 -31.523438 9.53125 -28.84375 C 8.785156 -26.164062 8.035156 -23.363281 7.289062 -20.496094 C 6.480469 -17.628906 5.667969 -14.703125 4.921875 -11.835938 C 4.175781 -8.910156 3.425781 -6.167969 2.742188 -3.613281 C 2.742188 -3.488281 2.679688 -3.363281 2.617188 -3.300781 L 1.433594 -1.433594 C 1.308594 -1.183594 1.246094 -0.996094 1.246094 -0.808594 C 1.246094 -0.25 1.496094 0 2.054688 0 Z M 17.753906 -16.136719 L 17.566406 -16.136719 L 13.707031 -16.882812 C 13.457031 -16.945312 13.207031 -17.070312 13.082031 -17.320312 C 12.957031 -17.503906 12.894531 -17.691406 12.894531 -17.941406 L 12.894531 -18.191406 C 13.207031 -19.375 13.519531 -20.496094 13.828125 -21.554688 C 14.078125 -22.613281 14.328125 -23.546875 14.578125 -24.421875 C 14.828125 -25.355469 15.015625 -26.226562 15.261719 -27.097656 C 15.261719 -27.285156 15.449219 -27.410156 15.761719 -27.410156 C 16.011719 -27.410156 16.199219 -27.285156 16.257812 -27.097656 L 18.8125 -17.441406 C 18.875 -17.070312 18.8125 -16.757812 18.625 -16.507812 C 18.378906 -16.257812 18.128906 -16.136719 17.753906 -16.136719 Z M 17.753906 -16.136719 "/></g></g></g><g fill="#b7bfc7" fill-opacity="1"><g transform="translate(228.545571, 107.987161)"><g><path d="M 3.300781 21.242188 C 6.417969 21.242188 9.40625 20.808594 12.398438 19.8125 C 15.386719 18.8125 18.003906 17.382812 20.371094 15.511719 C 22.738281 13.644531 24.609375 11.277344 26.039062 8.410156 C 27.410156 5.542969 28.160156 2.242188 28.160156 -1.496094 C 28.160156 -4.234375 27.722656 -6.726562 26.976562 -9.03125 C 26.226562 -11.277344 25.230469 -13.332031 24.046875 -15.199219 C 22.863281 -17.070312 21.554688 -18.75 20.183594 -20.246094 C 18.75 -21.742188 17.382812 -22.988281 16.136719 -24.109375 C 14.890625 -25.230469 13.769531 -26.164062 12.769531 -26.976562 C 11.773438 -27.722656 11.089844 -28.40625 10.839844 -28.90625 C 10.464844 -29.464844 10.15625 -29.964844 10.03125 -30.464844 C 9.90625 -30.960938 9.84375 -31.398438 9.84375 -31.773438 C 9.84375 -32.644531 10.09375 -33.265625 10.714844 -33.640625 C 11.339844 -34.015625 11.960938 -34.261719 12.585938 -34.261719 C 13.082031 -34.261719 13.519531 -34.140625 13.890625 -33.890625 C 14.265625 -33.640625 14.515625 -33.328125 14.703125 -32.957031 C 14.890625 -32.582031 15.015625 -32.269531 15.074219 -31.957031 C 15.136719 -31.648438 15.199219 -31.460938 15.199219 -31.335938 L 14.890625 -29.40625 C 14.828125 -29.03125 14.890625 -28.78125 15.136719 -28.53125 C 15.324219 -28.28125 15.574219 -28.160156 15.949219 -28.160156 L 16.199219 -28.222656 L 21.742188 -29.34375 C 21.992188 -29.34375 22.179688 -29.464844 22.363281 -29.714844 C 22.488281 -29.902344 22.613281 -30.152344 22.613281 -30.402344 C 22.613281 -30.527344 22.550781 -30.710938 22.425781 -30.960938 L 21.742188 -31.957031 C 21.617188 -32.207031 21.492188 -32.394531 21.429688 -32.519531 L 21.304688 -32.769531 C 21.304688 -32.769531 21.304688 -32.832031 21.304688 -32.957031 C 20.746094 -35.570312 19.625 -37.441406 18.003906 -38.6875 C 16.320312 -39.871094 14.515625 -40.492188 12.644531 -40.492188 C 11.523438 -40.492188 10.402344 -40.242188 9.28125 -39.871094 C 8.160156 -39.496094 7.226562 -38.9375 6.355469 -38.1875 C 5.480469 -37.441406 4.796875 -36.507812 4.296875 -35.445312 C 3.800781 -34.324219 3.550781 -33.140625 3.550781 -31.773438 C 3.550781 -29.714844 4.050781 -27.847656 5.046875 -26.226562 C 6.042969 -24.609375 7.664062 -22.863281 9.90625 -21.054688 C 14.140625 -18.003906 17.257812 -14.765625 19.125 -11.402344 C 20.996094 -8.035156 21.992188 -4.734375 21.992188 -1.621094 C 21.992188 0.746094 21.492188 2.929688 20.621094 4.921875 C 19.75 6.914062 18.503906 8.722656 16.882812 10.214844 C 15.261719 11.773438 13.394531 12.957031 11.214844 13.828125 C 8.972656 14.703125 6.605469 15.136719 3.988281 15.136719 C 2.054688 15.136719 0 14.890625 -2.242188 14.265625 C -3.613281 13.953125 -4.921875 13.457031 -6.230469 12.832031 C -7.539062 12.210938 -8.722656 11.460938 -9.84375 10.589844 C -10.964844 9.71875 -11.898438 8.660156 -12.644531 7.539062 C -13.394531 6.417969 -13.890625 5.109375 -14.078125 3.738281 C -14.203125 3.175781 -14.515625 2.867188 -15.074219 2.867188 C -15.324219 2.867188 -15.449219 2.929688 -15.574219 2.992188 L -20.621094 5.730469 C -21.054688 5.980469 -21.242188 6.292969 -21.242188 6.664062 C -21.242188 7.039062 -21.117188 7.289062 -20.871094 7.414062 C -20.496094 7.789062 -20.183594 8.097656 -19.933594 8.285156 C -19.6875 8.472656 -19.5625 8.597656 -19.4375 8.660156 L -19.3125 8.847656 L -19.1875 8.910156 C -18.066406 11.027344 -16.695312 12.832031 -15.074219 14.328125 C -13.457031 15.886719 -11.648438 17.195312 -9.65625 18.191406 C -7.664062 19.25 -5.605469 19.996094 -3.363281 20.496094 C -1.183594 20.996094 1.058594 21.242188 3.300781 21.242188 Z M 3.300781 21.242188 "/></g></g></g><g fill="#b7bfc7" fill-opacity="1"><g transform="translate(258.567663, 107.987161)"><g><path d="M 9.78125 0 L 15.511719 0 C 15.824219 0 16.074219 -0.0625 16.257812 -0.3125 C 16.445312 -0.5 16.570312 -0.746094 16.570312 -1.058594 C 16.570312 -1.183594 16.507812 -1.308594 16.507812 -1.433594 L 15.824219 -3.300781 C 15.824219 -3.363281 15.761719 -3.425781 15.761719 -3.488281 C 15.761719 -3.488281 15.761719 -3.550781 15.761719 -3.613281 L 15.761719 -45.164062 C 15.761719 -45.414062 15.824219 -45.664062 16.011719 -45.851562 C 16.199219 -46.039062 16.445312 -46.164062 16.695312 -46.226562 C 19.871094 -46.597656 22.738281 -47.65625 25.292969 -49.339844 C 27.785156 -51.023438 29.839844 -53.140625 31.398438 -55.632812 L 32.707031 -57.8125 C 32.769531 -57.9375 32.832031 -58.125 32.832031 -58.371094 C 32.832031 -58.746094 32.644531 -58.996094 32.332031 -59.246094 L 28.097656 -61.863281 C 27.972656 -61.921875 27.785156 -61.984375 27.597656 -61.984375 C 26.976562 -61.984375 26.664062 -61.675781 26.601562 -61.175781 C 26.476562 -60.925781 26.414062 -60.554688 26.414062 -60.179688 C 26.351562 -59.742188 26.164062 -59.246094 25.914062 -58.683594 C 25.605469 -58.125 25.167969 -57.5 24.546875 -56.816406 C 23.921875 -56.128906 23.050781 -55.382812 21.929688 -54.636719 C 20.621094 -53.761719 19.3125 -53.140625 18.003906 -52.765625 C 16.695312 -52.390625 15.386719 -52.265625 14.078125 -52.265625 C 11.773438 -52.265625 9.40625 -52.640625 7.039062 -53.511719 C 4.671875 -54.324219 2.242188 -55.195312 -0.25 -56.191406 C -2.742188 -57.1875 -5.234375 -58.0625 -7.789062 -58.933594 C -10.402344 -59.742188 -13.019531 -60.179688 -15.699219 -60.179688 C -18.066406 -60.179688 -20.433594 -59.742188 -22.738281 -58.933594 C -24.234375 -58.371094 -25.417969 -57.75 -26.414062 -57.0625 C -27.410156 -56.378906 -28.222656 -55.695312 -28.84375 -54.945312 C -29.527344 -54.199219 -30.089844 -53.511719 -30.527344 -52.828125 C -31.023438 -52.082031 -31.398438 -51.457031 -31.773438 -50.898438 C -31.894531 -50.648438 -31.957031 -50.460938 -31.957031 -50.335938 C -31.957031 -49.960938 -31.835938 -49.652344 -31.460938 -49.402344 L -27.222656 -46.785156 C -27.097656 -46.660156 -26.914062 -46.597656 -26.664062 -46.597656 C -26.164062 -46.597656 -25.851562 -46.847656 -25.730469 -47.410156 C -25.730469 -47.65625 -25.667969 -47.96875 -25.542969 -48.46875 C -25.480469 -48.902344 -25.292969 -49.402344 -24.980469 -49.960938 C -24.667969 -50.460938 -24.171875 -51.023438 -23.484375 -51.582031 C -22.863281 -52.082031 -21.867188 -52.578125 -20.621094 -53.078125 C -19.0625 -53.636719 -17.382812 -53.949219 -15.636719 -53.949219 C -13.769531 -53.949219 -11.835938 -53.636719 -9.84375 -53.078125 C -7.847656 -52.453125 -5.855469 -51.769531 -3.800781 -50.960938 C -1.804688 -50.148438 0.25 -49.339844 2.367188 -48.53125 C 4.421875 -47.71875 6.542969 -47.097656 8.722656 -46.660156 C 9.21875 -46.535156 9.53125 -46.164062 9.53125 -45.601562 L 9.53125 -3.613281 C 9.53125 -3.488281 9.46875 -3.363281 9.46875 -3.300781 L 8.785156 -1.433594 C 8.660156 -1.058594 8.660156 -0.746094 8.910156 -0.4375 C 9.15625 -0.125 9.40625 0 9.78125 0 Z M 9.78125 0 "/></g></g></g><g fill="#b7bfc7" fill-opacity="1"><g transform="translate(283.918265, 107.987161)"><g><path d="M 2.054688 -8.597656 L 7.789062 -8.597656 C 8.097656 -8.597656 8.410156 -8.722656 8.722656 -9.03125 C 9.03125 -9.28125 9.15625 -9.59375 9.15625 -9.96875 L 8.972656 -11.835938 C 8.972656 -11.960938 8.972656 -12.085938 9.03125 -12.210938 C 9.03125 -12.210938 9.09375 -12.523438 9.21875 -13.082031 C 9.34375 -13.644531 9.59375 -14.390625 9.84375 -15.324219 C 9.90625 -15.574219 10.03125 -15.761719 10.277344 -15.886719 C 10.464844 -16.011719 10.714844 -16.136719 10.964844 -16.136719 L 11.089844 -16.136719 L 16.570312 -15.074219 C 16.945312 -14.953125 17.257812 -14.703125 17.382812 -14.328125 L 17.941406 -12.148438 C 17.941406 -12.023438 17.941406 -11.960938 17.941406 -11.960938 C 17.941406 -11.960938 17.941406 -11.898438 17.941406 -11.835938 L 17.816406 -9.96875 C 17.753906 -9.59375 17.878906 -9.28125 18.191406 -9.03125 C 18.441406 -8.722656 18.8125 -8.597656 19.1875 -8.597656 L 24.855469 -8.597656 C 25.355469 -8.597656 25.667969 -8.847656 25.667969 -9.34375 C 25.667969 -9.53125 25.605469 -9.71875 25.480469 -9.96875 L 24.296875 -11.835938 C 24.171875 -11.960938 24.171875 -12.085938 24.171875 -12.210938 L 17.753906 -36.132812 C 17.691406 -36.257812 17.628906 -36.445312 17.628906 -36.570312 C 17.628906 -36.691406 17.628906 -36.816406 17.628906 -37.003906 C 17.628906 -37.378906 17.691406 -37.875 17.941406 -38.375 L 18.253906 -39.058594 C 18.378906 -39.371094 18.316406 -39.683594 18.066406 -39.996094 C 17.816406 -40.304688 17.441406 -40.492188 17.007812 -40.492188 L 9.90625 -40.492188 C 9.53125 -40.492188 9.21875 -40.367188 8.972656 -40.183594 C 8.722656 -39.933594 8.597656 -39.683594 8.597656 -39.433594 C 8.597656 -39.246094 8.597656 -39.121094 8.660156 -39.058594 L 9.03125 -38.375 C 9.15625 -38 9.28125 -37.566406 9.28125 -37.066406 C 9.28125 -36.632812 9.21875 -36.320312 9.15625 -36.132812 C 7.910156 -31.523438 6.851562 -27.722656 6.105469 -24.855469 C 5.359375 -21.929688 4.734375 -19.625 4.296875 -18.003906 C 3.800781 -16.320312 3.488281 -15.136719 3.300781 -14.453125 C 3.113281 -13.707031 2.992188 -13.269531 2.929688 -13.019531 C 2.867188 -12.769531 2.867188 -12.644531 2.867188 -12.644531 C 2.867188 -12.644531 2.804688 -12.460938 2.742188 -12.210938 C 2.742188 -12.085938 2.679688 -11.960938 2.617188 -11.835938 L 1.433594 -9.96875 C 1.308594 -9.71875 1.246094 -9.53125 1.246094 -9.34375 C 1.246094 -8.847656 1.496094 -8.597656 2.054688 -8.597656 Z M 13.953125 -21.929688 L 13.769531 -21.929688 L 12.832031 -22.117188 C 12.210938 -22.238281 11.960938 -22.550781 11.960938 -23.113281 C 11.960938 -23.238281 11.960938 -23.300781 12.023438 -23.425781 C 12.273438 -24.421875 12.523438 -25.292969 12.707031 -25.976562 C 12.832031 -26.664062 12.957031 -27.035156 12.957031 -27.097656 C 13.019531 -27.285156 13.207031 -27.410156 13.457031 -27.410156 C 13.707031 -27.410156 13.890625 -27.285156 13.953125 -27.097656 L 14.953125 -23.238281 C 15.074219 -22.863281 15.015625 -22.550781 14.765625 -22.300781 C 14.515625 -22.054688 14.265625 -21.929688 13.953125 -21.929688 Z M 2.304688 0 L 24.609375 0 C 24.917969 0 25.167969 -0.0625 25.355469 -0.3125 C 25.542969 -0.5 25.667969 -0.746094 25.667969 -1.058594 L 25.667969 -3.800781 C 25.667969 -4.050781 25.542969 -4.296875 25.355469 -4.546875 C 25.167969 -4.734375 24.917969 -4.859375 24.609375 -4.859375 L 2.304688 -4.859375 C 1.992188 -4.859375 1.746094 -4.734375 1.558594 -4.546875 C 1.308594 -4.296875 1.246094 -4.050781 1.246094 -3.800781 L 1.246094 -1.058594 C 1.246094 -0.746094 1.308594 -0.5 1.558594 -0.3125 C 1.746094 -0.0625 1.992188 0 2.304688 0 Z M 2.304688 0 "/></g></g></g><g fill="#b7bfc7" fill-opacity="1"><g transform="translate(310.826035, 107.987161)"><g><path d="M 22.425781 7.039062 L 28.097656 7.039062 C 28.53125 7.039062 28.78125 6.851562 28.78125 6.417969 C 28.78125 6.105469 28.65625 5.855469 28.46875 5.605469 L 26.914062 3.738281 L 26.664062 3.363281 L 23.859375 -2.804688 C 23.050781 -4.546875 22.238281 -6.292969 21.367188 -8.160156 C 20.496094 -9.96875 19.75 -11.523438 19.1875 -12.894531 C 18.875 -13.457031 19 -13.890625 19.5625 -14.203125 C 20.558594 -14.828125 21.429688 -15.699219 22.179688 -16.695312 C 22.925781 -17.691406 23.546875 -18.6875 24.046875 -19.8125 C 24.546875 -20.933594 24.980469 -22.054688 25.230469 -23.175781 C 25.480469 -24.296875 25.605469 -25.292969 25.605469 -26.226562 C 25.605469 -27.972656 25.230469 -29.714844 24.609375 -31.460938 C 23.984375 -33.203125 22.988281 -34.699219 21.742188 -36.070312 C 20.496094 -37.378906 18.875 -38.4375 16.945312 -39.246094 C 15.015625 -40.058594 12.769531 -40.492188 10.214844 -40.492188 L 4.175781 -40.492188 C 3.863281 -40.492188 3.613281 -40.367188 3.425781 -40.183594 C 3.175781 -39.933594 3.113281 -39.683594 3.113281 -39.371094 C 3.113281 -39.246094 3.113281 -39.121094 3.175781 -39.058594 L 3.863281 -37.191406 C 3.863281 -37.066406 3.925781 -37.003906 3.925781 -36.878906 L 3.925781 -3.613281 C 3.925781 -3.488281 3.863281 -3.363281 3.863281 -3.300781 L 3.175781 -1.433594 C 3.050781 -1.058594 3.050781 -0.746094 3.300781 -0.4375 C 3.550781 -0.125 3.800781 0 4.175781 0 L 9.90625 0 C 10.214844 0 10.464844 -0.0625 10.652344 -0.3125 C 10.839844 -0.5 10.964844 -0.746094 10.964844 -1.058594 C 10.964844 -1.183594 10.902344 -1.308594 10.902344 -1.433594 L 10.214844 -3.300781 C 10.214844 -3.363281 10.15625 -3.425781 10.15625 -3.488281 C 10.15625 -3.488281 10.15625 -3.550781 10.15625 -3.613281 L 10.15625 -10.964844 C 10.15625 -11.214844 10.214844 -11.460938 10.464844 -11.710938 C 10.652344 -11.898438 10.902344 -12.023438 11.214844 -12.023438 C 11.402344 -12.023438 11.585938 -12.023438 11.835938 -12.023438 C 12.085938 -12.023438 12.273438 -12.085938 12.523438 -12.085938 C 13.019531 -12.148438 13.332031 -11.960938 13.582031 -11.523438 L 20.433594 3.363281 C 20.496094 3.550781 20.558594 3.675781 20.558594 3.738281 L 20.746094 5.605469 C 20.746094 5.980469 20.933594 6.292969 21.304688 6.605469 C 21.679688 6.914062 22.054688 7.039062 22.425781 7.039062 Z M 11.277344 -18.253906 C 10.902344 -18.253906 10.652344 -18.316406 10.464844 -18.503906 C 10.214844 -18.6875 10.15625 -18.9375 10.15625 -19.3125 L 10.15625 -33.203125 C 10.15625 -33.453125 10.214844 -33.703125 10.464844 -33.953125 C 10.652344 -34.140625 10.902344 -34.261719 11.277344 -34.261719 C 12.644531 -34.140625 13.890625 -33.828125 14.953125 -33.265625 C 15.949219 -32.644531 16.820312 -31.957031 17.441406 -31.148438 C 18.066406 -30.339844 18.566406 -29.527344 18.875 -28.65625 C 19.1875 -27.785156 19.375 -26.976562 19.375 -26.351562 C 19.375 -25.667969 19.1875 -24.855469 18.9375 -23.984375 C 18.625 -23.050781 18.128906 -22.179688 17.503906 -21.367188 C 16.882812 -20.496094 16.011719 -19.8125 15.015625 -19.1875 C 14.015625 -18.566406 12.769531 -18.253906 11.277344 -18.253906 Z M 11.277344 -18.253906 "/></g></g></g><g fill="#b7bfc7" fill-opacity="1"><g transform="translate(341.470986, 107.987161)"><g><path d="M 4.175781 0 L 9.90625 0 C 10.15625 0 10.402344 -0.0625 10.652344 -0.3125 C 10.839844 -0.5 10.964844 -0.746094 10.964844 -1.121094 C 10.964844 -1.246094 10.902344 -1.308594 10.902344 -1.433594 L 10.214844 -3.300781 C 10.15625 -3.363281 10.15625 -3.488281 10.15625 -3.613281 L 10.15625 -24.234375 C 10.15625 -24.484375 10.277344 -24.667969 10.589844 -24.667969 C 10.714844 -24.667969 10.902344 -24.546875 11.027344 -24.421875 L 21.554688 -1.992188 L 21.367188 -1.433594 C 21.242188 -1.058594 21.242188 -0.746094 21.492188 -0.4375 C 21.679688 -0.125 21.992188 0 22.363281 0 L 28.035156 0 C 28.34375 0 28.59375 -0.0625 28.78125 -0.3125 C 28.96875 -0.5 29.09375 -0.746094 29.09375 -1.058594 C 29.09375 -1.183594 29.03125 -1.308594 29.03125 -1.433594 L 28.34375 -3.300781 C 28.34375 -3.363281 28.28125 -3.425781 28.28125 -3.488281 C 28.28125 -3.488281 28.28125 -3.550781 28.28125 -3.613281 L 28.28125 -50.773438 C 28.28125 -50.773438 28.28125 -50.835938 28.28125 -50.898438 C 28.28125 -50.898438 28.34375 -50.960938 28.34375 -51.082031 L 29.03125 -52.953125 C 29.15625 -53.265625 29.09375 -53.574219 28.90625 -53.886719 C 28.65625 -54.199219 28.40625 -54.386719 28.035156 -54.386719 L 22.363281 -54.386719 C 21.992188 -54.386719 21.742188 -54.261719 21.554688 -54.074219 C 21.367188 -53.824219 21.304688 -53.574219 21.304688 -53.328125 C 21.304688 -53.140625 21.304688 -53.015625 21.367188 -52.953125 L 21.992188 -51.082031 C 21.992188 -50.960938 22.054688 -50.898438 22.054688 -50.773438 L 22.054688 -16.257812 C 22.054688 -15.949219 21.867188 -15.824219 21.617188 -15.824219 C 21.429688 -15.824219 21.304688 -15.886719 21.179688 -16.074219 C 19.8125 -18.9375 18.75 -21.242188 17.941406 -22.988281 C 17.070312 -24.730469 16.445312 -26.164062 16.011719 -27.160156 C 15.511719 -28.160156 15.199219 -28.84375 15.015625 -29.28125 L 14.515625 -30.214844 C 14.390625 -30.402344 14.328125 -30.589844 14.265625 -30.773438 C 14.140625 -30.960938 14.015625 -31.335938 13.769531 -31.835938 C 13.519531 -32.332031 13.144531 -33.078125 12.644531 -34.078125 C 12.148438 -35.074219 11.523438 -36.570312 10.652344 -38.5 L 10.902344 -39.058594 C 11.027344 -39.371094 10.964844 -39.683594 10.714844 -39.996094 C 10.464844 -40.304688 10.214844 -40.492188 9.90625 -40.492188 L 4.175781 -40.492188 C 3.800781 -40.492188 3.550781 -40.367188 3.363281 -40.183594 C 3.175781 -39.933594 3.113281 -39.683594 3.113281 -39.433594 C 3.113281 -39.246094 3.113281 -39.121094 3.175781 -39.058594 L 3.863281 -37.191406 C 3.863281 -37.066406 3.863281 -37.003906 3.863281 -37.003906 C 3.863281 -36.941406 3.925781 -36.878906 3.925781 -36.878906 L 3.925781 -3.613281 C 3.925781 -3.550781 3.863281 -3.488281 3.863281 -3.488281 C 3.863281 -3.425781 3.863281 -3.363281 3.863281 -3.300781 L 3.175781 -1.433594 C 3.050781 -1.058594 3.050781 -0.746094 3.300781 -0.4375 C 3.488281 -0.125 3.800781 0 4.175781 0 Z M 4.175781 0 "/></g></g></g><g fill="#b7bfc7" fill-opacity="1"><g transform="translate(373.673104, 107.987161)"><g><path d="M 2.054688 -8.597656 L 7.789062 -8.597656 C 8.097656 -8.597656 8.410156 -8.722656 8.722656 -9.03125 C 9.03125 -9.28125 9.15625 -9.59375 9.15625 -9.96875 L 8.972656 -11.835938 C 8.972656 -11.960938 8.972656 -12.085938 9.03125 -12.210938 C 9.03125 -12.210938 9.09375 -12.523438 9.21875 -13.082031 C 9.34375 -13.644531 9.59375 -14.390625 9.84375 -15.324219 C 9.90625 -15.574219 10.03125 -15.761719 10.277344 -15.886719 C 10.464844 -16.011719 10.714844 -16.136719 10.964844 -16.136719 L 11.089844 -16.136719 L 16.570312 -15.074219 C 16.945312 -14.953125 17.257812 -14.703125 17.382812 -14.328125 L 17.941406 -12.148438 C 17.941406 -12.023438 17.941406 -11.960938 17.941406 -11.960938 C 17.941406 -11.960938 17.941406 -11.898438 17.941406 -11.835938 L 17.816406 -9.96875 C 17.753906 -9.59375 17.878906 -9.28125 18.191406 -9.03125 C 18.441406 -8.722656 18.8125 -8.597656 19.1875 -8.597656 L 24.855469 -8.597656 C 25.355469 -8.597656 25.667969 -8.847656 25.667969 -9.34375 C 25.667969 -9.53125 25.605469 -9.71875 25.480469 -9.96875 L 24.296875 -11.835938 C 24.171875 -11.960938 24.171875 -12.085938 24.171875 -12.210938 L 17.753906 -36.132812 C 17.691406 -36.257812 17.628906 -36.445312 17.628906 -36.570312 C 17.628906 -36.691406 17.628906 -36.816406 17.628906 -37.003906 C 17.628906 -37.378906 17.691406 -37.875 17.941406 -38.375 L 18.253906 -39.058594 C 18.378906 -39.371094 18.316406 -39.683594 18.066406 -39.996094 C 17.816406 -40.304688 17.441406 -40.492188 17.007812 -40.492188 L 9.90625 -40.492188 C 9.53125 -40.492188 9.21875 -40.367188 8.972656 -40.183594 C 8.722656 -39.933594 8.597656 -39.683594 8.597656 -39.433594 C 8.597656 -39.246094 8.597656 -39.121094 8.660156 -39.058594 L 9.03125 -38.375 C 9.15625 -38 9.28125 -37.566406 9.28125 -37.066406 C 9.28125 -36.632812 9.21875 -36.320312 9.15625 -36.132812 C 7.910156 -31.523438 6.851562 -27.722656 6.105469 -24.855469 C 5.359375 -21.929688 4.734375 -19.625 4.296875 -18.003906 C 3.800781 -16.320312 3.488281 -15.136719 3.300781 -14.453125 C 3.113281 -13.707031 2.992188 -13.269531 2.929688 -13.019531 C 2.867188 -12.769531 2.867188 -12.644531 2.867188 -12.644531 C 2.867188 -12.644531 2.804688 -12.460938 2.742188 -12.210938 C 2.742188 -12.085938 2.679688 -11.960938 2.617188 -11.835938 L 1.433594 -9.96875 C 1.308594 -9.71875 1.246094 -9.53125 1.246094 -9.34375 C 1.246094 -8.847656 1.496094 -8.597656 2.054688 -8.597656 Z M 13.953125 -21.929688 L 13.769531 -21.929688 L 12.832031 -22.117188 C 12.210938 -22.238281 11.960938 -22.550781 11.960938 -23.113281 C 11.960938 -23.238281 11.960938 -23.300781 12.023438 -23.425781 C 12.273438 -24.421875 12.523438 -25.292969 12.707031 -25.976562 C 12.832031 -26.664062 12.957031 -27.035156 12.957031 -27.097656 C 13.019531 -27.285156 13.207031 -27.410156 13.457031 -27.410156 C 13.707031 -27.410156 13.890625 -27.285156 13.953125 -27.097656 L 14.953125 -23.238281 C 15.074219 -22.863281 15.015625 -22.550781 14.765625 -22.300781 C 14.515625 -22.054688 14.265625 -21.929688 13.953125 -21.929688 Z M 2.304688 0 L 24.609375 0 C 24.917969 0 25.167969 -0.0625 25.355469 -0.3125 C 25.542969 -0.5 25.667969 -0.746094 25.667969 -1.058594 L 25.667969 -3.800781 C 25.667969 -4.050781 25.542969 -4.296875 25.355469 -4.546875 C 25.167969 -4.734375 24.917969 -4.859375 24.609375 -4.859375 L 2.304688 -4.859375 C 1.992188 -4.859375 1.746094 -4.734375 1.558594 -4.546875 C 1.308594 -4.296875 1.246094 -4.050781 1.246094 -3.800781 L 1.246094 -1.058594 C 1.246094 -0.746094 1.308594 -0.5 1.558594 -0.3125 C 1.746094 -0.0625 1.992188 0 2.304688 0 Z M 2.304688 0 "/></g></g></g><g fill="#b7bfc7" fill-opacity="1"><g transform="translate(32.621932, 124.172231)"><g><path d="M 40.9375 0 C 43.472656 0 46.003906 -0.195312 48.441406 -0.78125 C 50.78125 -1.363281 53.121094 -2.144531 55.460938 -3.214844 C 55.851562 -3.410156 56.335938 -3.410156 56.726562 -3.214844 C 57.214844 -3.023438 57.703125 -3.117188 58.1875 -3.507812 C 58.578125 -3.800781 58.871094 -4.289062 58.871094 -4.875 L 58.871094 -13.644531 C 58.871094 -14.132812 58.675781 -14.523438 58.382812 -14.816406 C 57.996094 -15.109375 57.605469 -15.304688 57.214844 -15.304688 C 56.824219 -15.304688 56.433594 -15.109375 56.238281 -14.914062 C 56.046875 -14.816406 55.753906 -14.621094 55.558594 -14.425781 C 53.414062 -12.867188 51.074219 -11.695312 48.636719 -10.917969 C 46.199219 -10.136719 43.667969 -9.746094 40.9375 -9.746094 C 37.039062 -9.746094 33.335938 -10.527344 30.019531 -12.28125 C 26.707031 -14.035156 23.78125 -16.375 21.347656 -19.300781 C 18.910156 -22.222656 17.058594 -25.730469 15.691406 -29.726562 C 14.328125 -33.628906 13.644531 -37.914062 13.644531 -42.398438 L 13.644531 -42.59375 C 13.644531 -47.078125 14.328125 -51.269531 15.691406 -55.265625 C 17.058594 -59.261719 18.910156 -62.769531 21.347656 -65.695312 C 23.78125 -68.617188 26.707031 -70.957031 30.019531 -72.710938 C 33.335938 -74.46875 37.039062 -75.34375 40.9375 -75.34375 C 43.667969 -75.34375 46.199219 -74.855469 48.636719 -74.078125 C 51.074219 -73.296875 53.414062 -72.128906 55.558594 -70.664062 C 55.753906 -70.375 56.046875 -70.179688 56.238281 -70.179688 C 56.433594 -69.886719 56.824219 -69.789062 57.214844 -69.789062 C 57.605469 -69.789062 57.996094 -69.886719 58.382812 -70.179688 C 58.675781 -70.46875 58.871094 -70.859375 58.871094 -71.445312 L 58.871094 -80.21875 C 58.871094 -80.703125 58.675781 -81.09375 58.382812 -81.484375 C 57.996094 -81.777344 57.605469 -81.972656 57.214844 -81.972656 C 57.019531 -81.972656 56.921875 -81.875 56.921875 -81.875 C 56.921875 -81.875 56.824219 -81.875 56.726562 -81.875 C 56.335938 -81.679688 55.851562 -81.679688 55.460938 -81.875 C 53.121094 -82.847656 50.78125 -83.628906 48.441406 -84.214844 C 46.003906 -84.796875 43.472656 -85.089844 40.9375 -85.089844 C 35.675781 -85.089844 30.800781 -83.921875 26.21875 -81.777344 C 21.539062 -79.535156 17.542969 -76.515625 14.132812 -72.710938 C 10.625 -68.8125 7.894531 -64.328125 5.945312 -59.164062 C 3.898438 -54 2.925781 -48.441406 2.925781 -42.59375 L 2.925781 -42.398438 C 2.925781 -36.453125 3.898438 -30.898438 5.945312 -25.730469 C 7.894531 -20.566406 10.625 -16.082031 14.132812 -12.28125 C 17.542969 -8.480469 21.539062 -5.457031 26.21875 -3.3125 C 30.800781 -1.070312 35.675781 0 40.9375 0 Z M 40.9375 0 "/></g></g></g><g fill="#b7bfc7" fill-opacity="1"><g transform="translate(94.406851, 124.172231)"><g><path d="M 24.953125 0 L 38.011719 0 C 38.597656 0 39.085938 -0.0976562 39.476562 -0.488281 C 39.863281 -0.78125 40.058594 -1.167969 40.058594 -1.65625 C 40.058594 -1.851562 39.960938 -2.046875 39.960938 -2.242188 L 39.378906 -3.3125 C 39.085938 -3.898438 38.988281 -4.582031 38.988281 -5.359375 C 38.988281 -5.945312 38.988281 -6.433594 39.183594 -6.824219 C 40.15625 -10.722656 41.328125 -15.109375 42.691406 -20.175781 C 44.054688 -25.148438 45.421875 -30.3125 46.882812 -35.578125 C 48.246094 -40.839844 49.710938 -46.003906 51.074219 -51.074219 C 52.4375 -56.140625 53.609375 -60.820312 54.679688 -64.914062 C 55.753906 -69.007812 56.628906 -72.324219 57.410156 -74.953125 C 58.09375 -77.585938 58.480469 -79.046875 58.578125 -79.4375 C 58.578125 -79.4375 58.675781 -79.535156 58.675781 -79.632812 C 58.675781 -79.632812 58.675781 -79.730469 58.871094 -79.925781 L 60.625 -82.847656 C 60.820312 -83.042969 60.917969 -83.433594 60.917969 -83.824219 C 60.917969 -84.605469 60.527344 -85.089844 59.75 -85.089844 L 49.808594 -85.089844 C 49.222656 -85.089844 48.636719 -84.796875 48.246094 -84.3125 C 47.761719 -83.824219 47.566406 -83.335938 47.664062 -82.847656 L 47.953125 -79.925781 C 47.953125 -79.632812 47.859375 -79.4375 47.859375 -79.4375 L 32.261719 -20.957031 C 32.066406 -20.566406 31.871094 -20.46875 31.484375 -20.46875 C 31.09375 -20.46875 30.800781 -20.566406 30.703125 -20.957031 C 30.703125 -21.054688 30.410156 -21.929688 30.019531 -23.683594 C 29.535156 -25.441406 28.949219 -27.679688 28.167969 -30.410156 C 27.390625 -33.140625 26.609375 -36.160156 25.730469 -39.671875 C 24.757812 -43.082031 23.878906 -46.589844 22.90625 -50.195312 C 21.929688 -53.804688 20.957031 -57.3125 20.078125 -60.820312 C 19.105469 -64.234375 18.324219 -67.351562 17.542969 -70.082031 C 16.765625 -72.808594 16.179688 -74.953125 15.789062 -76.707031 C 15.304688 -78.367188 15.109375 -79.242188 15.109375 -79.4375 C 15.011719 -79.4375 15.011719 -79.632812 15.011719 -79.925781 L 15.304688 -82.847656 C 15.304688 -83.335938 15.109375 -83.824219 14.621094 -84.3125 C 14.132812 -84.796875 13.644531 -85.089844 13.160156 -85.089844 L 3.214844 -85.089844 C 2.339844 -85.089844 1.949219 -84.605469 1.949219 -83.824219 C 1.949219 -83.433594 2.046875 -83.042969 2.242188 -82.847656 L 4.09375 -79.925781 C 4.191406 -79.632812 4.289062 -79.4375 4.386719 -79.4375 C 4.386719 -79.046875 4.777344 -77.585938 5.554688 -74.953125 C 6.238281 -72.324219 7.117188 -69.007812 8.1875 -64.914062 C 9.257812 -60.820312 10.527344 -56.140625 11.890625 -51.074219 C 13.257812 -46.003906 14.621094 -40.839844 16.082031 -35.578125 C 17.445312 -30.3125 18.8125 -25.148438 20.175781 -20.175781 C 21.539062 -15.109375 22.710938 -10.722656 23.78125 -6.824219 C 23.878906 -6.238281 23.976562 -5.847656 23.976562 -5.554688 C 23.976562 -4.875 23.78125 -4.09375 23.488281 -3.3125 L 23.003906 -2.242188 C 22.710938 -1.65625 22.808594 -1.167969 23.199219 -0.683594 C 23.585938 -0.195312 24.171875 0 24.953125 0 Z M 24.953125 0 "/></g></g></g></svg>