<svg xmlns="http://www.w3.org/2000/svg" xmlns:xlink="http://www.w3.org/1999/xlink" width="384" zoomAndPan="magnify" viewBox="0 0 288 214.499994" height="286" preserveAspectRatio="xMidYMid meet" version="1.0"><defs><clipPath id="4556dac90c"><path d="M 7 0.113281 L 282 0.113281 L 282 192 L 7 192 Z M 7 0.113281 " clip-rule="nonzero"/></clipPath><clipPath id="697bff88e8"><path d="M 72 60 L 156 60 L 156 161 L 72 161 Z M 72 60 " clip-rule="nonzero"/></clipPath><clipPath id="665a27f389"><path d="M 65.222656 144.519531 L 131.738281 54.113281 L 162.796875 76.960938 L 96.28125 167.367188 Z M 65.222656 144.519531 " clip-rule="nonzero"/></clipPath><clipPath id="be64591d85"><path d="M 75.421875 130.65625 L 121.539062 67.972656 C 124.246094 64.296875 128.300781 61.847656 132.8125 61.160156 C 137.324219 60.472656 141.925781 61.605469 145.601562 64.3125 L 148.933594 66.761719 C 152.609375 69.46875 155.0625 73.523438 155.75 78.035156 C 156.433594 82.546875 155.300781 87.148438 152.597656 90.824219 L 106.480469 153.503906 C 103.773438 157.183594 99.71875 159.632812 95.207031 160.320312 C 90.695312 161.007812 86.09375 159.875 82.417969 157.167969 L 79.085938 154.71875 C 75.410156 152.011719 72.957031 147.957031 72.273438 143.445312 C 71.585938 138.933594 72.71875 134.332031 75.421875 130.65625 Z M 75.421875 130.65625 " clip-rule="nonzero"/></clipPath><clipPath id="34191b5119"><path d="M 145.503906 158.296875 L 152.65625 158.296875 L 152.65625 199.40625 L 145.503906 199.40625 Z M 145.503906 158.296875 " clip-rule="nonzero"/></clipPath><clipPath id="663166d430"><path d="M 149.082031 158.296875 C 151.054688 158.296875 152.65625 159.898438 152.65625 161.875 L 152.65625 195.832031 C 152.65625 197.804688 151.054688 199.40625 149.082031 199.40625 C 147.105469 199.40625 145.503906 197.804688 145.503906 195.832031 L 145.503906 161.875 C 145.503906 159.898438 147.105469 158.296875 149.082031 158.296875 Z M 149.082031 158.296875 " clip-rule="nonzero"/></clipPath><clipPath id="485e00f063"><path d="M 157.460938 158.976562 L 164.613281 158.976562 L 164.613281 184.515625 L 157.460938 184.515625 Z M 157.460938 158.976562 " clip-rule="nonzero"/></clipPath><clipPath id="3d57c6f55f"><path d="M 161.035156 158.976562 C 163.011719 158.976562 164.613281 160.578125 164.613281 162.550781 L 164.613281 180.9375 C 164.613281 182.914062 163.011719 184.515625 161.035156 184.515625 C 159.0625 184.515625 157.460938 182.914062 157.460938 180.9375 L 157.460938 162.550781 C 157.460938 160.578125 159.0625 158.976562 161.035156 158.976562 Z M 161.035156 158.976562 " clip-rule="nonzero"/></clipPath><clipPath id="90c38b014c"><path d="M 133.164062 158.976562 L 140.316406 158.976562 L 140.316406 184.515625 L 133.164062 184.515625 Z M 133.164062 158.976562 " clip-rule="nonzero"/></clipPath><clipPath id="ac75375072"><path d="M 136.738281 158.976562 C 138.714844 158.976562 140.316406 160.578125 140.316406 162.550781 L 140.316406 180.9375 C 140.316406 182.914062 138.714844 184.515625 136.738281 184.515625 C 134.765625 184.515625 133.164062 182.914062 133.164062 180.9375 L 133.164062 162.550781 C 133.164062 160.578125 134.765625 158.976562 136.738281 158.976562 Z M 136.738281 158.976562 " clip-rule="nonzero"/></clipPath><clipPath id="08de2b0827"><path d="M 92 90.804688 L 124.746094 90.804688 L 124.746094 154.277344 L 92 154.277344 Z M 92 90.804688 " clip-rule="nonzero"/></clipPath><clipPath id="cb37eea06d"><path d="M 94.992188 90.804688 L 121.75 90.804688 C 123.40625 90.804688 124.746094 92.144531 124.746094 93.796875 L 124.746094 151.28125 C 124.746094 152.9375 123.40625 154.277344 121.75 154.277344 L 94.992188 154.277344 C 93.339844 154.277344 92 152.9375 92 151.28125 L 92 93.796875 C 92 92.144531 93.339844 90.804688 94.992188 90.804688 Z M 94.992188 90.804688 " clip-rule="nonzero"/></clipPath><clipPath id="c6d2e43e46"><path d="M 105.707031 158.296875 L 111.039062 158.296875 L 111.039062 188.9375 L 105.707031 188.9375 Z M 105.707031 158.296875 " clip-rule="nonzero"/></clipPath><clipPath id="314f29399f"><path d="M 108.371094 158.296875 C 109.84375 158.296875 111.039062 159.492188 111.039062 160.960938 L 111.039062 186.273438 C 111.039062 187.746094 109.84375 188.9375 108.371094 188.9375 C 106.898438 188.9375 105.707031 187.746094 105.707031 186.273438 L 105.707031 160.960938 C 105.707031 159.492188 106.898438 158.296875 108.371094 158.296875 Z M 108.371094 158.296875 " clip-rule="nonzero"/></clipPath><clipPath id="fe7e586bae"><path d="M 114.617188 158.296875 L 119.949219 158.296875 L 119.949219 177.332031 L 114.617188 177.332031 Z M 114.617188 158.296875 " clip-rule="nonzero"/></clipPath><clipPath id="5ebf0bc54b"><path d="M 117.285156 158.296875 C 118.753906 158.296875 119.949219 159.492188 119.949219 160.960938 L 119.949219 174.667969 C 119.949219 176.140625 118.753906 177.332031 117.285156 177.332031 C 115.8125 177.332031 114.617188 176.140625 114.617188 174.667969 L 114.617188 160.960938 C 114.617188 159.492188 115.8125 158.296875 117.285156 158.296875 Z M 117.285156 158.296875 " clip-rule="nonzero"/></clipPath><clipPath id="9195a4e878"><path d="M 96.507812 158.296875 L 101.835938 158.296875 L 101.835938 177.332031 L 96.507812 177.332031 Z M 96.507812 158.296875 " clip-rule="nonzero"/></clipPath><clipPath id="ba258d973d"><path d="M 99.171875 158.296875 C 100.644531 158.296875 101.835938 159.492188 101.835938 160.960938 L 101.835938 174.667969 C 101.835938 176.140625 100.644531 177.332031 99.171875 177.332031 C 97.699219 177.332031 96.507812 176.140625 96.507812 174.667969 L 96.507812 160.960938 C 96.507812 159.492188 97.699219 158.296875 99.171875 158.296875 Z M 99.171875 158.296875 " clip-rule="nonzero"/></clipPath><clipPath id="b96ae71f86"><path d="M 92 57.742188 L 124.746094 57.742188 L 124.746094 123.867188 L 92 123.867188 Z M 92 57.742188 " clip-rule="nonzero"/></clipPath><clipPath id="7a0eaf51f4"><path d="M 108.371094 57.742188 C 99.328125 57.742188 92 72.542969 92 90.804688 C 92 109.0625 99.328125 123.867188 108.371094 123.867188 C 117.414062 123.867188 124.746094 109.0625 124.746094 90.804688 C 124.746094 72.542969 117.414062 57.742188 108.371094 57.742188 Z M 108.371094 57.742188 " clip-rule="nonzero"/></clipPath><clipPath id="67b1548454"><path d="M 132.550781 122.070312 L 165.769531 122.070312 L 165.769531 127.917969 L 132.550781 127.917969 Z M 132.550781 122.070312 " clip-rule="nonzero"/></clipPath><clipPath id="5eb37f770e"><path d="M 131.445312 47.574219 L 166.871094 47.574219 L 166.871094 154.277344 L 131.445312 154.277344 Z M 131.445312 47.574219 " clip-rule="nonzero"/></clipPath><clipPath id="ec57169676"><path d="M 134.441406 47.574219 L 163.878906 47.574219 C 165.53125 47.574219 166.871094 48.914062 166.871094 50.566406 L 166.871094 151.28125 C 166.871094 152.9375 165.53125 154.277344 163.878906 154.277344 L 134.441406 154.277344 C 132.785156 154.277344 131.445312 152.9375 131.445312 151.28125 L 131.445312 50.566406 C 131.445312 48.914062 132.785156 47.574219 134.441406 47.574219 Z M 134.441406 47.574219 " clip-rule="nonzero"/></clipPath><clipPath id="332b5236f7"><path d="M 131.445312 22.078125 L 166.871094 22.078125 L 166.871094 90.917969 L 131.445312 90.917969 Z M 131.445312 22.078125 " clip-rule="nonzero"/></clipPath><clipPath id="63601ef34f"><path d="M 149.160156 22.078125 C 139.378906 22.078125 131.445312 37.488281 131.445312 56.496094 C 131.445312 75.507812 139.378906 90.917969 149.160156 90.917969 C 158.941406 90.917969 166.871094 75.507812 166.871094 56.496094 C 166.871094 37.488281 158.941406 22.078125 149.160156 22.078125 Z M 149.160156 22.078125 " clip-rule="nonzero"/></clipPath><clipPath id="87bd5910fb"><path d="M 135.816406 29.453125 L 162.503906 29.453125 L 162.503906 63.246094 L 135.816406 63.246094 Z M 135.816406 29.453125 " clip-rule="nonzero"/></clipPath><clipPath id="7234d19d47"><path d="M 149.160156 29.453125 C 152.699219 29.453125 156.09375 30.859375 158.597656 33.363281 C 161.097656 35.867188 162.503906 39.261719 162.503906 42.800781 L 162.503906 49.898438 C 162.503906 53.4375 161.097656 56.832031 158.597656 59.335938 C 156.09375 61.839844 152.699219 63.246094 149.160156 63.246094 C 145.621094 63.246094 142.226562 61.839844 139.722656 59.335938 C 137.222656 56.832031 135.816406 53.4375 135.816406 49.898438 L 135.816406 42.800781 C 135.816406 39.261719 137.222656 35.867188 139.722656 33.363281 C 142.226562 30.859375 145.621094 29.453125 149.160156 29.453125 Z M 149.160156 29.453125 " clip-rule="nonzero"/></clipPath><clipPath id="e68634b4fb"><path d="M 133.707031 37.621094 L 164.613281 37.621094 L 164.613281 71.410156 L 133.707031 71.410156 Z M 133.707031 37.621094 " clip-rule="nonzero"/></clipPath><clipPath id="e5061cbc11"><path d="M 149.160156 37.621094 C 153.257812 37.621094 157.1875 39.25 160.085938 42.148438 C 162.984375 45.042969 164.613281 48.976562 164.613281 53.074219 L 164.613281 55.957031 C 164.613281 60.054688 162.984375 63.984375 160.085938 66.882812 C 157.1875 69.78125 153.257812 71.410156 149.160156 71.410156 C 145.0625 71.410156 141.128906 69.78125 138.234375 66.882812 C 135.335938 63.984375 133.707031 60.054688 133.707031 55.957031 L 133.707031 53.074219 C 133.707031 48.976562 135.335938 45.042969 138.234375 42.148438 C 141.128906 39.25 145.0625 37.621094 149.160156 37.621094 Z M 149.160156 37.621094 " clip-rule="nonzero"/></clipPath><clipPath id="9bdc3f0835"><path d="M 185.941406 158.296875 L 191.273438 158.296875 L 191.273438 188.9375 L 185.941406 188.9375 Z M 185.941406 158.296875 " clip-rule="nonzero"/></clipPath><clipPath id="274f0a2623"><path d="M 188.605469 158.296875 C 190.078125 158.296875 191.273438 159.492188 191.273438 160.960938 L 191.273438 186.273438 C 191.273438 187.746094 190.078125 188.9375 188.605469 188.9375 C 187.136719 188.9375 185.941406 187.746094 185.941406 186.273438 L 185.941406 160.960938 C 185.941406 159.492188 187.136719 158.296875 188.605469 158.296875 Z M 188.605469 158.296875 " clip-rule="nonzero"/></clipPath><clipPath id="b0df7cf56d"><path d="M 194.851562 158.296875 L 200.183594 158.296875 L 200.183594 177.332031 L 194.851562 177.332031 Z M 194.851562 158.296875 " clip-rule="nonzero"/></clipPath><clipPath id="deddeaf5d6"><path d="M 197.519531 158.296875 C 198.992188 158.296875 200.183594 159.492188 200.183594 160.960938 L 200.183594 174.667969 C 200.183594 176.140625 198.992188 177.332031 197.519531 177.332031 C 196.046875 177.332031 194.851562 176.140625 194.851562 174.667969 L 194.851562 160.960938 C 194.851562 159.492188 196.046875 158.296875 197.519531 158.296875 Z M 197.519531 158.296875 " clip-rule="nonzero"/></clipPath><clipPath id="7826041424"><path d="M 176.742188 158.296875 L 182.074219 158.296875 L 182.074219 177.332031 L 176.742188 177.332031 Z M 176.742188 158.296875 " clip-rule="nonzero"/></clipPath><clipPath id="f29585ec68"><path d="M 179.40625 158.296875 C 180.878906 158.296875 182.074219 159.492188 182.074219 160.960938 L 182.074219 174.667969 C 182.074219 176.140625 180.878906 177.332031 179.40625 177.332031 C 177.933594 177.332031 176.742188 176.140625 176.742188 174.667969 L 176.742188 160.960938 C 176.742188 159.492188 177.933594 158.296875 179.40625 158.296875 Z M 179.40625 158.296875 " clip-rule="nonzero"/></clipPath><clipPath id="de9c3cb9fb"><path d="M 172.234375 90.804688 L 204.980469 90.804688 L 204.980469 154.277344 L 172.234375 154.277344 Z M 172.234375 90.804688 " clip-rule="nonzero"/></clipPath><clipPath id="e648e588e3"><path d="M 175.226562 90.804688 L 201.988281 90.804688 C 203.640625 90.804688 204.980469 92.144531 204.980469 93.796875 L 204.980469 151.28125 C 204.980469 152.9375 203.640625 154.277344 201.988281 154.277344 L 175.226562 154.277344 C 173.574219 154.277344 172.234375 152.9375 172.234375 151.28125 L 172.234375 93.796875 C 172.234375 92.144531 173.574219 90.804688 175.226562 90.804688 Z M 175.226562 90.804688 " clip-rule="nonzero"/></clipPath><clipPath id="812448038b"><path d="M 172.234375 57.742188 L 204.980469 57.742188 L 204.980469 123.867188 L 172.234375 123.867188 Z M 172.234375 57.742188 " clip-rule="nonzero"/></clipPath><clipPath id="14691ccecb"><path d="M 188.605469 57.742188 C 179.566406 57.742188 172.234375 72.542969 172.234375 90.804688 C 172.234375 109.0625 179.566406 123.867188 188.605469 123.867188 C 197.648438 123.867188 204.980469 109.0625 204.980469 90.804688 C 204.980469 72.542969 197.648438 57.742188 188.605469 57.742188 Z M 188.605469 57.742188 " clip-rule="nonzero"/></clipPath><clipPath id="7557c3bd80"><path d="M 49.503906 75.429688 L 92 75.429688 L 92 118 L 49.503906 118 Z M 49.503906 75.429688 " clip-rule="nonzero"/></clipPath><clipPath id="0897a243c6"><path d="M 204.980469 154.761719 L 230.421875 154.761719 L 230.421875 180 L 204.980469 180 Z M 204.980469 154.761719 " clip-rule="nonzero"/></clipPath><clipPath id="737187cc99"><path d="M 70.753906 134.050781 L 86.464844 134.050781 L 86.464844 149.761719 L 70.753906 149.761719 Z M 70.753906 134.050781 " clip-rule="nonzero"/></clipPath><clipPath id="02d0b33e3e"><path d="M 177.699219 22.078125 L 191.167969 22.078125 L 191.167969 35.546875 L 177.699219 35.546875 Z M 177.699219 22.078125 " clip-rule="nonzero"/></clipPath></defs><g clip-path="url(#4556dac90c)"><path fill="#000000" d="M 195.550781 121.667969 C 218.207031 98.789062 218.003906 93.675781 204.421875 71.878906 C 223.003906 87.984375 229.988281 90.675781 252.339844 73.570312 C 252.332031 73.542969 252.324219 73.519531 252.316406 73.492188 C 275.929688 48.460938 286.957031 26.402344 279.359375 14.175781 C 271.089844 0.859375 242.585938 2.1875 205.246094 15.085938 C 189.335938 5.648438 170.769531 0.246094 150.945312 0.246094 C 91.996094 0.246094 44.199219 48.03125 44.199219 106.980469 C 44.199219 109.511719 44.292969 112.015625 44.464844 114.496094 C 15.410156 142.828125 0.992188 168.421875 9.40625 181.953125 C 17.148438 194.414062 42.597656 194.042969 76.421875 183.394531 C 103.699219 174.792969 136.421875 159.484375 169.707031 138.804688 C 178.714844 133.203125 187.351562 127.464844 195.550781 121.667969 Z M 229.929688 40.417969 C 230.4375 44.359375 230.851562 44.902344 233.851562 45.570312 C 230.851562 46.238281 230.4375 46.777344 229.929688 50.722656 C 229.421875 46.777344 229.011719 46.238281 226.007812 45.570312 C 229.011719 44.902344 229.421875 44.359375 229.929688 40.417969 Z M 184.578125 27.785156 C 185.652344 27.785156 186.527344 28.65625 186.527344 29.734375 C 186.527344 30.808594 185.652344 31.683594 184.578125 31.683594 C 183.5 31.683594 182.628906 30.808594 182.628906 29.734375 C 182.628906 28.65625 183.5 27.785156 184.578125 27.785156 Z M 180.640625 86.527344 C 187.671875 90.359375 189.40625 90 197.152344 83.132812 C 191.398438 91.738281 191.28125 93.507812 196.023438 99.953125 C 188.996094 96.125 187.261719 96.480469 179.511719 103.347656 C 185.265625 94.742188 185.386719 92.976562 180.640625 86.527344 Z M 100.324219 133.011719 C 93.292969 129.179688 91.558594 129.539062 83.8125 136.40625 C 89.566406 127.796875 89.683594 126.03125 84.9375 119.585938 C 91.96875 123.414062 93.703125 123.058594 101.453125 116.191406 C 95.699219 124.796875 95.578125 126.5625 100.324219 133.011719 Z M 103.789062 55.539062 C 102.816406 47.988281 102.027344 46.949219 96.28125 45.671875 C 102.027344 44.394531 102.816406 43.355469 103.789062 35.804688 C 104.765625 43.355469 105.554688 44.394531 111.300781 45.671875 C 105.554688 46.949219 104.765625 47.988281 103.789062 55.539062 Z M 130.386719 79.507812 C 128.3125 79.507812 126.628906 77.824219 126.628906 75.75 C 126.628906 73.675781 128.3125 71.996094 130.386719 71.996094 C 132.460938 71.996094 134.140625 73.675781 134.140625 75.75 C 134.140625 77.824219 132.460938 79.507812 130.386719 79.507812 Z M 130.386719 79.507812 " fill-opacity="1" fill-rule="nonzero"/></g><path fill="#000000" d="M 247.023438 121.734375 C 227.960938 105.21875 222.773438 103.960938 197.84375 121.742188 C 190.027344 128.871094 181.710938 135.996094 172.964844 143.019531 C 144.683594 165.722656 116.332031 183.78125 91.609375 195.71875 C 108.570312 207.097656 128.988281 213.722656 150.945312 213.722656 C 209.894531 213.722656 257.679688 165.9375 257.679688 106.980469 C 257.679688 95.871094 255.980469 85.152344 252.824219 75.082031 C 233.28125 95.347656 234.078125 100.96875 247.023438 121.734375 Z M 247.023438 121.734375 " fill-opacity="1" fill-rule="nonzero"/><g clip-path="url(#697bff88e8)"><g clip-path="url(#665a27f389)"><g clip-path="url(#be64591d85)"><path fill="#000000" d="M 65.222656 144.519531 L 131.738281 54.113281 L 162.796875 76.960938 L 96.28125 167.367188 Z M 65.222656 144.519531 " fill-opacity="1" fill-rule="nonzero"/></g></g></g><g clip-path="url(#34191b5119)"><g clip-path="url(#663166d430)"><path fill="#ffffff" d="M 145.503906 158.296875 L 152.65625 158.296875 L 152.65625 199.40625 L 145.503906 199.40625 Z M 145.503906 158.296875 " fill-opacity="1" fill-rule="nonzero"/></g></g><g clip-path="url(#485e00f063)"><g clip-path="url(#3d57c6f55f)"><path fill="#ffffff" d="M 157.460938 158.976562 L 164.613281 158.976562 L 164.613281 184.515625 L 157.460938 184.515625 Z M 157.460938 158.976562 " fill-opacity="1" fill-rule="nonzero"/></g></g><g clip-path="url(#90c38b014c)"><g clip-path="url(#ac75375072)"><path fill="#ffffff" d="M 133.164062 158.976562 L 140.316406 158.976562 L 140.316406 184.515625 L 133.164062 184.515625 Z M 133.164062 158.976562 " fill-opacity="1" fill-rule="nonzero"/></g></g><g clip-path="url(#08de2b0827)"><g clip-path="url(#cb37eea06d)"><path fill="#ffffff" d="M 92 90.804688 L 124.746094 90.804688 L 124.746094 154.277344 L 92 154.277344 Z M 92 90.804688 " fill-opacity="1" fill-rule="nonzero"/></g></g><g clip-path="url(#c6d2e43e46)"><g clip-path="url(#314f29399f)"><path fill="#ffffff" d="M 105.707031 158.296875 L 111.039062 158.296875 L 111.039062 188.9375 L 105.707031 188.9375 Z M 105.707031 158.296875 " fill-opacity="1" fill-rule="nonzero"/></g></g><g clip-path="url(#fe7e586bae)"><g clip-path="url(#5ebf0bc54b)"><path fill="#ffffff" d="M 114.617188 158.296875 L 119.949219 158.296875 L 119.949219 177.332031 L 114.617188 177.332031 Z M 114.617188 158.296875 " fill-opacity="1" fill-rule="nonzero"/></g></g><g clip-path="url(#9195a4e878)"><g clip-path="url(#ba258d973d)"><path fill="#ffffff" d="M 96.507812 158.296875 L 101.835938 158.296875 L 101.835938 177.332031 L 96.507812 177.332031 Z M 96.507812 158.296875 " fill-opacity="1" fill-rule="nonzero"/></g></g><g clip-path="url(#b96ae71f86)"><g clip-path="url(#7a0eaf51f4)"><path fill="#ffffff" d="M 92 57.742188 L 124.746094 57.742188 L 124.746094 123.867188 L 92 123.867188 Z M 92 57.742188 " fill-opacity="1" fill-rule="nonzero"/></g></g><g clip-path="url(#67b1548454)"><path fill="#000000" d="M 132.550781 122.070312 L 165.769531 122.070312 L 165.769531 127.917969 L 132.550781 127.917969 Z M 132.550781 122.070312 " fill-opacity="1" fill-rule="nonzero"/></g><g clip-path="url(#5eb37f770e)"><g clip-path="url(#ec57169676)"><path fill="#ffffff" d="M 131.445312 47.574219 L 166.871094 47.574219 L 166.871094 154.277344 L 131.445312 154.277344 Z M 131.445312 47.574219 " fill-opacity="1" fill-rule="nonzero"/></g></g><g clip-path="url(#332b5236f7)"><g clip-path="url(#63601ef34f)"><path fill="#ffffff" d="M 131.445312 22.078125 L 166.871094 22.078125 L 166.871094 90.917969 L 131.445312 90.917969 Z M 131.445312 22.078125 " fill-opacity="1" fill-rule="nonzero"/></g></g><g clip-path="url(#87bd5910fb)"><g clip-path="url(#7234d19d47)"><path fill="#000000" d="M 135.816406 29.453125 L 162.503906 29.453125 L 162.503906 63.246094 L 135.816406 63.246094 Z M 135.816406 29.453125 " fill-opacity="1" fill-rule="nonzero"/></g></g><g clip-path="url(#e68634b4fb)"><g clip-path="url(#e5061cbc11)"><path fill="#ffffff" d="M 133.707031 37.621094 L 164.613281 37.621094 L 164.613281 71.410156 L 133.707031 71.410156 Z M 133.707031 37.621094 " fill-opacity="1" fill-rule="nonzero"/></g></g><g clip-path="url(#9bdc3f0835)"><g clip-path="url(#274f0a2623)"><path fill="#ffffff" d="M 185.941406 158.296875 L 191.273438 158.296875 L 191.273438 188.9375 L 185.941406 188.9375 Z M 185.941406 158.296875 " fill-opacity="1" fill-rule="nonzero"/></g></g><g clip-path="url(#b0df7cf56d)"><g clip-path="url(#deddeaf5d6)"><path fill="#ffffff" d="M 194.851562 158.296875 L 200.183594 158.296875 L 200.183594 177.332031 L 194.851562 177.332031 Z M 194.851562 158.296875 " fill-opacity="1" fill-rule="nonzero"/></g></g><g clip-path="url(#7826041424)"><g clip-path="url(#f29585ec68)"><path fill="#ffffff" d="M 176.742188 158.296875 L 182.074219 158.296875 L 182.074219 177.332031 L 176.742188 177.332031 Z M 176.742188 158.296875 " fill-opacity="1" fill-rule="nonzero"/></g></g><g clip-path="url(#de9c3cb9fb)"><g clip-path="url(#e648e588e3)"><path fill="#ffffff" d="M 172.234375 90.804688 L 204.980469 90.804688 L 204.980469 154.277344 L 172.234375 154.277344 Z M 172.234375 90.804688 " fill-opacity="1" fill-rule="nonzero"/></g></g><g clip-path="url(#812448038b)"><g clip-path="url(#14691ccecb)"><path fill="#ffffff" d="M 172.234375 57.742188 L 204.980469 57.742188 L 204.980469 123.867188 L 172.234375 123.867188 Z M 172.234375 57.742188 " fill-opacity="1" fill-rule="nonzero"/></g></g><g clip-path="url(#7557c3bd80)"><path fill="#ffffff" d="M 91.988281 96.671875 C 76.058594 99.605469 73.679688 101.984375 70.746094 117.914062 C 67.8125 101.984375 65.4375 99.605469 49.503906 96.671875 C 65.4375 93.738281 67.8125 91.363281 70.746094 75.429688 C 73.679688 91.363281 76.058594 93.738281 91.988281 96.671875 Z M 91.988281 96.671875 " fill-opacity="1" fill-rule="nonzero"/></g><g clip-path="url(#0897a243c6)"><path fill="#ffffff" d="M 230.183594 167.363281 C 220.734375 169.105469 219.320312 170.515625 217.582031 179.96875 C 215.84375 170.515625 214.429688 169.105469 204.980469 167.363281 C 214.429688 165.625 215.84375 164.214844 217.582031 154.761719 C 219.320312 164.214844 220.734375 165.625 230.183594 167.363281 Z M 230.183594 167.363281 " fill-opacity="1" fill-rule="nonzero"/></g><g clip-path="url(#737187cc99)"><path fill="#ffffff" d="M 86.464844 141.90625 C 80.570312 142.988281 79.691406 143.871094 78.609375 149.761719 C 77.523438 143.871094 76.644531 142.988281 70.753906 141.90625 C 76.644531 140.820312 77.523438 139.941406 78.609375 134.050781 C 79.691406 139.941406 80.570312 140.820312 86.464844 141.90625 Z M 86.464844 141.90625 " fill-opacity="1" fill-rule="nonzero"/></g><g clip-path="url(#02d0b33e3e)"><path fill="#ffffff" d="M 191.167969 28.808594 C 186.117188 29.738281 185.363281 30.492188 184.433594 35.542969 C 183.503906 30.492188 182.75 29.738281 177.699219 28.808594 C 182.75 27.878906 183.503906 27.128906 184.433594 22.078125 C 185.363281 27.128906 186.117188 27.878906 191.167969 28.808594 Z M 191.167969 28.808594 " fill-opacity="1" fill-rule="nonzero"/></g></svg>